<?xml version="1.0" encoding="UTF-8" standalone="no"?>
<!-- Created with Inkscape (http://www.inkscape.org/) -->

<svg
   xmlns:dc="http://purl.org/dc/elements/1.1/"
   xmlns:cc="http://creativecommons.org/ns#"
   xmlns:rdf="http://www.w3.org/1999/02/22-rdf-syntax-ns#"
   xmlns:svg="http://www.w3.org/2000/svg"
   xmlns="http://www.w3.org/2000/svg"
   xmlns:xlink="http://www.w3.org/1999/xlink"
   xmlns:sodipodi="http://sodipodi.sourceforge.net/DTD/sodipodi-0.dtd"
   xmlns:inkscape="http://www.inkscape.org/namespaces/inkscape"
   width="210mm"
   height="297mm"
   viewBox="0 0 210 297"
   version="1.1"
   id="svg8"
   inkscape:version="0.92.1 r15371"
   sodipodi:docname="page170313a.svg">
  <defs
     id="defs2">
    <inkscape:path-effect
       effect="skeletal"
       id="path-effect4564"
       is_visible="true"
       pattern="m 88.896141,55.5626 c -0.543848,0.482295 -2.283738,1.145351 -2.509683,1.4627 -0.111688,0.156871 -0.09132,3.637936 -0.114712,4.71639 m 0.232766,-4.826792 c 0.111204,-3.169309 3.287257,-2.807896 5.288925,-3.725328 -0.722823,2.863499 -2.814641,4.39255 -5.288925,3.725328 z M 83.647349,55.5626 c 0.543849,0.482295 2.283739,1.145351 2.509683,1.4627 0.111689,0.156871 0.09132,3.637936 0.114713,4.71639 m -0.232766,-4.826792 c -0.111204,-3.169309 -3.287258,-2.807896 -5.288926,-3.725328 0.722825,2.863499 2.814641,4.39255 5.288926,3.725328 z"
       copytype="repeated_stretched"
       prop_scale="1"
       scale_y_rel="true"
       spacing="-4.1"
       normal_offset="0"
       tang_offset="0"
       prop_units="false"
       vertical_pattern="true"
       fuse_tolerance="0"
       pattern-nodetypes="cscccccscccc" />
    <inkscape:path-effect
       pattern-nodetypes="cscccccscccc"
       fuse_tolerance="0"
       vertical_pattern="true"
       prop_units="false"
       tang_offset="0"
       normal_offset="0"
       spacing="-4.1"
       scale_y_rel="true"
       prop_scale="1"
       copytype="repeated_stretched"
       pattern="m 34.446403,17.347158 c -0.543848,0.482295 -2.283738,1.145351 -2.509683,1.4627 -0.111688,0.156871 -0.09132,3.637936 -0.114712,4.71639 m 0.232766,-4.826792 c 0.111204,-3.169309 3.287257,-2.807896 5.288925,-3.725328 -0.722823,2.863499 -2.814641,4.39255 -5.288925,3.725328 z m -2.857163,-1.352298 c 0.543849,0.482295 2.283739,1.145351 2.509683,1.4627 0.111689,0.156871 0.09132,3.637936 0.114713,4.71639 m -0.232766,-4.826792 c -0.111204,-3.169309 -3.287258,-2.807896 -5.288926,-3.725328 0.722825,2.863499 2.814641,4.39255 5.288926,3.725328 z"
       is_visible="true"
       id="path-effect4562"
       effect="skeletal" />
    <inkscape:path-effect
       effect="skeletal"
       id="path-effect4537"
       is_visible="true"
       pattern="m 34.446403,17.347158 c -0.543848,0.482295 -2.283738,1.145351 -2.509683,1.4627 -0.111688,0.156871 -0.09132,3.637936 -0.114712,4.71639 m 0.232766,-4.826792 c 0.111204,-3.169309 3.287257,-2.807896 5.288925,-3.725328 -0.722823,2.863499 -2.814641,4.39255 -5.288925,3.725328 z m -2.857163,-1.352298 c 0.543849,0.482295 2.283739,1.145351 2.509683,1.4627 0.111689,0.156871 0.09132,3.637936 0.114713,4.71639 m -0.232766,-4.826792 c -0.111204,-3.169309 -3.287258,-2.807896 -5.288926,-3.725328 0.722825,2.863499 2.814641,4.39255 5.288926,3.725328 z"
       copytype="repeated_stretched"
       prop_scale="1"
       scale_y_rel="true"
       spacing="-4.1"
       normal_offset="0"
       tang_offset="0"
       prop_units="false"
       vertical_pattern="true"
       fuse_tolerance="0"
       pattern-nodetypes="cscccccscccc" />
    <inkscape:path-effect
       effect="skeletal"
       id="path-effect4520"
       is_visible="true"
       pattern="M 0,0 H 1"
       copytype="single_stretched"
       prop_scale="1"
       scale_y_rel="false"
       spacing="0"
       normal_offset="0"
       tang_offset="0"
       prop_units="false"
       vertical_pattern="false"
       fuse_tolerance="0" />
    <inkscape:path-effect
       effect="skeletal"
       id="path-effect4539"
       is_visible="true"
       pattern="m 7.3865995,-20.978105 c -0.4433189,0.393143 -1.8615923,0.933635 -2.0457715,1.192322 -0.091043,0.127874 -0.07444,2.732846 -0.093508,3.611949 m 0.1897397,-3.701944 c 0.090648,-2.583465 2.6796124,-2.288859 4.3112746,-3.036705 -0.5892107,2.334184 -2.294358,3.580593 -4.3112746,3.036705 z m -2.3290196,-1.102327 c 0.4433187,0.393143 1.8615919,0.933635 2.0457713,1.192322 0.091043,0.127874 0.07444,2.732846 0.093508,3.611949 M 5.05758,-19.875778 c -0.090648,-2.583465 -2.6796124,-2.288859 -4.31127478,-3.036705 0.58921128,2.334184 2.29435838,3.580593 4.31127478,3.036705 z"
       copytype="repeated_stretched"
       prop_scale="1"
       scale_y_rel="false"
       spacing="-3.2"
       normal_offset="0"
       tang_offset="0"
       prop_units="false"
       vertical_pattern="true"
       fuse_tolerance="0"
       pattern-nodetypes="cscccccscccc" />
    <inkscape:path-effect
       effect="skeletal"
       id="path-effect4509"
       is_visible="true"
       pattern="m 17.890307,12.830616 c 2.477057,0.298692 1.570783,3.224898 -0.996888,2.549535 -3.852367,-1.013271 -2.79806,-2.081813 0.996888,-2.549535 z"
       copytype="repeated_stretched"
       prop_scale="1"
       scale_y_rel="true"
       spacing="0"
       normal_offset="0"
       tang_offset="0"
       prop_units="false"
       vertical_pattern="false"
       fuse_tolerance="0"
       pattern-nodetypes="csc" />
    <inkscape:path-effect
       effect="skeletal"
       id="path-effect4537-6"
       is_visible="true"
       pattern="m 34.446403,17.347158 c -0.543848,0.482295 -2.283738,1.145351 -2.509683,1.4627 -0.111688,0.156871 -0.09132,3.637936 -0.114712,4.71639 m 0.232766,-4.826792 c 0.111204,-3.169309 3.287257,-2.807896 5.288925,-3.725328 -0.722823,2.863499 -2.814641,4.39255 -5.288925,3.725328 z m -2.857163,-1.352298 c 0.543849,0.482295 2.283739,1.145351 2.509683,1.4627 0.111689,0.156871 0.09132,3.637936 0.114713,4.71639 m -0.232766,-4.826792 c -0.111204,-3.169309 -3.287258,-2.807896 -5.288926,-3.725328 0.722825,2.863499 2.814641,4.39255 5.288926,3.725328 z"
       copytype="repeated_stretched"
       prop_scale="1"
       scale_y_rel="true"
       spacing="-4.1"
       normal_offset="0"
       tang_offset="0"
       prop_units="false"
       vertical_pattern="true"
       fuse_tolerance="0"
       pattern-nodetypes="cscccccscccc" />
  </defs>
  <sodipodi:namedview
     id="base"
     pagecolor="#ffffff"
     bordercolor="#666666"
     borderopacity="1.0"
     inkscape:pageopacity="0.0"
     inkscape:pageshadow="2"
     inkscape:zoom="0.5"
     inkscape:cx="396.85039"
     inkscape:cy="561.25984"
     inkscape:document-units="mm"
     inkscape:current-layer="layer1"
     showgrid="true"
     inkscape:snap-page="true"
     inkscape:snap-bbox="true"
     borderlayer="true"
     inkscape:showpageshadow="false"
     inkscape:snap-global="false"
     inkscape:object-paths="false"
     inkscape:snap-smooth-nodes="false"
     inkscape:snap-intersection-paths="false"
     showguides="true"
     inkscape:guide-bbox="true"
     inkscape:snap-center="true"
     inkscape:object-nodes="true"
     inkscape:snap-nodes="true" />
  <metadata
     id="metadata5">
    <rdf:RDF>
      <cc:Work
         rdf:about="">
        <dc:format>image/svg+xml</dc:format>
        <dc:type
           rdf:resource="http://purl.org/dc/dcmitype/StillImage" />
        <dc:title></dc:title>
        <cc:license
           rdf:resource="http://creativecommons.org/publicdomain/zero/1.0/" />
        <dc:source>https://digitalcollections.nypl.org/items/5e66b3e8-9748-d471-e040-e00a180654d7</dc:source>
      </cc:Work>
      <cc:License
         rdf:about="http://creativecommons.org/publicdomain/zero/1.0/">
        <cc:permits
           rdf:resource="http://creativecommons.org/ns#Reproduction" />
        <cc:permits
           rdf:resource="http://creativecommons.org/ns#Distribution" />
        <cc:permits
           rdf:resource="http://creativecommons.org/ns#DerivativeWorks" />
      </cc:License>
    </rdf:RDF>
  </metadata>
  <g
     inkscape:groupmode="layer"
     id="layer2"
     inkscape:label="mark"
     sodipodi:insensitive="true"
     style="display:none">
    <g
       id="g4516">
      <g
         id="g4506">
        <path
           style="fill:none;stroke:#0d0015;stroke-width:0.2;stroke-linecap:round;paint-order:stroke fill markers"
           d="m -12,0 h 9 v -12"
           id="path4485"
           inkscape:connector-curvature="0"
           sodipodi:nodetypes="ccc" />
        <use
           x="0"
           y="0"
           xlink:href="#path4485"
           id="use4502"
           width="100%"
           height="100%"
           transform="matrix(0,1,1,0,0,0)" />
      </g>
      <use
         transform="matrix(-1,0,0,1,210,0)"
         height="100%"
         width="100%"
         id="use4508"
         xlink:href="#g4506"
         y="0"
         x="0" />
      <path
         style="fill:#008899;stroke:#000000;stroke-width:0.2;stroke-linecap:round;paint-order:stroke fill markers"
         d="m 105,-12 v 9"
         id="path4524"
         inkscape:connector-curvature="0"
         sodipodi:nodetypes="cc" />
      <path
         style="fill:#008899;stroke:#000000;stroke-width:0.2;stroke-linecap:round;paint-order:stroke fill markers"
         d="m 96,-5.9999998 h 18"
         id="path4548"
         inkscape:connector-curvature="0" />
      <path
         style="fill:#008899;stroke:#000000;stroke-width:0.2;stroke-linecap:round;paint-order:stroke fill markers"
         d="m -12,148.50001 h 9.0000002"
         id="path4554"
         inkscape:connector-curvature="0"
         sodipodi:nodetypes="cc" />
      <path
         style="fill:#008899;stroke:#000000;stroke-width:0.2;stroke-linecap:round;paint-order:stroke fill markers"
         d="M -5.9999996,159 V 138"
         id="path4556"
         inkscape:connector-curvature="0" />
    </g>
    <use
       x="0"
       y="0"
       xlink:href="#g4516"
       id="use4518"
       width="100%"
       height="100%"
       transform="rotate(-180,105,148.5)" />
  </g>
  <g
     inkscape:groupmode="layer"
     id="layer1"
     inkscape:label="white"
     sodipodi:insensitive="true">
    <rect
       style="fill:#ffffff;stroke-width:0.1;stroke-linecap:round;paint-order:markers fill stroke"
       id="rect4533"
       width="210"
       height="297"
       x="0"
       y="0" />
  </g>
  <g
     inkscape:groupmode="layer"
     id="layer3"
     inkscape:label="leaf"
     sodipodi:insensitive="true">
    <g
       id="g4647"
       transform="translate(17.137805,13.734809)">
      <g
         id="g4511">
        <path
           style="fill:none;stroke:#0d0015;stroke-width:0.1;stroke-linecap:round;paint-order:markers fill stroke"
           d="m 87.554912,124.83501 c -2.010375,-2.38732 -2.888819,-3.30302 -4.647898,-2.80044 -1.403075,0.35601 -1.361192,1.36119 0.02094,3.05745"
           id="path4505"
           inkscape:connector-curvature="0"
           sodipodi:nodetypes="ccc" />
        <path
           style="fill:none;stroke:#0d0015;stroke-width:0.1;stroke-linecap:round;paint-order:markers fill stroke"
           d="m 82.55101,125.59461 c -1.759078,-1.40307 -1.821902,-3.14121 -0.649185,-3.2878 1.759081,-0.23035 3.321959,0.57036 5.43704,2.58074"
           id="path4507"
           inkscape:connector-curvature="0"
           sodipodi:nodetypes="ccc" />
        <path
           sodipodi:nodetypes="cccc"
           inkscape:connector-curvature="0"
           id="path4515"
           d="m 88.595072,125.33245 c 1.007372,-2.07049 2.060261,-0.40797 2.96074,0.61817 1.863787,2.19884 4.879348,1.90567 5.65418,-0.20942 0.590136,-1.45481 1.546082,-1.33055 1.717194,1.19366"
           style="fill:none;stroke:#0d0015;stroke-width:0.1;stroke-linecap:round;paint-order:markers fill stroke" />
        <path
           sodipodi:nodetypes="cc"
           inkscape:connector-curvature="0"
           id="path4517"
           d="m 89.541346,124.55201 c 2.13323,-2.06091 4.320691,2.58518 5.459619,2.54902"
           style="fill:none;stroke:#0d0015;stroke-width:0.1;stroke-linecap:round;paint-order:markers fill stroke" />
        <path
           sodipodi:nodetypes="cc"
           inkscape:connector-curvature="0"
           id="path4519"
           d="m 93.789724,127.19142 c 2.404402,0.72313 2.657499,-3.61564 4.411082,-2.11515"
           style="fill:none;stroke:#0d0015;stroke-width:0.1;stroke-linecap:round;paint-order:markers fill stroke" />
        <path
           sodipodi:nodetypes="cccc"
           inkscape:connector-curvature="0"
           id="path4521"
           d="m 95.158296,127.39222 c 3.632785,1.15594 6.387444,1.28634 8.383224,0.63167 1.10995,-0.34734 2.10053,-0.39718 3.35178,-0.32487 -2.6512,-0.34991 -5.94622,0.0783 -10.288306,-1.02266"
           style="fill:none;stroke:#0d0015;stroke-width:0.1;stroke-linecap:round;paint-order:markers fill stroke" />
        <path
           sodipodi:nodetypes="csc"
           inkscape:connector-curvature="0"
           id="path4538"
           d="m 87.935778,124.79723 c -0.562462,0 -0.876004,0.22633 -0.773739,0.69931 0.07876,0.36428 0.07066,0.86024 0.709822,0.84745"
           style="fill:none;stroke:#0d0015;stroke-width:0.1;stroke-linecap:round;paint-order:markers fill stroke" />
        <path
           sodipodi:nodetypes="cc"
           inkscape:connector-curvature="0"
           id="path4540"
           d="m 83.065369,126.90646 c 0.498545,2.03253 2.664185,1.69864 4.198173,-0.87079"
           style="fill:none;stroke:#0d0015;stroke-width:0.1;stroke-linecap:round;paint-order:markers fill stroke" />
        <path
           sodipodi:nodetypes="cc"
           inkscape:connector-curvature="0"
           id="path4542"
           d="m 83.627831,126.54853 c 0.409064,1.81522 2.702592,0.90526 3.444019,-0.56481"
           style="fill:none;stroke:#0d0015;stroke-width:0.1;stroke-linecap:round;paint-order:markers fill stroke" />
        <path
           sodipodi:nodetypes="cccc"
           inkscape:connector-curvature="0"
           id="path4580"
           d="m 80.001786,126.40737 c 0.720607,-0.16281 1.421234,-0.27567 2.089754,-0.35823 m 2.159967,-0.19445 c 1.04658,-0.0703 1.942528,-0.1153 2.6161,-0.2513"
           style="fill:none;stroke:#0d0015;stroke-width:0.1;stroke-linecap:round;paint-order:markers fill stroke" />
        <path
           sodipodi:nodetypes="cc"
           inkscape:connector-curvature="0"
           id="path4582"
           d="m 83.663712,126.5973 c 1.145921,-0.18709 1.789036,-0.45603 2.420461,-0.54957"
           style="fill:none;stroke:#0d0015;stroke-width:0.1;stroke-linecap:round;paint-order:markers fill stroke" />
        <path
           sodipodi:nodetypes="cc"
           inkscape:connector-curvature="0"
           id="path4584"
           d="m 87.345572,125.37636 c 0.01654,0.32247 0.124023,0.77722 0.256315,0.93432"
           style="fill:none;stroke:#0d0015;stroke-width:0.1;stroke-linecap:round;paint-order:markers fill stroke" />
        <path
           sodipodi:nodetypes="cc"
           inkscape:connector-curvature="0"
           id="path4586"
           d="m 98.478799,124.70302 c 1.145918,-0.3274 2.057971,1.40317 2.280141,2.88819"
           style="fill:none;stroke:#0d0015;stroke-width:0.1;stroke-linecap:round;paint-order:markers fill stroke" />
        <path
           style="fill:none;stroke:#0d0015;stroke-width:0.1;stroke-linecap:round;paint-order:markers fill stroke"
           d="m 61.024274,42.336133 c -0.112904,0.746197 0.362236,2.570058 0.241602,2.944607 -0.05963,0.185146 -2.79462,2.386063 -3.571687,3.147469 m 3.590188,-3.309704 c 2.56308,-2.047469 0.514606,-4.276536 0.354716,-6.675267 -2.501228,2.418444 -2.352857,5.102402 -0.354716,6.675267 z m 2.755507,1.568692 c -0.686707,-0.192009 -2.243584,-1.229694 -2.635538,-1.22117 -0.19375,0.0042 -2.900804,2.235188 -3.710156,2.962182 m 3.870158,-2.932976 c 2.592275,-1.787964 4.221199,1.219809 5.875331,2.473949 -2.424284,0.637547 -4.92228,-0.06781 -5.875331,-2.473949 z m -4.307713,-0.233735 c -0.03183,0.752343 0.634324,2.514858 0.553843,2.9001 -0.03978,0.190432 -2.533763,2.665084 -3.230835,3.502206 m 3.232113,-3.665507 c 2.329023,-2.302501 0.05241,-4.307063 -0.370067,-6.65811 -2.208325,2.651284 -1.786094,5.302681 0.370067,6.65811 z m 2.907164,1.265322 c -0.703654,-0.116067 -2.362181,-0.982163 -2.751171,-0.93232 -0.192285,0.02464 -2.655391,2.526396 -3.388105,3.332505 m 3.550342,-3.320354 c 2.38929,-2.052097 4.32446,0.754867 6.108567,1.814542 -2.347207,0.918081 -4.906154,0.479353 -6.108567,-1.814542 z m -4.309984,0.21254 c 0.04616,0.751456 0.889566,2.438567 0.848474,2.830458 -0.02031,0.193718 -2.257693,2.908794 -2.870224,3.811181 m 2.854922,-3.973967 c 2.08367,-2.526623 -0.392319,-4.296116 -1.060578,-6.581817 -1.910007,2.852408 -1.226595,5.449412 1.060578,6.581817 z m 3.025427,0.96229 c -0.713249,-0.04235 -2.453801,-0.735521 -2.836254,-0.646403 -0.189054,0.04405 -2.393011,2.783102 -3.044094,3.658081 m 3.206946,-3.662448 c 2.172266,-2.287277 4.382711,0.303289 6.274577,1.167487 -2.249946,1.175654 -4.844177,0.995498 -6.274577,-1.167487 z m -4.271131,0.641709 c 0.12106,0.743535 1.127961,2.341184 1.125493,2.73568 -0.0012,0.195006 -1.966409,3.117194 -2.489853,4.074396 m 2.458616,-4.235085 c 1.826594,-2.72019 -0.819152,-4.243343 -1.716819,-6.446386 -1.606382,3.022172 -0.674252,5.542232 1.716819,6.446386 z m 3.110294,0.659597 c -0.715493,0.02915 -2.518442,-0.489768 -2.890788,-0.363423 -0.184058,0.06245 -2.113664,3.005307 -2.678121,3.938912 m 2.839966,-3.959258 c 1.940745,-2.493457 4.396419,-0.134968 6.373364,0.532784 -2.132383,1.409752 -4.736467,1.481143 -6.373364,-0.532784 z m -4.191152,1.053771 c 0.192877,0.728582 1.349509,2.222713 1.384901,2.615769 0.01749,0.194294 -1.659911,3.290284 -2.089723,4.291849 m 2.043196,-4.44886 c 1.557335,-2.88336 -1.227632,-4.148584 -2.33879,-6.251819 -1.297418,3.16091 -0.129097,5.580812 2.33879,6.251819 z m 3.161764,0.357243 c -0.710384,0.09843 -2.556104,-0.244904 -2.914771,-0.08338 -0.177296,0.07984 -1.817351,3.193009 -2.290188,4.174995 m 2.449406,-4.210785 c 1.694354,-2.670461 4.365949,-0.560079 6.404927,-0.08957 -1.994566,1.619921 -4.582977,1.93674 -6.404927,0.08957 z m -4.070049,1.448728 c 0.261609,0.706596 1.55421,2.083151 1.626697,2.470723 0.01368,0.07315 -0.195024,0.57724 -0.462771,1.237849 -0.516346,1.273861 -0.938174,2.384983 -1.209355,3.230557 m 1.610953,-4.620157 c 1.275458,-3.016131 -1.61732,-4.011843 -2.926489,-5.998116 -0.982975,3.268896 0.408729,5.564878 2.926489,5.998116 z m 3.17984,0.05523 c -0.697925,0.165478 -2.566789,-9.29e-4 -2.908205,0.193735 -0.06379,0.03637 -0.315148,0.520147 -0.608316,1.168458 -0.570698,1.262152 -0.962877,2.359419 -1.274271,3.202738 m 2.037557,-4.421892 c 1.432833,-2.818031 4.291565,-0.972303 6.369265,-0.699563 -1.836658,1.805788 -4.383543,2.362662 -6.369265,0.699563 z m -3.91207,1.826068 c 0.326662,0.678095 1.743917,1.925906 1.852891,2.305052 0.05387,0.187417 -1.008606,3.544949 -1.241338,4.610788 m 1.166014,-4.756121 c 0.632858,-2.008938 -0.38905,-3.045716 -1.64704,-4.060063 -0.642874,-0.518152 -1.344317,-1.025338 -1.830488,-1.628788 -0.05368,0.271026 -0.09207,0.536321 -0.115812,0.794729 0,0 0,10e-7 0,10e-7 -0.278393,2.903797 1.244031,4.716686 3.59334,4.894121 z m 3.170082,-0.247124 c -0.678148,0.231153 -2.554342,0.242988 -2.875902,0.469301 -0.158953,0.11187 -1.181464,3.479199 -1.460193,4.533945 m 1.60972,-4.599155 c 0.772555,-1.961408 2.353694,-1.912157 3.880851,-1.657989 0.82209,0.136973 1.628687,0.329563 2.386742,0.356633 -0.142622,0.169115 -0.28955,0.328297 -0.440443,0.477426 0,0 0,0 0,0 -1.608999,1.605233 -3.870806,2.168578 -5.82715,0.82393 z m -3.724229,2.191551 c 0.390233,0.644751 1.920667,1.752928 2.065287,2.120118 0.07149,0.181508 -0.665049,3.624748 -0.793466,4.707184 m 0.704619,-4.844745 c 0.682474,-3.204742 -2.345969,-3.635514 -4.005619,-5.338173 -0.35196,3.3949 1.447493,5.389142 4.005619,5.338173 z M 47.3811,70.513867 c -0.654001,0.294505 -2.521721,0.484557 -2.820396,0.740523 -0.147641,0.126528 -0.843487,3.575647 -1.018719,4.651497 m 1.161418,-4.730663 c 0.874064,-3.039658 4.031779,-1.766559 6.121298,-1.891803 -1.457452,2.120582 -3.854355,3.150551 -6.121298,1.891803 z m -3.496881,2.538468 c 0.450341,0.60455 2.079454,1.559802 2.258738,1.911039 0.08862,0.173622 -0.308212,3.668465 -0.328341,4.756817 m 0.226698,-4.885061 c 0.369631,-3.255432 -2.682135,-3.39208 -4.499439,-4.931847 -0.02311,3.420274 1.960953,5.229368 4.499439,4.931847 z m 3.065584,-0.845282 c -0.622632,0.355241 -2.462209,0.723779 -2.734544,1.007161 -0.13462,0.140081 -0.490434,3.636726 -0.557737,4.723182 m 0.692019,-4.815679 c 0.576219,-3.107761 3.843846,-2.142943 5.911865,-2.465135 -1.251141,2.243316 -3.537215,3.4976 -5.911865,2.465135 z m -3.229393,2.866079 c 0.506988,0.557494 2.220277,1.346528 2.433243,1.677815 0.105271,0.163761 0.06191,3.6761 0.154038,4.759686 M 42.91908,79.99238 c 0.04496,-3.274258 -2.996399,-3.108567 -4.955839,-4.468324 0.310405,3.414856 2.463293,5.015343 4.955839,4.468324 z m 2.963341,-1.141144 c -0.584043,0.41336 -2.375806,0.960653 -2.618344,1.269217 -0.119892,0.152528 -0.122308,3.662435 -0.07725,4.748996 m 0.201524,-4.854201 c 0.264849,-3.144658 3.612768,-2.505081 5.635973,-3.022496 -1.027147,2.340252 -3.174739,3.812978 -5.635973,3.022496 z m -2.921767,3.174384 c 0.560173,0.503582 2.343138,1.113106 2.588802,1.420446 0.121436,0.151923 0.445308,3.647655 0.653673,4.715793 m -0.778718,-4.82077 c -0.291575,-3.260783 -3.288714,-2.785414 -5.374819,-3.947606 0.64888,3.378486 2.95421,4.747228 5.374819,3.947606 z m 2.827771,-1.434861 c -0.538234,0.468861 -2.262513,1.195179 -2.471799,1.526688 -0.103455,0.163871 0.260894,3.652774 0.422747,4.728943 M 43.398993,84.47964 c -0.03032,-1.597224 0.832407,-2.307725 1.891141,-2.696731 1.071104,-0.393551 2.379398,-0.495329 3.402484,-0.867154 -0.785903,2.411507 -2.766497,4.096565 -5.293625,3.563885 z m -2.574003,3.463383 c 0.609899,0.442815 2.448035,0.859536 2.725417,1.138932 0.06593,0.06641 0.238658,0.961841 0.467859,1.959727 0.253536,1.103651 0.50856,2.050573 0.699585,2.660369 m -1.303097,-4.711124 c -0.63986,-3.214519 -3.559201,-2.423105 -5.756378,-3.369691 0.992576,3.310866 3.433443,4.425321 5.756378,3.369691 z m 2.658873,-1.726433 c -0.485204,0.521747 -2.12233,1.42736 -2.294908,1.779578 -0.04346,0.08871 0.08118,0.98002 0.287896,1.987096 0.23374,1.138955 0.478864,2.023445 0.651237,2.670883 m -0.83964,-4.786727 c -0.201635,-1.585164 0.583375,-2.382096 1.594121,-2.877956 1.023336,-0.502038 2.312878,-0.738549 3.290699,-1.211347 -0.527847,2.457374 -2.312049,4.348071 -4.88482,4.089303 z m -2.182666,3.730791 c 0.656814,0.373712 2.531014,0.584193 2.837639,0.831127 0.151569,0.122064 1.22881,3.464199 1.662782,4.461789 m -1.807693,-4.537227 c -0.370633,-1.166537 -0.99185,-1.740697 -1.786417,-2.052123 -1.280004,-0.502631 -2.967603,-0.260065 -4.312708,-0.678122 0.226747,0.542769 0.496093,1.025467 0.796781,1.442661 1.460493,2.002927 3.481184,2.373131 5.302344,1.287584 z m 2.454104,-2.010662 c -0.426184,0.572141 -1.953967,1.654014 -2.086494,2.023169 -0.06551,0.182479 1.049777,3.50925 1.440084,4.524719 m -1.35545,-4.663697 c -0.285585,-1.180613 0.05056,-1.980131 0.642506,-2.552163 0.967206,-0.935849 2.629654,-1.333688 3.769894,-2.043341 -0.04611,0.451015 -0.131213,0.878173 -0.253967,1.278801 -0.58108,1.853437 -2.028833,3.293863 -4.158433,3.316703 z m -1.759275,3.940996 c 0.691622,0.298934 2.576024,0.306232 2.907172,0.518921 0.163692,0.105136 1.586627,3.31707 2.120883,4.26616 m -2.272975,-4.325646 c -1.32017,-2.998935 -4.003617,-1.588594 -6.353656,-2.0379 1.68951,3.017693 4.318641,3.567685 6.353656,2.0379 z m 2.220567,-2.263248 c -0.36013,0.61546 -1.761535,1.855243 -1.853819,2.236391 -0.04562,0.188409 1.413628,3.381143 1.906227,4.352503 m -1.836965,-4.499711 c -0.539901,-1.504219 0.05109,-2.452227 0.930752,-3.156857 0.889902,-0.712831 2.097494,-1.224488 2.95047,-1.897222 0.01335,2.51567 -1.309474,4.749668 -3.881222,5.054079 z m -1.337414,4.102961 c 0.718687,0.22474 2.595264,0.0373 2.946821,0.21508 0.17378,0.0879 1.915859,3.14359 2.541951,4.03633 m -2.699499,-4.07995 c -1.620042,-2.846791 -4.152731,-1.16376 -6.528481,-1.35628 1.986368,2.80627 4.657202,3.09003 6.528481,1.35628 z m 1.976154,-2.483857 c -0.293731,0.65102 -1.560906,2.030437 -1.613699,2.419487 -0.0261,0.19231 1.750252,3.22527 2.337044,4.14432 m -2.283186,-4.29803 c -0.692027,-1.44232 -0.204296,-2.447077 0.596354,-3.24159 0.809716,-0.803509 1.956448,-1.44044 2.731215,-2.202051 0.292902,2.516583 -0.797658,4.876621 -3.327569,5.443641 z m -0.918082,4.21994 c 0.738007,0.15113 2.588733,-0.22269 2.956585,-0.0804 0.181834,0.0704 2.216506,2.94375 2.925987,3.77231 m -3.087266,-3.80015 c -1.894605,-2.67331 -4.256029,-0.7419 -6.635396,-0.68754 2.255013,2.57925 4.942011,2.60116 6.635396,0.68754 z m 1.720864,-2.6725 c -0.226987,0.67882 -1.352077,2.1796 -1.366134,2.57245 -0.0069,0.1942 2.05965,3.04165 2.732537,3.9002 m -2.694113,-4.05869 c -0.832396,-1.3684 -0.448684,-2.41798 0.268326,-3.29133 0.724887,-0.88295 1.802198,-1.63419 2.494831,-2.473587 0.556979,2.490297 -0.299718,4.949677 -2.763157,5.764917 z m -0.501279,4.29197 c 0.749583,0.0781 2.556433,-0.47366 2.936463,-0.36746 0.187856,0.0525 2.488569,2.71755 3.272993,3.47409 m -3.436277,-3.48623 c -2.144209,-2.47812 -4.313163,-0.32336 -6.674401,-0.0316 2.495774,2.33671 5.172736,2.10095 6.674401,0.0316 z m 1.454698,-2.82917 c -0.159897,0.69887 -1.13505,2.30272 -1.111124,2.69529 0.01183,0.19405 2.341822,2.83027 3.092704,3.6201 m -3.069746,-3.78164 c -1.896167,-2.5302 1.024624,-4.2801 2.187987,-6.01793 0.805122,2.43666 0.184805,4.96898 -2.187987,6.01793 z m -0.087,4.31901 c 0.753414,0.006 2.498361,-0.71562 2.886457,-0.64618 0.06719,0.012 0.40497,0.32545 0.862574,0.7495 1.050956,0.97396 1.961821,1.78989 2.723533,2.39666 m -3.749673,-3.14268 c -2.369033,-2.26078 -4.32395,0.0914 -6.645494,0.61137 2.708969,2.07868 5.349058,1.58943 6.645494,-0.61137 z m 1.177657,-2.95385 c -0.09246,0.71114 -0.909824,2.39979 -0.84867,2.78798 0.01042,0.0661 0.315366,0.41206 0.751676,0.85572 0.997204,1.01395 1.942299,1.82054 2.669011,2.45283 m -3.413225,-3.47141 c -2.127803,-2.33753 0.610807,-4.3573 1.602059,-6.20266 1.036903,2.35568 0.656338,4.93453 -1.602059,6.20266 z m 0.322219,4.30464 c 0.74973,-0.0654 2.418441,-0.94851 2.81151,-0.91605 0.1943,0.016 2.956057,2.1993 3.869561,2.7949 m -4.03212,-2.77597 c -1.910584,-1.50569 -3.394304,-0.48112 -5.010719,0.47881 -0.505634,0.30032 -1.01701,0.58769 -1.539943,0.75877 0.172226,0.10739 0.344489,0.20596 0.516262,0.29579 0,0 10e-7,0 10e-7,0 2.689724,1.41814 5.013084,0.64931 6.034399,-1.53337 z m 0.891954,-3.05171 c -0.02404,0.71616 -0.677649,2.47459 -0.580008,2.8554 0.04827,0.18825 2.833355,2.33763 3.720175,2.97228 m -3.728159,-3.13518 c -1.797936,-1.63344 -0.725556,-3.31859 0.198322,-4.8413 0.303834,-0.50044 0.598313,-0.99135 0.804005,-1.48101 0.07906,0.14192 0.152281,0.28412 0.219676,0.42645 0,0 0,0 0,0 1.015845,2.12048 0.775997,4.51024 -1.222003,5.89586 z m 0.728296,4.25767 c 0.740883,-0.13623 2.319283,-1.17356 2.713736,-1.17847 0.194984,-0.002 3.151213,1.90789 4.117045,2.41247 m -4.277116,-2.37823 c -2.752636,-1.77436 -4.22999,0.90402 -6.408982,1.85248 3.047528,1.52987 5.549087,0.55664 6.408982,-1.85248 z m 0.600024,-3.1237 c 0.04345,0.71578 -0.441279,2.52878 -0.308009,2.8987 0.06588,0.18286 3.042057,2.05724 3.985101,2.60323 m -4.00847,-2.76467 c -2.530889,-1.89521 -0.221923,-4.39457 0.401371,-6.39326 1.466794,2.11603 1.579235,4.72108 -0.401371,6.39326 z m 1.1308,4.16848 c 0.724663,-0.20622 2.195801,-1.38926 2.587693,-1.43201 0.193719,-0.0211 3.318306,1.59218 4.328171,1.99852 m -4.484111,-1.9491 c -2.910077,-1.50159 -4.122221,1.30232 -6.204785,2.45435 3.185882,1.2337 5.580859,0.0239 6.204785,-2.45435 z m 0.298671,-3.16486 c 0.111038,0.708 -0.197862,2.55789 -0.0298,2.91304 0.08307,0.17556 3.22395,1.75118 4.215246,2.20092 m -4.253977,-2.35926 c -2.699354,-1.64244 -0.638278,-4.35246 -0.206037,-6.40016 1.654315,1.96651 2.014701,4.54769 0.206037,6.40016 z m 1.529548,4.03646 c 0.70107,-0.27543 2.047996,-1.5956 2.433383,-1.67666 0.190503,-0.0401 3.457335,1.25217 4.502939,1.55303 m -4.653105,-1.48856 c -3.042733,-1.20732 -3.970819,1.69452 -5.936169,3.0419 3.297976,0.92282 5.559872,-0.51722 5.936169,-3.0419 z m -0.01211,-3.17519 c 0.178722,0.6928 0.0526,2.5619 0.254604,2.89839 0.09985,0.16634 3.379033,1.41945 4.410608,1.76536 m -4.46468,-1.91894 c -2.844241,-1.36686 -1.056473,-4.26649 -0.821674,-6.34159 1.824601,1.79225 2.436974,4.32254 0.821674,6.34159 z m 1.924541,3.86159 c 0.670106,-0.34385 1.87587,-1.79257 2.250806,-1.91243 0.185337,-0.0592 3.568301,0.88788 4.64135,1.07602 m -4.784099,-0.99663 c -3.150235,-0.89136 -3.77615,2.08046 -5.603132,3.61515 3.383765,0.59692 5.486172,-1.06648 5.603132,-3.61515 z m -0.33231,-3.15467 c 0.246506,0.67018 0.310112,2.54081 0.545219,2.85477 0.116218,0.15519 3.507308,1.06203 4.57119,1.29653 m -4.64058,-1.44371 c -2.965229,-1.06859 -1.476829,-4.13652 -1.445541,-6.21754 1.97762,1.59365 2.846087,4.04519 1.445541,6.21754 z"
           id="path4518"
           inkscape:connector-curvature="0"
           inkscape:path-effect="#path-effect4564"
           inkscape:original-d="M 64.539386,43.20621 C 48.734143,52.83042 40.110432,72.954101 44.042441,91.036425 47.752222,108.09678 62.383938,122.16893 79.457908,125.54586"
           sodipodi:nodetypes="csc" />
        <path
           style="fill:none;stroke:#0d0015;stroke-width:0.1;stroke-linecap:round;paint-order:markers fill stroke"
           d="m 61.504571,45.32394 c 1.63625,-1.636251 4.192897,-2.812308 5.931413,-3.067971"
           id="path4583"
           inkscape:connector-curvature="0"
           sodipodi:nodetypes="cc" />
        <path
           style="fill:none;stroke:#0d0015;stroke-width:0.1;stroke-linecap:round;paint-order:markers fill stroke"
           d="m 64.368013,43.278626 c 0.20453,-3.7327 5.726882,-1.840782 7.158603,-2.300979 -1.636251,1.687384 -5.368953,4.346295 -7.158603,2.300979 z"
           id="path4585"
           inkscape:connector-curvature="0"
           sodipodi:nodetypes="ccc" />
      </g>
      <use
         transform="matrix(-1,0,0,1,175.72439,0)"
         height="100%"
         width="100%"
         id="use4513"
         xlink:href="#g4511"
         y="0"
         x="0" />
    </g>
    <g
       inkscape:groupmode="layer"
       id="layer4"
       inkscape:label="object"
       style="display:none"
       sodipodi:insensitive="true">
      <path
         id="use4522"
         style="fill:none;stroke:#0d0015;stroke-width:0.25;stroke-linecap:round;paint-order:markers fill stroke"
         d="m 36.145485,-19.958504 c -1.829935,1.62282 -7.684297,3.853866 -8.444554,4.921679 -0.375808,0.527838 -0.307275,4.454732 -0.385983,8.0835018 m 0.783208,-8.4549828 c 0.374178,-10.664056 11.060928,-9.447979 17.796119,-12.534942 -2.432148,9.635068 -9.470673,14.780006 -17.796119,12.534942 z m -9.61375,-4.550198 c 1.829936,1.62282 7.684298,3.853866 8.444555,4.921679 0.375808,0.527838 0.307275,4.454732 0.385983,8.0835018 m -0.783208,-8.4549828 c -0.374178,-10.664056 -11.060929,-9.447979 -17.7961207,-12.534942 2.4321517,9.635068 9.4706737,14.780006 17.7961207,12.534942 z"
         inkscape:connector-curvature="0"
         sodipodi:nodetypes="cscccccscccc" />
    </g>
    <g
       inkscape:groupmode="layer"
       id="layer6"
       inkscape:label="center"
       style="display:none"
       sodipodi:insensitive="true">
      <path
         style="fill:none;stroke:#640125;stroke-width:0.1;stroke-linecap:round;paint-order:markers fill stroke"
         d="m 105,99.813687 v -4.63396 h 4.63396"
         id="rect4653"
         inkscape:connector-curvature="0"
         sodipodi:nodetypes="ccc" />
    </g>
  </g>
  <g
     inkscape:groupmode="layer"
     id="layer5"
     inkscape:label="text"
     transform="translate(17.137805)"
     sodipodi:insensitive="true">
    <g
       id="g4607"
       transform="translate(0,11.781807)">
      <text
         id="text4591"
         y="30.776691"
         x="87.988976"
         style="font-weight:bold;font-size:5.64444447px;line-height:6.61458302px;font-family:sans-serif;-inkscape-font-specification:'sans-serif Bold';text-align:center;text-orientation:upright;text-anchor:middle;fill:#0d0015;stroke-width:0.1;stroke-linecap:round;paint-order:markers fill stroke"
         xml:space="preserve"><tspan
           y="30.776691"
           x="87.988976"
           id="tspan4589"
           sodipodi:role="line">TITLE</tspan></text>
      <text
         id="text4595"
         y="55.185936"
         x="87.887001"
         style="font-weight:bold;font-size:4.23333311px;line-height:6.61458302px;font-family:sans-serif;-inkscape-font-specification:'sans-serif Bold';text-align:center;text-orientation:upright;text-anchor:middle;fill:#0d0015;stroke-width:0.1;stroke-linecap:round;paint-order:markers fill stroke"
         xml:space="preserve"><tspan
           y="55.185936"
           x="87.887001"
           id="tspan4593"
           sodipodi:role="line">SUB TITLE</tspan></text>
      <text
         id="text4599"
         y="84.400314"
         x="87.804489"
         style="font-size:3.52777767px;line-height:6.61458302px;font-family:sans-serif;-inkscape-font-specification:sans-serif;text-align:center;text-orientation:upright;text-anchor:middle;fill:#0d0015;stroke-width:0.1;stroke-linecap:round;paint-order:markers fill stroke"
         xml:space="preserve"><tspan
           style="-inkscape-font-specification:sans-serif"
           y="84.400314"
           x="87.804489"
           id="tspan4597"
           sodipodi:role="line">sample text</tspan></text>
    </g>
    <use
       x="0"
       y="0"
       xlink:href="#g4607"
       id="use4609"
       width="100%"
       height="100%"
       transform="translate(-1.8210779e-6,135.80612)" />
  </g>
</svg>
