<?xml version="1.0" encoding="UTF-8" standalone="no"?>
<!-- Created with Inkscape (http://www.inkscape.org/) -->

<svg
   xmlns:dc="http://purl.org/dc/elements/1.1/"
   xmlns:cc="http://creativecommons.org/ns#"
   xmlns:rdf="http://www.w3.org/1999/02/22-rdf-syntax-ns#"
   xmlns:svg="http://www.w3.org/2000/svg"
   xmlns="http://www.w3.org/2000/svg"
   xmlns:xlink="http://www.w3.org/1999/xlink"
   xmlns:sodipodi="http://sodipodi.sourceforge.net/DTD/sodipodi-0.dtd"
   xmlns:inkscape="http://www.inkscape.org/namespaces/inkscape"
   width="210mm"
   height="297mm"
   viewBox="0 0 210 297"
   version="1.1"
   id="svg8"
   inkscape:version="0.92.1 r15371"
   sodipodi:docname="cover170307a.svg">
  <defs
     id="defs2" />
  <sodipodi:namedview
     id="base"
     pagecolor="#ffffff"
     bordercolor="#666666"
     borderopacity="1.0"
     inkscape:pageopacity="0.0"
     inkscape:pageshadow="2"
     inkscape:zoom="0.50402618"
     inkscape:cx="292.55756"
     inkscape:cy="561.25992"
     inkscape:document-units="mm"
     inkscape:current-layer="layer4"
     showgrid="false"
     inkscape:snap-page="true"
     inkscape:showpageshadow="false"
     borderlayer="true"
     inkscape:snap-global="false"
     inkscape:object-paths="true"
     inkscape:snap-bbox="false"
     inkscape:bbox-nodes="true" />
  <metadata
     id="metadata5">
    <rdf:RDF>
      <cc:Work
         rdf:about="">
        <dc:format>image/svg+xml</dc:format>
        <dc:type
           rdf:resource="http://purl.org/dc/dcmitype/StillImage" />
        <dc:title></dc:title>
        <dc:source>https://digitalcollections.nypl.org/items/5e66b3e8-7d95-d471-e040-e00a180654d7</dc:source>
        <cc:license
           rdf:resource="http://creativecommons.org/publicdomain/zero/1.0/" />
      </cc:Work>
      <cc:License
         rdf:about="http://creativecommons.org/publicdomain/zero/1.0/">
        <cc:permits
           rdf:resource="http://creativecommons.org/ns#Reproduction" />
        <cc:permits
           rdf:resource="http://creativecommons.org/ns#Distribution" />
        <cc:permits
           rdf:resource="http://creativecommons.org/ns#DerivativeWorks" />
      </cc:License>
    </rdf:RDF>
  </metadata>
  <g
     inkscape:groupmode="layer"
     id="layer1"
     inkscape:label="mark"
     sodipodi:insensitive="true"
     style="display:none">
    <g
       transform="translate(1.2126195e-7,-1.2832905e-5)"
       id="g4516">
      <g
         id="g4506">
        <path
           style="fill:none;stroke:#0d0015;stroke-width:0.2;stroke-linecap:round"
           d="m -12,0 h 9 v -12"
           id="path4485"
           inkscape:connector-curvature="0"
           sodipodi:nodetypes="ccc" />
        <use
           x="0"
           y="0"
           xlink:href="#path4485"
           id="use4502"
           width="100%"
           height="100%"
           transform="matrix(0,1,1,0,0,0)" />
      </g>
      <use
         transform="matrix(-1,0,0,1,210,0)"
         height="100%"
         width="100%"
         id="use4508"
         xlink:href="#g4506"
         y="0"
         x="0" />
      <path
         style="fill:#008899;stroke:#000000;stroke-width:0.2;stroke-linecap:round"
         d="m 105,-12 v 9"
         id="path4524"
         inkscape:connector-curvature="0"
         sodipodi:nodetypes="cc" />
      <path
         style="fill:#008899;stroke:#000000;stroke-width:0.2;stroke-linecap:round"
         d="m 96,-5.9999998 h 18"
         id="path4548"
         inkscape:connector-curvature="0" />
      <path
         style="fill:#008899;stroke:#000000;stroke-width:0.2;stroke-linecap:round"
         d="m -12,148.50001 h 9.0000002"
         id="path4554"
         inkscape:connector-curvature="0"
         sodipodi:nodetypes="cc" />
      <path
         style="fill:#008899;stroke:#000000;stroke-width:0.2;stroke-linecap:round"
         d="M -5.9999996,159 V 138"
         id="path4556-0"
         inkscape:connector-curvature="0" />
    </g>
    <use
       x="0"
       y="0"
       xlink:href="#g4516"
       id="use4518"
       width="100%"
       height="100%"
       transform="rotate(-180,105.00001,148.49998)" />
  </g>
  <g
     inkscape:groupmode="layer"
     id="layer2"
     inkscape:label="white"
     sodipodi:insensitive="true">
    <rect
       style="fill:#ffffff;stroke-width:0.25;stroke-linecap:round"
       id="rect4497"
       width="210"
       height="297"
       x="-8.8817842e-015"
       y="0" />
  </g>
  <g
     inkscape:groupmode="layer"
     id="layer3"
     inkscape:label="ribon"
     sodipodi:insensitive="true">
    <path
       style="fill:#c8c2c6;stroke-width:0.94488192;stroke-linecap:round"
       d="M 627.12305,34.082031 C 537.30437,32.890361 414.46401,148.85826 377.14258,506.80469 c 0,0 127.05347,-27.97697 125.71484,-30 8.16102,-75.48975 54.28597,-347.14258 142.85742,-337.14258 0,0 83.23791,21.7819 81.42774,21.42969 C 734.57328,90.561542 688.57793,34.897385 627.12305,34.082031 Z M 231.61719,877.52344 c -16.36696,-0.0101 -32.76031,1.84914 -48.7168,6.56445 -61.87653,18.28517 -84.091333,43.78286 -93.394531,78.50195 -0.752295,54.11756 160.610941,62.55476 243.843751,51.84376 32.32488,7.0711 127.84962,29.5117 168.69531,43.4355 62.92691,21.4511 163.64632,4.0424 220.21485,-45.455 -13.13197,-5.0508 -39.39579,-10.6075 -61.61915,-20.70902 9.09136,-14.14212 24.74809,-34.34537 32.32422,-53.0332 -111.03987,54.73387 -211.27107,-8.11101 -358.60351,-44.44727 -30.85216,-7.609 -66.73684,-16.67891 -102.74414,-16.70117 z"
       transform="scale(0.26458333)"
       id="path4502"
       inkscape:connector-curvature="0"
       sodipodi:nodetypes="sccccscsccccccsc" />
    <path
       style="fill:#eae5e3;stroke-width:0.94488192;stroke-linecap:round"
       d="M 155.71484,25.376953 C 142.8577,51.091242 135,82.519538 130,102.51953 105,90.376676 81.428016,65.376675 64.285156,52.519531 105.71373,459.6624 697.73351,440.235 727.14258,161.0918 734.15353,94.545632 693.60224,41.233628 637.38086,34.738281 c 39.2651,19.129472 30.74171,62.38147 8.33398,104.923829 -65.2535,123.88755 -273.6875,126.67405 -376.14648,55.64648 C 222.08271,162.39016 175.17549,87.61948 155.71484,25.376953 Z M 518.9707,376.59766 394.68164,384.91211 c -7.00377,37.09024 -12.92526,77.64194 -17.53906,121.89258 C 364.37092,629.29645 345.83263,791.33778 265.71484,908.23438 225.75158,966.54315 123.37829,1022.6046 89.505859,962.58984 56.636589,1107.5626 263.22576,1150.2127 371.42773,968.23438 467.33771,806.9292 481.87511,670.89189 502.85742,476.80469 c 2.30619,-21.33226 7.64283,-58.32802 16.11328,-100.20703 z"
       transform="scale(0.26458333)"
       id="path4521"
       inkscape:connector-curvature="0" />
  </g>
  <g
     inkscape:groupmode="layer"
     id="layer4"
     inkscape:label="title"
     sodipodi:insensitive="true">
    <path
       style="fill:none;stroke-width:0.05;stroke-linecap:round"
       d="M 27.815707,38.389109 C 60.517956,115.82202 185.31274,102.66594 190.57517,37.637331"
       id="path4547"
       inkscape:connector-curvature="0"
       sodipodi:nodetypes="cc" />
    <text
       xml:space="preserve"
       style="font-weight:bold;font-size:28.22222137px;font-family:sans-serif;-inkscape-font-specification:'sans-serif Bold';text-align:center;letter-spacing:7.4083333px;text-anchor:middle;fill:#0d0015;stroke-width:0.25;stroke-linecap:round"
       id="text4551"><textPath
         xlink:href="#path4547"
         startOffset="50%"
         id="textPath4518"><tspan
   style="-inkscape-font-specification:'sans-serif Bold';text-align:center"
   id="tspan4549">TITLE</tspan></textPath></text>
    <path
       style="fill:none;stroke-width:0.05;stroke-linecap:round"
       d="M 119.95966,100.98891 C 109.97007,218.72644 89.982245,271.69159 32.857818,277.79712"
       id="path4556"
       inkscape:connector-curvature="0"
       sodipodi:nodetypes="cc" />
    <path
       style="fill:none;stroke-width:0.05;stroke-linecap:round"
       d="m 104.87273,263.54597 c 30.44692,12.02841 55.25552,12.4043 65.4045,7.89364"
       id="path4565"
       inkscape:connector-curvature="0"
       sodipodi:nodetypes="cc" />
    <text
       xml:space="preserve"
       style="font-weight:bold;font-size:16.93333244px;line-height:6.61458302px;font-family:sans-serif;-inkscape-font-specification:'sans-serif Bold';text-align:center;text-anchor:middle;fill:#0d0015;stroke:#0d0015;stroke-width:0.01;stroke-linecap:round;paint-order:stroke fill markers"
       id="text4514"><textPath
         xlink:href="#path4565"
         startOffset="50%"
         id="textPath4516"><tspan
   id="tspan4512">MENU</tspan></textPath></text>
    <text
       xml:space="preserve"
       style="font-weight:bold;font-size:25.39999962px;line-height:6.61458302px;font-family:sans-serif;-inkscape-font-specification:'sans-serif Bold';text-align:center;writing-mode:tb-rl;text-orientation:upright;text-anchor:middle;fill:#0d0015;stroke-width:0.25;stroke-linecap:round;paint-order:markers fill stroke"
       id="text4513"><textPath
         xlink:href="#path4556"
         startOffset="50%"
         id="textPath4515"><tspan
   id="tspan4511">TITLE</tspan></textPath></text>
  </g>
</svg>
