<?xml version="1.0" encoding="UTF-8" standalone="no"?>
<!-- Created with Inkscape (http://www.inkscape.org/) -->

<svg
   xmlns:osb="http://www.openswatchbook.org/uri/2009/osb"
   xmlns:dc="http://purl.org/dc/elements/1.1/"
   xmlns:cc="http://creativecommons.org/ns#"
   xmlns:rdf="http://www.w3.org/1999/02/22-rdf-syntax-ns#"
   xmlns:svg="http://www.w3.org/2000/svg"
   xmlns="http://www.w3.org/2000/svg"
   xmlns:xlink="http://www.w3.org/1999/xlink"
   xmlns:sodipodi="http://sodipodi.sourceforge.net/DTD/sodipodi-0.dtd"
   xmlns:inkscape="http://www.inkscape.org/namespaces/inkscape"
   width="210mm"
   height="297mm"
   viewBox="0 0 210 297"
   version="1.1"
   id="svg8"
   inkscape:version="0.92.1 r15371"
   sodipodi:docname="Parkhaus_Hügel.svg">
  <defs
     id="defs2">
    <linearGradient
       id="linearGradient4746"
       osb:paint="solid">
      <stop
         style="stop-color:#301933;stop-opacity:1"
         offset="0"
         id="stop4744" />
    </linearGradient>
    <linearGradient
       id="linearGradient4740"
       osb:paint="solid"
       gradientTransform="scale(0.07000434)">
      <stop
         style="stop-color:#ffffff;stop-opacity:1"
         offset="0"
         id="stop4738" />
    </linearGradient>
    <linearGradient
       id="linearGradient4734"
       osb:paint="solid">
      <stop
         style="stop-color:#ffd900;stop-opacity:1"
         offset="0"
         id="stop4732" />
    </linearGradient>
    <linearGradient
       id="linearGradient4728"
       osb:paint="solid">
      <stop
         style="stop-color:#d7113a;stop-opacity:1"
         offset="0"
         id="stop4726" />
    </linearGradient>
    <inkscape:path-effect
       effect="skeletal"
       id="path-effect4552"
       is_visible="true"
       pattern="M 0.56796101,0.00174031 C 1.5454014,-0.04973339 1.2189965,1.0583839 0.661181,1.1203603 -0.1777825,1.2135739 -0.22875263,0.04369662 0.56796101,0.00174031 Z"
       copytype="repeated_stretched"
       prop_scale="1"
       scale_y_rel="true"
       spacing="0.5"
       normal_offset="0"
       tang_offset="0"
       prop_units="false"
       vertical_pattern="false"
       fuse_tolerance="0"
       pattern-nodetypes="sss" />
    <inkscape:path-effect
       effect="roughen"
       id="path-effect5191"
       is_visible="true"
       method="size"
       max_segment_size="5"
       segments="10"
       displace_x="0.3;2093983074"
       displace_y="0.2;-1400561994"
       global_randomize="1;924347323"
       handles="retract"
       shift_nodes="true"
       fixed_displacement="false"
       spray_tool_friendly="false" />
    <clipPath
       clipPathUnits="userSpaceOnUse"
       id="clipPath4722">
      <path
         id="path4724"
         style="opacity:1;fill:#6e7955;fill-opacity:1;stroke:none;stroke-width:0.05000001;stroke-linecap:round;stroke-linejoin:round;stroke-miterlimit:4;stroke-dasharray:none;stroke-dashoffset:0;stroke-opacity:1;paint-order:normal"
         d="M -3.0000001,-3.0000001 H 212.88672 V 300.00001 H -3.0000001 Z M 8.4773876,162.32315 c 6.6420764,-2.53448 2.7966634,-7.07906 -0.1747912,-4.54458 -1.3109363,1.13614 0.1747912,4.54458 0.1747912,4.54458 z m 34.0843444,53.04922 c 4.616151,-1.35013 4.24066,-8.25936 -0.0874,-9.61354 -4.161356,-1.30202 -6.223037,11.45921 0.0874,9.61354 z m 141.581108,21.32456 c -2.09749,1.04875 -6.46728,2.53447 -8.3026,4.63198 -1.386,1.584 -0.38181,11.41309 0.96135,13.54634 1.48573,2.35968 4.45719,4.36978 5.85552,5.06895 z m -38.36673,36.35664 12.163,-12.49503 -0.17479,-15.8936 -8.81198,-0.2472 -3.12504,-2.44708 c 0,0 -2.37467,-4.77934 -3.9478,-6.35246 -1.57312,-1.57313 -3.71303,-0.42199 -4.76178,0.80154 -1.04875,1.22355 -4.66818,8.07041 -4.66818,8.07041 l -15.21928,0.17479 6.28132,4.85139 3.62546,8.98562 0.11117,9.48265 z m -51.966557,-16.22235 0.741582,-5.31464 c 0,0 -3.3371,-2.47193 -6.427007,-3.08991 -4.696659,-5.31464 -16.438303,-10.0113 -28.056348,-4.69666 z M 35.595721,236.56143 c 0.617982,-1.73034 -1.235961,-5.43823 -3.213502,-7.41578 -2.595523,-4.44946 -3.460697,-15.32594 -3.460697,-15.32594 l -4.943849,0.1236 -2.348329,14.46077 z"
         inkscape:connector-curvature="0"
         sodipodi:nodetypes="ccccccccssscsscccccccccccccccccccccccccc" />
    </clipPath>
    <linearGradient
       inkscape:collect="always"
       xlink:href="#linearGradient4728"
       id="linearGradient4730"
       x1="6.2327765"
       y1="159.29286"
       x2="11.258023"
       y2="159.29286"
       gradientUnits="userSpaceOnUse" />
    <linearGradient
       inkscape:collect="always"
       xlink:href="#linearGradient4740"
       id="linearGradient4742"
       x1="121.78919"
       y1="257.09144"
       x2="156.64252"
       y2="257.09144"
       gradientUnits="userSpaceOnUse" />
    <linearGradient
       inkscape:collect="always"
       xlink:href="#linearGradient4746"
       id="linearGradient4748"
       x1="113.55247"
       y1="270.16582"
       x2="123.23911"
       y2="270.16582"
       gradientUnits="userSpaceOnUse" />
  </defs>
  <sodipodi:namedview
     id="base"
     pagecolor="#ffffff"
     bordercolor="#666666"
     borderopacity="1.0"
     inkscape:pageopacity="0.0"
     inkscape:pageshadow="2"
     inkscape:zoom="0.75685413"
     inkscape:cx="411.60161"
     inkscape:cy="502.19825"
     inkscape:document-units="mm"
     inkscape:current-layer="layer4"
     showgrid="true"
     inkscape:snap-page="true"
     inkscape:snap-bbox="false"
     borderlayer="true"
     inkscape:showpageshadow="false"
     inkscape:snap-global="true"
     inkscape:bbox-paths="true"
     inkscape:pagecheckerboard="true"
     inkscape:snap-center="true"
     inkscape:snap-intersection-paths="true"
     inkscape:bbox-nodes="true"
     inkscape:snap-smooth-nodes="true"
     inkscape:object-paths="true"
     showguides="false"
     inkscape:guide-bbox="true">
    <sodipodi:guide
       position="105,300.00001"
       orientation="0,1"
       id="guide4495"
       inkscape:locked="false" />
    <sodipodi:guide
       position="105,-3.0000001"
       orientation="0,1"
       id="guide4497"
       inkscape:locked="false" />
    <sodipodi:guide
       position="-2.9999999,148.5"
       orientation="1,0"
       id="guide4499"
       inkscape:locked="false" />
    <sodipodi:guide
       position="213,148.5"
       orientation="1,0"
       id="guide4501"
       inkscape:locked="false" />
    <sodipodi:guide
       position="8.8707425,70.59633"
       orientation="217.92688,657.97159"
       id="guide5056"
       inkscape:locked="false" />
  </sodipodi:namedview>
  <metadata
     id="metadata5">
    <rdf:RDF>
      <cc:Work
         rdf:about="">
        <dc:format>image/svg+xml</dc:format>
        <dc:type
           rdf:resource="http://purl.org/dc/dcmitype/StillImage" />
        <dc:title></dc:title>
        <cc:license
           rdf:resource="http://creativecommons.org/publicdomain/zero/1.0/" />
        <dc:source>https://digitalcollections.nypl.org/items/afbf98ff-4711-7e08-e040-e00a18064829</dc:source>
      </cc:Work>
      <cc:License
         rdf:about="http://creativecommons.org/publicdomain/zero/1.0/">
        <cc:permits
           rdf:resource="http://creativecommons.org/ns#Reproduction" />
        <cc:permits
           rdf:resource="http://creativecommons.org/ns#Distribution" />
        <cc:permits
           rdf:resource="http://creativecommons.org/ns#DerivativeWorks" />
      </cc:License>
    </rdf:RDF>
  </metadata>
  <g
     inkscape:groupmode="layer"
     id="layer3"
     inkscape:label="white"
     sodipodi:insensitive="true">
    <rect
       style="fill:#d3cbc6;stroke-width:0.99999994"
       id="rect4494"
       width="215.88672"
       height="303"
       x="-3"
       y="-3" />
  </g>
  <g
     inkscape:groupmode="layer"
     id="layer2"
     inkscape:label="mark"
     sodipodi:insensitive="true">
    <g
       id="g4516">
      <g
         id="g4506">
        <path
           style="fill:none;stroke:#000000;stroke-width:0.2"
           d="m -12,0 h 9 v -12"
           id="path4485"
           inkscape:connector-curvature="0" />
        <use
           x="0"
           y="0"
           xlink:href="#path4485"
           id="use4502"
           width="100%"
           height="100%"
           transform="matrix(0,1,1,0,0,0)" />
      </g>
      <use
         transform="matrix(-1,0,0,1,210,0)"
         height="100%"
         width="100%"
         id="use4508"
         xlink:href="#g4506"
         y="0"
         x="0" />
      <path
         style="stroke:#000000;stroke-width:0.2"
         d="m 105,-12 v 9"
         id="path4524"
         inkscape:connector-curvature="0" />
      <path
         style="stroke:#000000;stroke-width:0.2"
         d="m 96,-6 h 18"
         id="path4548"
         inkscape:connector-curvature="0" />
      <path
         style="stroke:#000000;stroke-width:0.2"
         d="m -12,148.5 h 9"
         id="path4554"
         inkscape:connector-curvature="0" />
      <path
         style="stroke:#000000;stroke-width:0.2"
         d="M -6,159 V 138"
         id="path4556"
         inkscape:connector-curvature="0" />
    </g>
    <use
       x="0"
       y="0"
       xlink:href="#g4516"
       id="use4518"
       width="100%"
       height="100%"
       transform="rotate(-180,105,148.5)" />
  </g>
  <g
     inkscape:groupmode="layer"
     id="layer4"
     inkscape:label="line"
     sodipodi:insensitive="true">
    <g
       id="g4698"
       clip-path="url(#clipPath4722)">
      <path
         inkscape:original-d="M 181.19683,-3.000009 V 283.47982 l -2.44315,-0.80919 V -3.000009"
         inkscape:path-effect="#path-effect5191"
         sodipodi:nodetypes="cccc"
         inkscape:connector-curvature="0"
         id="path5058"
         d="m 181.19683,-3.000009 0.0698,4.8343574 -0.10533,5.0105372 -0.0816,5.1584444 0.0428,4.768872 0.002,4.977795 -0.0345,4.868841 -0.0499,5.068333 0.0689,4.83177 -0.001,4.945003 -0.0104,4.890683 -0.0519,5.01434 0.12894,4.8821 0.13985,5.040251 -0.0639,4.841191 0.0556,4.951335 -0.007,4.911246 -0.18857,5.026048 -0.17903,4.900857 0.0143,5.021839 0.0792,4.808172 -0.0268,4.896454 -0.0353,4.8494 0.0526,5.10918 -0.008,4.82616 0.14699,5.07404 -0.1325,4.88743 0.0376,4.97851 0.0133,4.90908 -0.0585,4.89889 0.0281,4.93148 -0.0215,4.98445 0.002,5.06639 -0.0301,4.83628 -0.0293,4.83869 -0.10874,5.0777 -0.12253,4.8443 -0.0579,5.02809 0.0635,4.94549 -0.15558,4.86712 -0.0297,5.09983 -0.0533,4.81179 0.0691,5.11501 0.0302,4.90121 0.0516,4.82529 -0.18232,4.82755 0.0557,4.96242 0.0491,4.93753 0.042,4.98115 0.0688,4.87635 -0.0265,4.9822 0.0324,4.85872 0.0833,5.0566 0.0482,4.94233 0.0681,4.9498 0.0981,5.01233 -0.0891,4.82846 0.30404,4.90063 -0.0886,5.02667 -2.2772,-0.80852 -0.0446,-4.86675 0.0935,-4.94475 -0.15549,-4.9043 0.1331,-4.96709 0.0224,-4.84608 0.0225,-5.03067 0.002,-4.91476 -0.11238,-5.04708 -0.004,-4.77712 0.21299,-5.02639 -0.10588,-4.91368 0.0273,-4.80222 0.0796,-4.93181 -0.15674,-5.07912 0.0374,-4.9737 0.0284,-4.81442 -0.0417,-4.94332 -0.0526,-4.90855 0.14622,-5.03259 0.0573,-4.79487 0.0886,-4.84988 0.13782,-5.14482 -0.17326,-4.77916 0.0363,-5.07428 -0.19039,-4.77288 0.0131,-5.06973 -0.0722,-4.7621 -0.0682,-4.87225 -0.12113,-4.99286 0.16805,-4.93481 0.16681,-4.91994 -0.0326,-4.92669 0.0453,-4.90861 -0.20971,-5.00956 0.014,-4.95761 0.14038,-4.86565 0.0115,-4.9593 0.0217,-4.93821 -0.0922,-4.898641 -0.0318,-4.929464 -0.26087,-4.948817 -0.0549,-4.905851 0.0236,-4.974978 0.0251,-4.878794 0.0102,-4.898896 -0.12531,-4.841484 -0.0665,-5.151181 -0.0107,-4.762661 0.0201,-4.856914 0.0389,-4.958823 0.009,-4.796251 0.09,-5.210394 -0.0424,-4.846273 -0.0369,-4.917974 0.0434,-4.851715 0.146,-4.8931124 0.1126,-4.9031778 -0.0135,-4.9926704"
         style="fill:url(#linearGradient4740);stroke-width:0.05;stroke-linecap:round;stroke-linejoin:round" />
      <use
         transform="translate(-8.0896666,-2.6793836)"
         height="100%"
         width="100%"
         id="use5060"
         xlink:href="#path5058"
         y="0"
         x="0" />
      <use
         transform="translate(-16.179321,-5.3587594)"
         height="100%"
         width="100%"
         id="use5060-1"
         xlink:href="#path5058"
         y="0"
         x="0" />
      <use
         transform="translate(-24.269001,-8.0381436)"
         height="100%"
         width="100%"
         id="use5060-19"
         xlink:href="#path5058"
         y="0"
         x="0" />
      <use
         transform="translate(-32.358651,-10.717518)"
         height="100%"
         width="100%"
         id="use5060-7"
         xlink:href="#path5058"
         y="0"
         x="0" />
      <use
         transform="translate(-40.448325,-13.3969)"
         height="100%"
         width="100%"
         id="use5060-5"
         xlink:href="#path5058"
         y="0"
         x="0" />
      <use
         transform="translate(-48.537978,-16.076276)"
         height="100%"
         width="100%"
         id="use5060-4"
         xlink:href="#path5058"
         y="0"
         x="0" />
      <use
         transform="translate(-72.806969,-24.114412)"
         height="100%"
         width="100%"
         id="use5060-3"
         xlink:href="#path5058"
         y="0"
         x="0" />
      <use
         transform="translate(-88.986297,-29.47317)"
         height="100%"
         width="100%"
         id="use5060-2"
         xlink:href="#path5058"
         y="0"
         x="0" />
      <use
         transform="translate(-105.16563,-34.83193)"
         height="100%"
         width="100%"
         id="use5060-75"
         xlink:href="#path5058"
         y="0"
         x="0" />
      <use
         transform="translate(-121.34495,-40.190685)"
         height="100%"
         width="100%"
         id="use5060-0"
         xlink:href="#path5058"
         y="0"
         x="0" />
      <use
         transform="translate(-137.52428,-45.549443)"
         height="100%"
         width="100%"
         id="use5060-9"
         xlink:href="#path5058"
         y="0"
         x="0" />
      <use
         transform="translate(-145.61394,-48.228821)"
         height="100%"
         width="100%"
         id="use5060-32"
         xlink:href="#path5058"
         y="0"
         x="0" />
      <use
         transform="translate(-56.62764,-18.755654)"
         height="100%"
         width="100%"
         id="use5060-11"
         xlink:href="#path5058"
         y="0"
         x="0" />
      <use
         transform="translate(-80.89664,-26.793793)"
         height="100%"
         width="100%"
         id="use5060-38"
         xlink:href="#path5058"
         y="0"
         x="0" />
      <use
         transform="translate(-97.075965,-32.15255)"
         height="100%"
         width="100%"
         id="use5060-117"
         xlink:href="#path5058"
         y="0"
         x="0" />
      <use
         transform="translate(-113.25529,-37.511307)"
         height="100%"
         width="100%"
         id="use5060-6"
         xlink:href="#path5058"
         y="0"
         x="0" />
      <use
         transform="translate(-129.43462,-42.870066)"
         height="100%"
         width="100%"
         id="use5060-76"
         xlink:href="#path5058"
         y="0"
         x="0" />
      <use
         transform="translate(-153.70361,-50.908202)"
         height="100%"
         width="100%"
         id="use5060-12"
         xlink:href="#path5058"
         y="0"
         x="0" />
      <use
         transform="translate(-161.79327,-53.58758)"
         height="100%"
         width="100%"
         id="use5060-31"
         xlink:href="#path5058"
         y="0"
         x="0" />
      <use
         transform="translate(-169.88294,-56.26696)"
         height="100%"
         width="100%"
         id="use5060-77"
         xlink:href="#path5058"
         y="0"
         x="0" />
      <use
         transform="translate(-64.717303,-21.435032)"
         height="100%"
         width="100%"
         id="use5060-23"
         xlink:href="#path5058"
         y="0"
         x="0" />
    </g>
  </g>
  <g
     inkscape:groupmode="layer"
     id="layer5"
     inkscape:label="illust"
     sodipodi:insensitive="true">
    <path
       style="fill:url(#linearGradient4728);stroke-width:0.05;stroke-linecap:round;stroke-linejoin:round"
       d="m 22.084453,226.95809 7.299881,0.18481 c 4.804986,7.02267 6.560654,13.95293 2.31009,33.45009 -0.445366,2.04287 -6.837864,3.32653 -8.685936,0.36962 -6.930267,-9.97959 -5.544214,-26.70464 -0.924035,-34.00452 z"
       id="path5204"
       inkscape:connector-curvature="0"
       sodipodi:nodetypes="ccscc" />
    <path
       id="path5201"
       style="fill:url(#linearGradient4740);stroke-width:0.05;stroke-linecap:round;stroke-linejoin:round"
       d="m 19.127539,237.4921 c -0.924817,9.82721 1.494885,24.3227 7.577092,24.57934 5.760101,0.24306 6.511299,-10.69967 6.375847,-21.53003 -0.136525,-10.91622 -5.534058,-7.55069 -6.098635,-22.26925 h -2.772108 c 0.369614,10.02908 -4.466236,12.67467 -5.082196,19.21994 z m 8.963147,-22.54648 c 1.216983,18.88382 7.137966,13.83184 6.837862,24.39454 -0.627751,22.09486 -2.07284,23.60576 -8.039109,24.20973 -5.055147,0.51174 -10.266226,-10.09875 -9.425165,-24.11733 0.617641,-10.29467 6.006232,-9.33275 5.220803,-24.44073 z m -13.776018,38.3946 0.3775,4.48066 10.164392,-0.0924 0.646825,-4.62018 z m 13.221595,-1.80278 c -3.12636,18.85605 -2.849054,23.80694 -8.507213,23.20718 -5.660616,-0.60002 -5.020857,-3.95142 -7.10899,-23.11478 z"
       inkscape:connector-curvature="0"
       sodipodi:nodetypes="scsccscsssccccccccscc" />
    <path
       style="fill:url(#linearGradient4734);stroke-width:0.05;stroke-linecap:round;stroke-linejoin:round"
       d="m 54.980122,267.89287 c 0,-4.62017 -0.277209,-12.84409 0,-16.54024 3.973355,-12.9365 30.493177,-10.99602 33.912111,1.84807 0.646825,3.32653 0.369613,11.55046 0.369613,13.58333 -10.441603,11.27323 -26.519823,7.8543 -34.281724,1.10884 z"
       id="path5206"
       inkscape:connector-curvature="0"
       sodipodi:nodetypes="ccccc" />
    <path
       style="fill:url(#linearGradient4728);stroke-width:0.05;stroke-linecap:round;stroke-linejoin:round"
       d="m 72.911992,251.8485 c 1.394156,0.28319 1.162501,2.8365 -0.5115,2.4645 -1.674,-0.372 -1.070354,-2.78581 0.5115,-2.4645 z"
       id="path4530"
       inkscape:connector-curvature="0"
       sodipodi:nodetypes="sss" />
    <path
       id="path4534"
       style="fill:url(#linearGradient4740);stroke-width:0.05;stroke-linecap:round;stroke-linejoin:round"
       d="m 112.39049,269.37899 c 0.186,-4.18499 11.253,-4.64999 11.532,-0.23248 0.0911,1.44162 -0.1395,6.55649 -0.1395,6.97498 -1.953,2.418 -8.6955,2.23201 -10.7415,0.186 0,0 -0.69712,-5.89075 -0.651,-6.9285 z m -1.0695,1.116 c 0,0 0.558,5.58001 0.5115,6.37051 2.3715,3.25501 10.7415,2.697 12.9735,0.186 l 0.4185,-5.766 c 7.1145,2.41799 4.46436,12.81203 -7.0215,12.7875 -11.8119,-0.0252 -14.88,-9.71851 -6.882,-13.57801 z"
       inkscape:connector-curvature="0" />
    <path
       style="fill:url(#linearGradient4748);stroke-width:0.05;stroke-linecap:round;stroke-linejoin:round"
       d="m 113.55299,269.844 c -0.081,-3.99409 9.37133,-3.70715 9.672,-0.27899 0.44049,5.02241 -9.57356,5.13529 -9.672,0.27899 z"
       id="path4536"
       inkscape:connector-curvature="0"
       sodipodi:nodetypes="sss" />
    <path
       style="fill:url(#linearGradient4746);stroke-width:0.05;stroke-linecap:round;stroke-linejoin:round"
       d="m 139.87349,238.07821 c -1.51347,-0.0378 -1.51399,-2.16416 -0.0658,-2.17011 1.44649,-0.006 1.51215,2.20622 0.0658,2.17011 z"
       id="path4538"
       inkscape:connector-curvature="0"
       sodipodi:nodetypes="sss" />
    <path
       id="path4544"
       style="fill:url(#linearGradient4742);stroke-width:0.05;stroke-linecap:round;stroke-linejoin:round"
       d="m 148.68545,265.56628 5.45816,-6.5761 0.13152,-10.58751 -5.45816,0.19729 z m -18.01849,-20.12285 c 3.61685,2.76196 14.92772,2.6962 18.21577,0.13152 0.65761,0.0658 7.62827,0.19729 7.62827,0.19729 l 0.13152,13.94131 -8.08859,9.00926 0.19728,4.27446 c -3.09076,4.07715 -14.1386,3.6826 -17.36088,0.52607 l -0.0658,-10.06141 -7.56251,-15.19078 -1.97283,-1.24946 0.13152,-1.57826 z m 8.48315,-7.2337 -7.03641,6.24729 c 3.74837,2.10435 13.54675,1.57826 15.25653,0.26304 l -6.70761,-6.37881 z"
       inkscape:connector-curvature="0"
       sodipodi:nodetypes="cccccccccccccccccccccc" />
    <path
       id="path4567"
       style="fill:url(#linearGradient4740);stroke-width:0.05;stroke-linecap:round;stroke-linejoin:round"
       d="m 83.91094,250.17822 c 0.672852,-0.32089 0.164402,-1.47963 -0.394566,-1.74267 1.44674,-1.21657 1.755628,0.87563 1.709785,1.90707 -0.06576,1.47963 2.919661,2.51517 2.860599,4.01142 -0.09864,2.49892 -3.087197,2.98097 -3.353806,3.38668 -0.756253,1.15082 0.854892,1.97283 -0.06576,3.35381 -0.920653,1.38098 -4.49686,0.1256 -4.570383,0.49321 -0.131523,0.65761 -0.854892,1.44674 -1.150816,2.10435 -0.591848,-0.95354 0.09722,-2.23067 0.361686,-2.99212 0.475885,-1.37018 3.158064,1.57979 3.715491,-0.39457 0.575941,-2.03993 -4.430994,-4.42544 -5.885604,-5.85272 -0.319217,-0.31322 0.483922,-0.81135 0.822012,-0.52609 1.052175,0.88777 3.883648,3.10464 5.425278,2.99213 1.580948,-0.11538 3.78732,-1.47205 3.64973,-2.79485 -0.145019,-1.39423 -1.061027,-2.38983 -2.334511,-2.23587 -0.920491,0.11128 -6.477452,0.29588 -7.430987,0.0986 -0.41858,-0.0866 -0.968644,-1.07206 -0.394567,-1.08503 1.967051,-0.0444 5.924128,-0.19289 7.036419,-0.72335 z m -7.0693,-5.62256 c 0.953535,0.1644 0.328806,1.3481 0.657609,1.61114 0.328805,0.26304 1.348098,-1.38098 1.709784,-0.78913 0.361685,0.59185 1.841305,0.69049 2.301632,0.29592 0.460325,-0.39456 0.361685,1.90708 -0.03288,2.49892 -0.920655,-0.95353 -0.521717,-1.9475 -1.249458,-2.00571 -1.644021,-0.1315 -5.004951,2.78436 -5.425276,4.76767 -0.11609,0.54777 1.163661,2.70466 -0.230163,1.87418 -2.249178,-1.34012 2.79484,-6.47745 2.268752,-8.25299 z m -2.367392,-0.62473 c -0.558969,1.57826 -1.019296,1.74266 -0.953534,2.76196 -0.690491,0.1644 -2.336174,-1.9365 -3.090764,-2.30163 -1.019297,-0.49321 -1.997383,0.88307 -1.183696,2.33451 0.402933,0.71874 1.808425,3.38669 2.005709,4.17582 -1.775546,-1.21658 -3.814131,-4.73481 -4.175821,-4.83343 -0.361678,-0.0986 -0.06576,-0.82203 0.526089,-0.75625 0.591849,0.0658 1.006159,-0.82143 0.986412,-1.41386 -0.03288,-0.98642 1.117947,0.13148 1.841307,-0.26304 0.361696,-0.19727 0.960888,-0.0385 1.019294,0.52608 0.09864,0.95354 0.657607,1.21658 1.019294,0.69049 0.361683,-0.52608 1.380982,-1.11793 2.00571,-0.92065 z m 2.794837,17.68969 c -0.263043,-2.07147 -1.808424,-4.01142 -2.13723,-5.3924 -0.08683,-0.3647 -0.807116,-0.7938 -0.723368,0.11506 0.198595,2.15524 2.202989,3.995 2.860598,5.27734 z m -10.094301,-0.78913 c 1.380978,3.32091 2.865026,4.50051 4.669026,2.63044 2.872399,-2.97761 2.729078,0.95353 3.255165,1.54537 0.561622,0.63183 2.235872,0.13153 2.663319,-0.26304 0.427445,-0.39457 -0.80077,-0.71588 -1.249459,-0.92065 -0.979839,-0.44717 -1.030696,-1.69572 -1.282338,-2.33451 -0.427445,-1.08506 -2.400281,-0.46031 -2.893481,0.36168 -0.304978,0.50829 -1.055108,0.10473 -0.854892,-0.95353 0.230168,-1.21657 1.380981,-1.90706 1.052176,-2.53179 -0.328806,-0.62473 -0.06576,-2.72908 0.03288,-3.18941 -1.808425,1.64402 -2.081779,4.76521 -1.907066,6.47745 0.08701,0.85274 -0.526086,1.80843 -1.183699,1.01929 -0.657607,-0.78913 -1.085053,-1.80842 -2.301631,-1.8413 z m 2.498915,-5.78696 c -2.761958,1.31522 -5.195116,4.17583 -6.937779,3.84701 -0.45694,-0.0862 -0.631811,0.76885 -0.230161,0.98641 0.789133,0.42745 0.335306,0.98155 0.164402,1.31522 -0.690493,1.3481 0.953535,2.33451 3.189404,0.82202 0.310522,-0.21006 0.163273,-0.73014 -0.164403,-0.59185 -1.528965,0.64529 -1.995539,-0.3655 -1.216891,-1.05237 0.994616,-0.8774 3.672672,-3.58328 5.195428,-5.32644 z m -11.869846,-2.63044 c -2.202993,0.23014 -2.094243,2.39041 -0.789133,2.53179 1.923442,0.20837 2.671579,1.68304 1.578264,2.79484 -1.457502,1.48214 -0.295925,2.3674 1.282337,2.07147 -1.348098,-0.6576 -0.754907,-1.51081 0.197284,-2.26875 1.173824,-0.93437 1.057082,-2.24416 -0.427446,-2.40028 -1.556101,-0.16364 -3.814133,-0.46032 -1.841306,-2.72907 z m 11.10914,0.0854 c -2.886705,-0.45041 -7.542345,-0.67824 -10.090499,-0.465 -1.208998,-2.325 -0.2325,-3.8595 1.069501,-5.022 -0.9765,1.302 -0.930001,2.883 0.2325,3.8595 2.511,-0.093 7.346998,0.837 8.788498,1.6275 z m -5.021999,-3.999 c -1.115999,-3.069 -0.279,-4.3245 3.812999,-5.1615 -3.440999,0.5115 -6.137999,1.302 -6.3705,3.906 -0.122175,0.59983 2.557501,1.2555 2.557501,1.2555 z"
       inkscape:connector-curvature="0" />
    <path
       style="fill:url(#linearGradient4728);stroke-width:0.05;stroke-linecap:round;stroke-linejoin:round"
       d="m 175.76998,248.361 c 1.5345,-6.138 9.8115,-5.673 10.974,0.093 -3.069,1.2555 -9.3465,0.93 -10.974,-0.093 z"
       id="path4586"
       inkscape:connector-curvature="0"
       sodipodi:nodetypes="ccc" />
    <path
       id="path4588"
       style="fill:url(#linearGradient4740);stroke-width:0.05;stroke-linecap:round;stroke-linejoin:round"
       d="m 174.97948,247.245 c -0.84296,-8.13559 10.881,-8.5095 12.0435,-11.4855 0.26265,-0.67239 0.87445,-1.10945 1.2555,0.2325 2.139,7.533 9.6255,7.161 8.835,12.1365 -0.12404,0.78071 -1.488,1.1625 -2.511,0.3255 -1.023,-0.837 -6.9285,-4.464 -7.161,-9.858 -2.604,2.139 -3.255,6.3705 -2.697,9.6255 0.15113,0.88159 -0.62013,0.80598 -1.023,0.3255 -3.23198,-3.85464 0.744,-8.5095 1.0695,-9.021 0.3255,-0.5115 0.34939,-1.25044 -0.837,-0.837 -6.138,2.139 -2.139,5.1615 -7.8585,9.0675 -0.57085,0.38985 -1.04855,0.1395 -1.116,-0.5115 z m 13.485,-16.8795 c 2.20015,0.42249 1.1625,3.3945 -1.116,3.3015 -1.81259,-0.074 -1.03804,-3.71514 1.116,-3.3015 z m -15.81,18.6 c 1.767,0 24.738,-0.093 25.482,-0.093 1.116,0 -0.11822,0.80529 -0.5115,1.3485 -8.4165,11.625 -13.9965,12.3225 -21.9945,1.1625 -0.45114,-0.6295 -1.873,-1.40147 -2.78095,-1.64389 -0.70936,-0.1894 -0.90343,-0.77411 -0.19505,-0.77411 z m 12.72557,11.3399 c 0.92065,0.26304 1.8413,2.17011 0.19728,2.36739 -1.64402,0.19729 -1.70979,-2.23587 -0.19728,-2.36739 z m 0.26304,22.29296 c -1.64402,-3.09076 -1.57827,-14.86199 -0.13152,-17.6897 1.64402,3.28806 1.18369,14.33589 0.13152,17.6897 z m 0.0658,-5.0636 c 7.2337,-0.46039 6.77639,10.20626 0.26304,10.19294 -7.49686,-0.0153 -6.83913,-9.73261 -1.44674,-10.06141 0.78914,-0.13153 0.98572,0.82301 0.26305,0.85489 -4.47174,0.19728 -4.41167,7.80745 1.05217,7.89131 5.78952,0.0889 4.73479,-8.15437 0.26305,-8.15436 -0.72337,-0.0658 -1.05218,-0.65762 -0.39457,-0.72337 z"
       inkscape:connector-curvature="0" />
    <path
       id="path4584"
       style="fill:url(#linearGradient4734);stroke-width:0.05;stroke-linecap:round;stroke-linejoin:round"
       d="m 184.83748,244.8735 c 0.744,-3.7665 8.9745,-2.9295 9.393,3.255 -2.7435,0.6045 -8.835,-0.6975 -9.393,-3.255 z m 6.603,-4.464 1.116,0.372 4.092,-10.788 -1.3485,-0.465 z"
       inkscape:connector-curvature="0" />
    <path
       style="fill:#ffffff;stroke:url(#linearGradient4740);stroke-width:0.05;stroke-linecap:round;stroke-linejoin:round"
       d="m 54.081289,248.61419 c -0.38448,-0.0314 -0.603495,-0.25526 -0.616204,-0.59879 -0.01187,-0.32075 0.230528,-0.71341 0.675619,-0.70552 0.67401,0.012 0.797769,0.51026 0.693683,0.79096 -0.116969,0.31544 -0.447658,0.53826 -0.753098,0.51335 z m -1.408805,0.35799 c -0.37911,0.28845 -0.700985,0.22221 -0.900641,-0.0621 -0.187895,-0.26759 -0.21336,-0.70568 0.08021,-0.95334 0.262015,-0.22104 0.538756,-0.25042 0.733986,-0.16922 0.301798,0.1199 0.387051,0.46917 0.352831,0.74416 0,0 0,0 0,0 -0.02689,0.1674 -0.106629,0.31898 -0.266387,0.44053 z m -1.272691,1.14205 c -0.178027,0.30739 -0.441296,0.44026 -0.774978,0.30869 -0.299178,-0.11796 -0.557895,-0.4891 -0.363093,-0.89518 0.120678,-0.25156 0.305908,-0.40308 0.478444,-0.45788 0,0 0,0 0,0 0.418849,-0.0729 0.809814,0.33061 0.742306,0.75402 0,0 0,0 0,0 -0.0032,0.1033 -0.02796,0.19587 -0.08268,0.29035 z m -0.262398,1.49882 c 0.01236,0.1058 0.01059,0.19693 -0.0032,0.2776 0,0 0,0 0,0 -0.04467,0.59443 -0.882347,0.65142 -1.203617,0.17552 -0.04757,-0.0657 -0.08349,-0.14075 -0.102313,-0.22309 -0.135291,-0.59164 0.267962,-0.86263 0.58683,-0.85626 0.337186,0.007 0.678275,0.2491 0.722339,0.62623 z m 0.421981,1.65829 c 0.205742,0.34071 0.157507,0.64053 -0.114998,0.85603 -0.257531,0.20366 -0.708186,0.22475 -0.96335,-0.12535 -0.370664,-0.50856 -0.100652,-0.89945 0.192895,-1.01519 0.325588,-0.12837 0.704717,-0.0148 0.885453,0.28451 z m -2.18927,0.44992 c -0.380401,-0.0225 -0.593384,-0.22963 -0.596979,-0.56929 -0.0033,-0.31273 0.231861,-0.6767 0.643637,-0.66802 0.635103,0.0134 0.763958,0.4738 0.662522,0.74639 -0.112496,0.30231 -0.423127,0.50786 -0.70918,0.49092 z m -1.479916,0.29995 c -0.12479,0.0682 -0.232306,0.10188 -0.331719,0.10936 0,0 0,0 0,0 -0.370714,0.0291 -0.768604,-0.41466 -0.563865,-0.89465 0,0 0,0 0,0 0.04378,-0.11507 0.119874,-0.22036 0.227934,-0.29399 0.487384,-0.33208 0.866453,-0.0654 0.970957,0.22136 0.112009,0.30732 0.008,0.68787 -0.303307,0.85792 z m -1.04525,0.98202 c -0.02455,0.0649 -0.04981,0.11889 -0.07846,0.16578 -0.222351,0.33343 -1.112545,0.4229 -1.13015,-0.38609 6.36e-4,-0.0617 0.01032,-0.12447 0.02997,-0.18581 0.195201,-0.60941 0.676914,-0.59002 0.908765,-0.42236 0.262378,0.18973 0.375459,0.54938 0.269882,0.82848 z m -0.12198,1.47101 c 0.1102,0.45078 -0.09082,0.70588 -0.405798,0.77023 -0.302329,0.0618 -0.702748,-0.0836 -0.809025,-0.43706 -0.163167,-0.54272 0.178008,-0.82936 0.478586,-0.85317 0.316542,-0.0251 0.650514,0.16934 0.736237,0.52 z m 43.023722,-6.65156 c 0.682973,0.0784 0.712433,0.49793 0.583897,0.74767 -0.14316,0.27815 -0.476184,0.49763 -0.699898,0.48291 -0.326192,-0.0214 -0.553561,-0.25817 -0.603358,-0.59021 -0.04579,-0.30536 0.142588,-0.70654 0.719359,-0.64037 z m 2.004338,0.82397 c 0.525003,0.30505 0.468417,0.68823 0.265833,0.91495 -0.212186,0.23747 -0.618668,0.36811 -0.891062,0.23019 -0.39716,-0.20109 -0.456046,-0.5872 -0.320278,-0.88509 0.132743,-0.29124 0.501631,-0.51796 0.945507,-0.26005 z m 1.617718,1.18128 c 1.849317,1.32071 -1.13954,0.80865 -0.721013,1.07148 -0.38623,-0.24255 -0.408339,-0.63848 -0.230702,-0.91433 0.172314,-0.26758 0.557427,-0.43873 0.951715,-0.15715 z m 1.449374,1.5448 c 0.391521,0.55728 0.113868,0.86607 -0.165243,0.93827 -0.299904,0.0776 -0.691387,-0.013 -0.835966,-0.19293 -0.231575,-0.28819 -0.186317,-0.63806 0.05165,-0.87538 0.219641,-0.21904 0.640613,-0.30971 0.949556,0.13004 z m -0.991238,1.51649 c 0.671861,-0.0189 0.764516,0.39296 0.678114,0.65081 -0.09555,0.28514 -0.384971,0.56491 -0.617519,0.58424 -0.357403,0.0297 -0.613632,-0.20994 -0.683993,-0.52097 -0.06488,-0.28678 0.07801,-0.69875 0.623398,-0.71408 z m 2.080634,0.64789 c 0.267587,0.16558 0.386272,0.36618 0.404301,0.52384 0.03111,0.3295 -0.294621,0.47483 -0.561718,0.54739 0,0 0,0 0,0 -0.172833,0.0403 -0.341627,0.0431 -0.460155,-0.0206 -0.291962,-0.15681 -0.391876,-0.4794 -0.288163,-0.78675 0.09359,-0.27736 0.430998,-0.55766 0.905735,-0.26389 z m 1.194721,1.86458 c 0.153416,0.65997 -0.244405,0.80953 -0.507376,0.76252 -0.299923,-0.0536 -0.599214,-0.29699 -0.645018,-0.49864 -0.06681,-0.29415 0.09151,-0.56988 0.356488,-0.71108 0.241466,-0.12868 0.668319,-0.10166 0.795906,0.4472 z m -0.233985,2.14533 c -0.207543,0.61357 -0.617836,0.58192 -0.840355,0.42495 -0.242894,-0.17135 -0.430697,-0.53747 -0.367678,-0.78947 0.09512,-0.38036 0.430647,-0.5337 0.750222,-0.48226 0.300367,0.0483 0.629147,0.34025 0.457811,0.84678 z m -0.986502,0.62918 c 0.641279,0.0792 0.694331,0.47365 0.574293,0.73278 -0.129925,0.28048 -0.454241,0.51208 -0.699337,0.49378 -0.36098,-0.0269 -0.576133,-0.29283 -0.599701,-0.61721 -0.02214,-0.30473 0.188042,-0.67562 0.724745,-0.60935 z m 1.945703,0.71979 c 0.123395,0.0608 0.216457,0.12947 0.283625,0.19987 0,0 0,0 0,0 0.474396,0.42049 -0.145164,0.98163 -0.564769,0.97553 -0.07904,0.005 -0.156504,-0.005 -0.227793,-0.0335 -0.402099,-0.15881 -0.492368,-0.52397 -0.378793,-0.82524 0.111009,-0.29447 0.451205,-0.53184 0.88773,-0.31669 z m 1.7192,1.22405 c 0.507545,0.54682 0.191493,0.88493 -0.03929,0.95631 -0.259853,0.0804 -0.667247,0.0467 -0.811819,-0.0642 -0.267201,-0.20489 -0.306551,-0.55708 -0.115808,-0.84952 0.167829,-0.25731 0.581501,-0.45785 0.966918,-0.0426 z m 0.583615,2.25747 c -0.1138,0.68229 -0.547231,0.67542 -0.785815,0.53262 -0.272685,-0.16321 -0.467283,-0.51568 -0.429996,-0.73714 0.05124,-0.30433 0.307341,-0.50559 0.620719,-0.54455 0.289028,-0.0359 0.693572,0.15859 0.595092,0.74907 z m -0.896001,1.89908 c -0.296563,0.53856 -0.68254,0.46993 -0.893249,0.26186 -0.220432,-0.21766 -0.339211,-0.61103 -0.212346,-0.85607 0.05762,-0.11131 0.1289,-0.19361 0.209018,-0.25249 0,0 0,0 0,0 0.385842,-0.34082 1.106577,0.0286 0.985247,0.59495 -0.01265,0.0801 -0.04089,0.16498 -0.08867,0.25175 z m -1.443755,1.55319 c -0.563067,0.41259 -0.868911,0.11394 -0.932064,-0.15251 -0.06938,-0.29272 0.02061,-0.67816 0.180108,-0.81396 0.26155,-0.22269 0.602662,-0.1978 0.849999,0.0244 0.224104,0.20137 0.343563,0.61844 -0.09804,0.94203 z m 0.612873,0.87068 c 0.352871,0.66351 -0.04322,0.92111 -0.311321,0.93985 -0.312775,0.0219 -0.695305,-0.14229 -0.803157,-0.32147 -0.161584,-0.26845 -0.09692,-0.60201 0.142501,-0.84368 0.213896,-0.2159 0.678403,-0.32671 0.971977,0.2253 z m 0.238229,2.31049 c -0.109258,0.6354 -0.499325,0.69643 -0.774371,0.56954 -0.290461,-0.13401 -0.530421,-0.47309 -0.503534,-0.74536 0.0061,-0.0614 0.01711,-0.11691 0.03277,-0.16737 0.0062,-0.0194 1.370454,-1.23992 1.256818,0.24596 -0.0021,0.0316 -0.006,0.064 -0.01169,0.0972 z m -0.708898,1.96915 c -0.557506,1.3603 -1.315727,-0.16166 -1.213997,-0.45692 0.533698,-1.54903 1.308122,0.22725 1.213997,0.45692 z m -1.623372,1.68582 c -0.58071,0.26578 -0.852126,-0.0194 -0.905283,-0.31939 -0.05623,-0.31733 0.08938,-0.7084 0.335448,-0.83918 0.08428,-0.0448 0.163158,-0.0716 0.238402,-0.0837 0.249856,-0.0801 0.540025,0.13659 0.674547,0.33828 0.144206,0.21621 0.160817,0.5926 -0.169111,0.80001 -0.05033,0.0388 -0.108365,0.074 -0.174003,0.10402 z m -1.987215,0.55336 c -1.528024,0.39925 -0.552459,-1.17841 -0.363445,-1.23965 0.416231,-0.13487 0.716393,0.0642 0.834346,0.35077 0,0 0,0 0,0 0.02703,0.0656 0.04406,0.13564 0.04991,0.20679 0,0 0,0 0,0 0.02291,0.27932 -0.130007,0.57998 -0.520808,0.68209 z m -1.959574,0.33655 c -1.236993,0.24631 -0.788176,-1.13022 -0.290779,-1.25973 1.1415,-0.29721 0.98601,1.1213 0.290779,1.25973 z m 3.260923,0.0941 c 0.591639,1.60032 -1.126109,0.36667 -1.093704,0.44082 -0.60419,-1.38265 1.02201,-0.63475 1.093704,-0.44082 z m 0.431305,1.8114 c 0.03102,0.14654 0.03195,0.27043 0.01152,0.37109 0,0 0,0 0,0 -0.07802,0.52689 -0.766732,0.41549 -1.022844,0.129 -0.06343,-0.0644 -0.110944,-0.13941 -0.133813,-0.22331 -0.449012,-1.64724 1.144256,-0.28095 1.145137,-0.27678 z m 0.09529,1.98361 c -0.08711,0.67169 -0.508342,0.67379 -0.713567,0.55619 -0.227455,-0.13033 -0.461168,-0.43966 -0.466612,-0.63784 -0.0094,-0.34394 0.242717,-0.58005 0.569563,-0.60693 0.294027,-0.0242 0.677844,0.17019 0.610616,0.68858 z m -1.211186,1.83047 c -0.593634,0.35417 -0.838937,0.005 -0.865863,-0.24048 -0.03168,-0.289 0.110371,-0.63301 0.259668,-0.7331 0.142404,-0.0955 0.268315,-0.1142 0.419712,-0.0823 0,0 0,0 0,0 0.240473,0.0667 0.547078,0.23367 0.534713,0.57012 0,0 0,0 0,0 -0.01261,0.16329 -0.121796,0.3507 -0.34823,0.48579 z m -2.046151,0.38842 c -0.139726,-0.003 -0.252798,-0.029 -0.340975,-0.0671 0,0 0,0 0,0 -0.561573,-0.20741 -0.251777,-0.86403 0.08697,-1.05802 0.06832,-0.0413 0.141793,-0.0689 0.21747,-0.0762 0.401801,-0.0388 0.634379,0.24043 0.672375,0.54556 0.03672,0.29489 -0.148565,0.66633 -0.635839,0.65576 z m -1.893366,-0.32015 c -0.716809,-0.16531 -0.612851,-0.64966 -0.452094,-0.80868 0.176678,-0.17477 0.538566,-0.38182 0.702833,-0.35562 0.08779,0.014 0.169759,0.0462 0.243849,0.0946 0,0 10e-7,0 10e-7,0 0.38101,0.23799 0.396824,1.08123 -0.301754,1.08474 -0.05682,0.005 -0.120953,0.002 -0.192835,-0.0151 z m -1.164452,-1.5495 c 0.0241,0.45255 -0.224024,0.64476 -0.518642,0.61737 -0.276128,-0.0257 -0.599795,-0.2325 -0.62332,-0.54621 -0.0404,-0.53874 0.338435,-0.73331 0.607392,-0.66945 0.274611,0.0652 0.519455,0.3144 0.53457,0.59829 z m -0.0036,1.71943 c 0.03806,1.44312 -1.126843,0.18807 -1.137443,0.0644 -0.09904,-1.15565 1.124196,-0.56667 1.137443,-0.0644 z m -0.148516,1.79368 c -0.06719,0.55642 -0.406674,0.63515 -0.656523,0.53466 -0.258952,-0.10415 -0.494462,-0.38911 -0.481061,-0.63674 0.0948,-1.75173 1.125796,0.1997 1.137584,0.10208 z m -0.677599,1.84148 c -0.376258,0.57443 -0.758718,0.34932 -0.874582,0.15827 -0.137127,-0.22611 -0.18602,-0.60327 -0.09927,-0.76229 0.09155,-0.16782 0.228466,-0.2493 0.394794,-0.27744 0.243108,-0.0478 0.544805,0.0477 0.660032,0.30541 0,0 0,0 0,0 0.06322,0.14739 0.06189,0.35795 -0.08097,0.57605 z m -1.882291,1.02466 c -0.655745,0.0448 -0.723449,-0.35488 -0.64209,-0.58167 0.09436,-0.26303 0.363114,-0.50337 0.542594,-0.52612 0.176103,-0.0223 0.302748,0.0229 0.422785,0.12683 0.166742,0.15962 0.338025,0.43624 0.19274,0.70221 0,0 0,0 0,0 -0.07915,0.14093 -0.255311,0.26093 -0.516029,0.27875 z m -1.93508,-0.54464 c -0.15663,-0.0827 -0.258539,-0.1798 -0.318148,-0.27345 0,0 0,0 0,0 -0.263308,-0.38293 0.171485,-0.73862 0.518992,-0.79614 0,0 0,0 0,0 0.10415,-0.019 0.207705,-0.0153 0.29765,0.0215 0.349229,0.14303 0.432355,0.47777 0.335438,0.75821 -0.09276,0.26841 -0.410019,0.51357 -0.833932,0.28986 z m -1.478802,-1.13515 c -0.512231,-0.43762 -0.252428,-0.80438 -0.03297,-0.88357 0.233333,-0.0842 0.625762,-0.10778 0.769632,0.003 0.0585,0.045 0.107659,0.0985 0.1471,0.15939 0.247306,0.3654 -0.118562,1.19986 -0.769505,0.79949 -0.03715,-0.0194 -0.07544,-0.045 -0.11426,-0.0781 z M 83.529,282.87926 c -0.01126,0.0384 -0.02382,0.0752 -0.03771,0.11031 -0.368937,0.94078 -1.29819,0.1134 -1.186492,-0.41906 7.16e-4,-0.004 0.0015,-0.007 0.0023,-0.0106 0.04667,-0.20543 0.155546,-0.3661 0.293964,-0.461 -0.06316,0.0147 0.532339,-0.19741 0.593222,-0.0164 0.06088,0.18102 0.511365,0.0956 0.334421,0.40764 0.03683,0.10873 0.04543,0.23526 3.21e-4,0.38908 z m -0.714433,1.83674 c -0.217933,0.57616 -0.614438,0.5705 -0.864235,0.38908 -0.259767,-0.18866 -0.437062,-0.57172 -0.335112,-0.84357 0.04221,-0.11255 0.09978,-0.20079 0.167395,-0.26884 0,0 0,0 0,0 0.349075,-0.37576 1.144582,-0.16462 1.083859,0.48621 -0.0042,0.0743 -0.02042,0.15387 -0.05191,0.23712 z m -1.183932,1.78121 c -0.470483,0.50189 -0.829129,0.2783 -0.948669,0.037 -0.130067,-0.26253 -0.134255,-0.66581 0,-0.84674 0.21951,-0.29582 0.574746,-0.33343 0.865338,-0.15154 0.266088,0.16656 0.454741,0.56506 0.08333,0.96126 z m -2.041555,0.97378 c -0.707261,0.0679 -0.801876,-0.35766 -0.724837,-0.60665 0.08777,-0.28366 0.36453,-0.56584 0.563421,-0.60464 0.199274,-0.0389 0.350616,0.004 0.489935,0.11886 0.199686,0.17605 0.363636,0.48217 0.219507,0.77417 0,0 0,0 0,0 -0.08268,0.15683 -0.267419,0.29134 -0.548026,0.31826 z m -2.152684,-0.56045 c -0.602491,-0.32553 -0.484113,-0.73957 -0.264964,-0.93601 0.240355,-0.21545 0.647409,-0.30941 0.868932,-0.19355 0.331451,0.17335 0.422768,0.52363 0.322745,0.82764 -0.09325,0.28344 -0.433566,0.56838 -0.926713,0.30192 z m -1.579609,-1.58231 c -0.378653,-0.56389 -0.09187,-0.87764 0.177346,-0.95665 0.292778,-0.0859 0.705886,-0.007 0.869209,0.19153 0.25219,0.30705 0.183461,0.6762 -0.0633,0.91438 -0.230213,0.2222 -0.674702,0.31024 -0.983259,-0.14926 z m -0.16049,-1.1056 c -0.183657,0.63905 -0.5894,0.58802 -0.798416,0.42592 -0.236343,-0.18329 -0.382883,-0.53323 -0.332876,-0.73367 0.07178,-0.28771 0.323839,-0.46341 0.640369,-0.46568 0.28933,-0.002 0.647059,0.23013 0.490923,0.77343 z m -1.118918,1.73689 c -0.193585,0.22081 -0.384005,0.29192 -0.536333,0.28349 -0.247722,-0.004 -0.437776,-0.24456 -0.498326,-0.50047 0,0 -10e-7,0 -10e-7,0 -0.04774,-0.19242 -0.03196,-0.40625 0.07625,-0.55488 0.251069,-0.34485 0.624244,-0.33222 0.879713,-0.15255 0.250351,0.17607 0.396364,0.56207 0.0787,0.92441 z m -1.441866,1.32807 c -0.507305,0.39245 -0.823325,0.1453 -0.913431,-0.10339 -0.09647,-0.26624 -0.05588,-0.66246 0.118649,-0.83125 0.283073,-0.27376 0.647421,-0.22491 0.878875,0.003 0.216029,0.21244 0.31304,0.62472 -0.08409,0.93194 z m -2.048139,0.69085 c -0.876965,-0.0783 -0.725196,-0.61179 -0.604426,-0.7671 0.169375,-0.21781 0.536175,-0.40296 0.62772,-0.42089 0.01676,-0.003 0.03191,-0.006 0.04623,-0.009 0.239065,0.0405 0.47635,0.2449 0.548692,0.52627 0.06485,0.25223 -0.04739,0.64777 -0.61665,0.67055 0,0 -0.0016,-1.4e-4 -0.0016,-1.4e-4 z m -1.879139,-1.20162 c -0.396632,-0.42659 -0.233711,-0.74828 0.01581,-0.88571 0.261233,-0.14389 0.648232,-0.13414 0.837979,0.0483 0.149224,0.1435 0.207809,0.29537 0.206618,0.44746 0,0 0,0 0,0 0.0093,0.30545 -0.275347,0.65385 -0.62918,0.61732 0,0 0,0 0,0 -0.142182,-0.0116 -0.295618,-0.0815 -0.431228,-0.2274 z m -1.070875,-1.5874 c -0.896138,-1.40908 1.002777,-0.65545 0.991067,-0.67171 0.122815,0.17048 0.156794,0.33603 0.131061,0.48435 0,0 0,0 0,0 -0.05672,0.33591 -0.430904,0.58874 -0.779228,0.47137 0,0 -10e-7,0 -10e-7,0 -0.1257,-0.0424 -0.247164,-0.13348 -0.342899,-0.28401 z m -0.83169,-1.67409 c -0.266397,-0.5414 -0.0023,-0.80735 0.278106,-0.85074 0.286496,-0.0443 0.656397,0.0727 0.781408,0.28908 0.1087,0.18815 0.123611,0.374 0.06841,0.53234 0,0 0,0 0,0 -0.108639,0.29653 -0.469198,0.4802 -0.782579,0.35822 0,0 -1e-6,0 -1e-6,0 -0.131217,-0.0478 -0.256901,-0.14915 -0.345348,-0.3289 z m 0.206183,2.12756 c -0.461957,0.51203 -0.807622,0.2653 -0.917215,0.0254 -0.126426,-0.2767 -0.09261,-0.65688 0.03536,-0.80587 0.180157,-0.20975 0.475882,-0.26674 0.770461,-0.13962 0.266527,0.11502 0.507299,0.48124 0.111397,0.92006 z m -1.828798,1.05627 c -0.30117,0.11539 -0.514313,0.0736 -0.646688,-0.0221 -0.17869,-0.11964 -0.239254,-0.37324 -0.199001,-0.60548 0,0 0,0 0,0 0.03584,-0.21554 0.156178,-0.43157 0.341979,-0.5249 0.395635,-0.19872 0.728225,-0.003 0.871873,0.27979 0.141548,0.27866 0.08802,0.69796 -0.368163,0.87273 z m -1.87591,0.55455 c -0.61973,0.14794 -0.815612,-0.19996 -0.799842,-0.47309 0.01671,-0.28948 0.216492,-0.64128 0.457515,-0.72555 0.387812,-0.1356 0.702792,0.0714 0.814254,0.3787 0.104967,0.28937 0.01317,0.70413 -0.471927,0.81994 z m -2.152308,-0.1583 c -0.05261,-0.0185 -0.101619,-0.0394 -0.146812,-0.0619 -0.600953,-0.37591 -0.340355,-0.74361 -0.152098,-0.86231 0.216544,-0.13653 0.6039,-0.21247 0.709964,-0.20577 0.0048,0.002 0.0096,0.004 0.01434,0.006 0.256007,0.11043 0.422251,0.37595 0.397359,0.68891 -0.02182,0.27438 -0.269458,0.63036 -0.82275,0.43529 z m -1.379579,-1.79493 c -0.20484,-0.57185 0.09243,-0.80017 0.375331,-0.82107 0.3008,-0.0222 0.652677,0.1483 0.752326,0.38393 0.06325,0.14956 0.07247,0.2792 0.04371,0.39708 0,0 0,0 0,0 -0.07315,0.33146 -0.567301,0.68891 -0.943809,0.37227 0,0 0,0 0,0 -0.09307,-0.0736 -0.174589,-0.18434 -0.227556,-0.33221 z m -0.315458,-1.9383 c -0.201786,-1.73285 1.210927,-0.10088 1.197874,-0.17513 0.04603,0.26184 -0.03173,0.45602 -0.170677,0.58368 -0.192355,0.17774 -0.507115,0.22364 -0.741939,0.079 -0.144204,-0.089 -0.25767,-0.25059 -0.285258,-0.48751 z m -0.0139,-1.89169 c -0.01411,-1.40027 1.19323,-0.31451 1.211412,-0.0484 0.09069,1.32745 -1.20701,0.48539 -1.211412,0.0484 z m -0.08515,2.03035 c -0.409333,0.54521 -0.768765,0.3231 -0.886307,0.11299 -0.136303,-0.24364 -0.151477,-0.617 -0.05437,-0.77343 0.148045,-0.23848 0.436687,-0.32881 0.741048,-0.22504 0.270891,0.0924 0.540395,0.43159 0.19963,0.88548 z m -1.808439,1.10003 c -0.637243,0.17687 -0.815155,-0.20085 -0.788552,-0.46415 0.02976,-0.29455 0.24554,-0.62036 0.45689,-0.68592 0.32118,-0.0996 0.613449,0.0666 0.752626,0.33551 0.127725,0.24677 0.09794,0.67055 -0.420964,0.81456 z m -2.132191,-0.15263 c -0.257207,-0.0877 -0.410543,-0.22849 -0.477397,-0.35958 0,0 0,0 0,0 -0.214684,-0.37846 0.218271,-0.59186 0.442191,-0.72675 0,0 0,0 0,0 0.137698,-0.0605 0.275952,-0.0904 0.391386,-0.0604 0.320825,0.0835 0.487065,0.37536 0.454462,0.69261 -0.02948,0.28689 -0.293107,0.63066 -0.810642,0.45413 z m -1.518785,-1.6302 c -0.235834,-0.54752 0.03695,-0.79314 0.315728,-0.83368 0.294293,-0.0428 0.653495,0.0999 0.769302,0.32779 0.02172,0.0427 0.0386,0.084 0.05112,0.12408 0.110438,0.28197 -0.07239,0.57618 -0.304577,0.71622 -0.231087,0.13938 -0.624379,0.12849 -0.806671,-0.28141 -0.0087,-0.017 -0.01702,-0.0347 -0.0249,-0.053 z m -0.439709,-1.89285 c -0.333045,-1.84384 1.224083,-0.0319 1.17232,-0.24667 0.02678,0.11112 0.02963,0.21055 0.01357,0.2991 0,0 0,0 0,0 -0.0855,0.48604 -0.833693,0.70512 -1.113571,0.16445 -0.03252,-0.0625 -0.05749,-0.13477 -0.07232,-0.21688 z m -0.09768,-1.90194 c -0.0037,-0.67956 0.415812,-0.75636 0.655528,-0.64883 0.252866,0.11342 0.528284,0.39772 0.54729,0.60261 0.01737,0.18726 -0.0361,0.35113 -0.140745,0.47359 0,0 0,0 0,0 -0.222163,0.25023 -0.668449,0.2836 -0.907503,0.001 0,0 0,0 0,0 -0.08791,-0.0954 -0.153498,-0.2339 -0.15457,-0.42839 z m -0.489061,1.74973 c -0.557812,0.29096 -0.83615,8.2e-4 -0.889267,-0.28411 -0.05671,-0.3042 0.0706,-0.694 0.304653,-0.82135 0.35692,-0.1942 0.69762,-0.0421 0.862855,0.21151 0.157112,0.24115 0.16893,0.66071 -0.278241,0.89395 z m -2.049587,0.44946 c -0.65076,0.0119 -0.730974,-0.38234 -0.653646,-0.61139 0.08508,-0.25201 0.349007,-0.52967 0.559386,-0.56616 0.342764,-0.0595 0.608871,0.15163 0.68598,0.47302 0.07044,0.29357 -0.07079,0.69501 -0.59172,0.70453 z m -1.979212,-0.72366 c -0.08761,-0.0681 -0.158093,-0.1403 -0.21175,-0.21149 -0.464238,-0.82413 0.65153,-0.80919 0.885621,-0.73049 0.02962,0.0152 0.05544,0.0336 0.07766,0.0558 0.184681,0.1845 0.242847,0.48117 0.131969,0.74756 -0.09773,0.2348 -0.429148,0.49171 -0.883503,0.13863 z m -0.885338,-1.952 c -0.08997,-0.64 0.292216,-0.77269 0.557778,-0.71285 0.29414,0.0663 0.581751,0.3235 0.614755,0.54516 0.04883,0.32797 -0.150608,0.58843 -0.431782,0.68973 -0.260594,0.0939 -0.666489,0.006 -0.740751,-0.52204 z m 0.32672,-2.06705 c 0.210331,-0.58949 0.603523,-0.56045 0.822344,-0.40304 0.23629,0.16999 0.413864,0.52763 0.348908,0.77409 -0.09855,0.37394 -0.426674,0.52007 -0.740433,0.46134 -0.295976,-0.0554 -0.603795,-0.34759 -0.430819,-0.83239 z m 0.886818,-1.11274 c -0.623481,0.33617 -0.926491,0.01 -0.98098,-0.29037 -0.05854,-0.32221 0.07061,-0.74621 0.303192,-0.89151 0.365529,-0.22834 0.745808,-0.0973 0.949856,0.18521 0.191165,0.26464 0.222778,0.72986 -0.272068,0.99667 z m -2.332717,0.44654 c -0.07342,-0.004 -0.142033,-0.0134 -0.205247,-0.0267 -0.625461,-0.15603 -0.585063,-0.57608 -0.441035,-0.80576 0.156763,-0.24999 0.486507,-0.47943 0.678764,-0.50499 0.01354,-7.8e-4 0.02704,-8.4e-4 0.04055,-1.4e-4 0.342647,0.0177 0.605455,0.26559 0.66822,0.61386 0.05596,0.31051 -0.114855,0.75899 -0.741251,0.72371 z m -2.164677,-1.24426 c -0.08358,-0.10042 -0.143487,-0.20064 -0.183364,-0.29421 0,0 0,0 0,0 -0.389074,-0.95737 0.845814,-0.80022 1.095993,-0.6666 0.03997,0.0217 0.07507,0.0474 0.104461,0.0783 0.234123,0.24641 0.229986,0.61737 0.0314,0.9084 -0.175116,0.25662 -0.633337,0.47286 -1.048489,-0.0259 z m -0.717754,-2.32112 c -0.01662,-0.74638 0.44432,-0.83322 0.719154,-0.73337 0.308112,0.11194 0.604755,0.43369 0.62298,0.6777 0.02787,0.37318 -0.22392,0.65145 -0.561917,0.73534 -0.309021,0.0767 -0.766649,-0.0705 -0.780217,-0.67967 z m 0.765165,-2.27047 c 0.426107,-0.63736 0.856011,-0.42752 1.014441,-0.18536 0.178358,0.27262 0.22919,0.70493 0.114099,0.90294 -0.18281,0.31453 -0.542009,0.40964 -0.873497,0.28544 -0.299132,-0.11208 -0.596059,-0.49293 -0.255043,-1.00302 z m -1.303778,0.0111 c -0.686122,-0.33445 -0.506952,-0.77749 -0.302735,-0.94473 0.240009,-0.19654 0.645514,-0.2868 0.831578,-0.21232 0.282243,0.11299 0.436517,0.4104 0.390754,0.75648 -0.04053,0.30651 -0.348889,0.67875 -0.919597,0.40057 z m -1.548324,-1.7794 c -0.300468,-0.68236 0.103262,-0.92765 0.382715,-0.93393 0.317979,-0.007 0.706494,0.17684 0.810486,0.38353 0.161046,0.32009 0.03769,0.6667 -0.231875,0.86995 -0.243994,0.18398 -0.717889,0.23328 -0.961326,-0.31955 z m -0.145467,-2.35028 c 0.130429,-0.72122 0.596508,-0.72209 0.845006,-0.57579 0.276555,0.16282 0.516413,0.53281 0.486623,0.78572 -0.04644,0.39424 -0.370092,0.61159 -0.712161,0.61327 -0.314486,0.002 -0.724308,-0.24348 -0.619468,-0.8232 z m 1.218243,-2.03178 c 0.593461,-0.52787 0.936655,-0.1734 1.000884,0.0891 0.07464,0.3051 -0.0084,0.71316 -0.134713,0.84184 -0.21565,0.21963 -0.556194,0.25166 -0.852777,0.0671 -0.25832,-0.16073 -0.477368,-0.5854 -0.01339,-0.9981 z m 0.983106,-0.57263 c -0.381504,-0.58361 -0.06634,-0.88641 0.204582,-0.94766 0.299804,-0.0678 0.701506,0.0344 0.843938,0.22391 0.221676,0.29499 0.153865,0.65052 -0.08302,0.88291 -0.217645,0.21353 -0.657631,0.3118 -0.9655,-0.15916 z m -0.531155,-2.2071 c 0.0357,-0.7047 0.467752,-0.75833 0.722054,-0.64747 0.283994,0.1238 0.539381,0.4445 0.54533,0.67311 0.0014,0.0556 -0.0021,0.10604 -0.01051,0.1528 -0.01488,0.0663 -1.139196,1.32329 -1.256361,-0.0708 -0.0022,-0.0346 -0.0024,-0.0706 -5.12e-4,-0.10767 z m 0.795935,-2.08129 c 0.05818,-0.0895 0.120007,-0.16197 0.181777,-0.21871 0.668854,-0.6604 1.038315,0.44049 0.950678,0.76134 -0.0097,0.0426 -0.02437,0.0828 -0.04496,0.11997 -0.187056,0.33769 -0.544874,0.41098 -0.849901,0.28233 -0.285521,-0.12043 -0.53577,-0.48604 -0.237593,-0.94493 z m 1.611599,-1.50508 c 0.575783,-0.37129 0.88465,-0.0751 0.956113,0.19886 0.07758,0.29742 -0.01261,0.7085 -0.213183,0.86488 -0.313043,0.24408 -0.681274,0.16776 -0.912957,-0.0842 -0.215634,-0.23455 -0.294488,-0.67995 0.170027,-0.97949 z m 2.157455,-0.57869 c 0.724791,-0.0108 0.786998,0.431 0.675833,0.68382 -0.124729,0.28366 -0.434029,0.53757 -0.634948,0.55036 -0.324882,0.0207 -0.587536,-0.19015 -0.67092,-0.51183 -0.07476,-0.2884 0.05635,-0.71377 0.630035,-0.72235 z"
       id="path4550"
       inkscape:connector-curvature="0"
       inkscape:path-effect="#path-effect4552"
       inkscape:original-d="m 54.812384,248.15359 c -1.544003,-0.6897 -2.678078,0.29957 -3.69437,1.30008 -1.254781,1.23528 -0.465712,3.93548 0.291901,4.7125 m -1.351666,-0.88558 c -1.235293,-0.55376 -4.977398,0.20944 -3.787072,3.98216 m 42.749999,-6.85451 c 1.639386,-0.14449 5.049021,2.48762 5.586221,3.92376 m -1.41375,1.21875 c 1.837243,-0.29826 4.658107,1.05887 2.790206,4.40073 m -0.82875,0.78 c 1.397314,-0.0155 4.224131,1.43462 4.417701,2.74398 0.149202,1.00924 -1.202905,3.61926 -2.734059,4.1568 m 0.63375,0.80438 c 1.248868,1.39723 0.390215,3.22157 -0.473192,4.98127 -0.425794,0.86781 -3.568768,1.34099 -5.443215,1.59895 m 3.315,0.24375 c 0.395383,1.1042 1.290924,4.18624 0.155474,5.25118 -1.067354,1.00106 -3.926093,0.41517 -4.452648,-0.0151 m -1.225763,-1.28741 c -0.28674,0.93078 0.516297,5.70709 -1.803048,6.34369 -1.533855,0.42101 -3.575514,-1.4411 -3.830154,-1.96567 m -0.516117,-1.49101 c -0.274309,0.0912 -0.9859,4.06092 -3.168521,4.67979 -1.072525,0.3041 -3.103371,-0.36505 -3.951472,-2.4269 m -0.821305,-0.89842 c -0.06986,1.30364 -2.607547,4.01709 -4.134667,3.93036 -1.553616,-0.0882 -3.310742,-4.03735 -3.494294,-4.73201 m -0.180441,2.09641 c -0.553194,1.0951 -4.329075,2.44551 -5.659439,1.75066 -1.477763,-0.77185 -1.276874,-4.49602 -1.201241,-5.67523 m -0.877578,1.81308 c -0.618099,1.50643 -2.540437,1.93489 -4.013886,1.03838 -1.190763,-0.72452 -1.395334,-4.47779 -1.130468,-5.28668 m -0.885574,1.5381 c -3.908891,2.21377 -5.661069,-0.96637 -4.027321,-3.82673 m 0.326264,-1.67793 c -4.194988,2.65016 -6.364442,-2.41761 -3.703463,-4.58818 m -1.444885,-0.18644 c -2.887918,-0.56172 -2.453157,-4.92978 -0.363502,-5.68072 m 0.885574,-0.5127 c -2.544224,-2.93472 1.309836,-6.62326 3.773452,-5.83587"
       sodipodi:nodetypes="csccccccccsccsccsccsccsccsccsccsccccccccc" />
    <path
       style="fill:url(#linearGradient4730);stroke-width:0.05;stroke-linecap:round;stroke-linejoin:round"
       d="m 6.95101,161.83777 c -2.294831,-5.18831 1.5964041,-6.28584 2.1285389,-3.85797 2.2283141,-1.23057 4.2903361,2.29483 -2.1285389,3.85797 z"
       id="path4583"
       inkscape:connector-curvature="0"
       sodipodi:nodetypes="ccc" />
    <path
       id="path4589"
       style="fill:url(#linearGradient4740);stroke-width:0.05;stroke-linecap:round;stroke-linejoin:round"
       d="m 39.677297,207.10249 c -5.650384,0.69365 -3.758903,6.87079 1.995504,5.62067 4.675197,-1.01566 4.945246,-6.47273 -1.995504,-5.62067 z m -0.133037,-0.63191 c 7.174527,-0.98624 7.808417,6.06961 2.394608,7.35011 -7.565728,1.78948 -7.885897,-6.59525 -2.394608,-7.35011 z"
       inkscape:connector-curvature="0"
       sodipodi:nodetypes="ssssss" />
    <path
       id="path4592"
       style="fill:url(#linearGradient4734);stroke-width:0.05;stroke-linecap:round;stroke-linejoin:round"
       d="m 35.885837,211.75866 c 2.427863,4.78921 8.281347,3.82472 9.578424,-0.86472 -1.197304,2.59416 -6.751459,3.85798 -9.578424,0.86472 z m 3.026515,-1.39685 -0.498877,1.89573 1.962248,-1.56315 2.427864,0.73169 -0.931235,-2.06202 1.862471,-1.49663 -2.261571,0.13303 -0.09978,-1.26382 -1.563145,1.43011 -2.062023,-0.76494 0.23281,1.89573 -1.629664,0.76494 z"
       inkscape:connector-curvature="0"
       sodipodi:nodetypes="cccccccccccccccc" />
    <path
       id="path4673"
       style="fill:none;stroke:url(#linearGradient4740);stroke-width:0.75;stroke-linecap:round;stroke-linejoin:round"
       d="m 90.978973,255.94585 -0.349583,-0.1311 m 2.141196,1.55127 -2.665569,1.13615 m 3.364736,1.22354 -3.146248,0.91765 m 3.845414,1.87901 -4.1076,0.48068 m 4.675671,2.44708 -4.413485,0.0437 m 5.593328,2.40338 -6.292492,-0.17478 m 4.763066,2.14119 -0.786561,0.61177 m -0.655469,2.0538 -0.262186,-1.61682 -3.277341,-2.0538 m 1.791613,4.45717 -3.05885,-2.53447 m 1.660517,6.59837 0.131096,-2.01009 -3.277341,-3.40845 m 0.961353,6.11773 -3.015155,-4.93787 m 1.26724,6.3799 -1.747916,-1.39835 -1.704216,-3.9765 m 1.179841,6.2925 -1.398331,-1.00507 -1.616821,-4.23868 m -0.393282,4.28239 -1.223539,-4.3261 m 2.46893,6.0303 -10e-7,-0.30587 m -2.07565,0.43698 -1.398331,-1.52943 -0.83026,-4.41348 m 0.568074,6.20511 -1.354635,-1.31096 -0.655468,-4.45717 m -0.786562,5.81181 -1.04875,-5.76813 m -1.179843,6.03033 -0.524372,-5.76812 m -1.791613,5.81181 0.174792,-5.85552 m -2.840363,5.20004 1.310936,-6.16138 m -4.282392,5.24372 0.961353,0.3496 1.616821,-5.37483 m -3.189944,3.9328 1.136145,-4.80677 m -2.141196,5.8992 -1.005052,-2.18487 1.398334,-4.02021 m -3.758018,5.28743 -0.131093,-1.61682 1.791613,-3.45212 -0.0437,-0.74287 m -3.408433,4.63198 -0.174791,-1.35464 2.141196,-3.67062 v -0.52438 m -4.151299,4.67567 -0.218491,-1.74789 2.621873,-3.40844 v -0.39328 m -4.588274,4.06389 0.218487,-1.39832 3.015155,-2.92777 m -4.937861,2.57818 -0.262186,-1.22354 3.495829,-2.49079 m -5.200047,1.57313 0.41513,0.0219 m -1.0269,-2.33783 1.66052,0.48066 3.058851,-0.69916 m -5.156351,-2.0538 5.200049,-0.17481 m -5.156351,-2.27227 4.500883,0.0437 m -0.262189,-11.84213 0.480678,0.54623 m -3.845413,8.89251 4.020203,0.52437 m -6.423586,0.0437 1.179841,-0.21849 m 0.196638,-1.9664 0.284034,0.13109 m 0.349584,-1.87901 4.369787,1.26724 m -3.058851,-4.50088 0.174792,1.04875 3.015154,1.48573 m -2.010103,-3.62693 2.228591,2.0538"
       inkscape:connector-curvature="0"
       sodipodi:nodetypes="cccccccccccccccccccccccccccccccccccccccccccccccccccccccccccccccccccccccccccccccccccccccccccccccccc" />
  </g>
  <g
     inkscape:groupmode="layer"
     id="layer6"
     inkscape:label="title"
     sodipodi:insensitive="true">
    <text
       xml:space="preserve"
       style="font-weight:bold;font-size:12.69999981px;line-height:1.25em;font-family:serif;-inkscape-font-specification:'serif Bold';text-align:center;text-anchor:middle;fill:#19448e;stroke-width:0.05;stroke-linecap:round;stroke-linejoin:round"
       x="105.22738"
       y="51.75325"
       id="text4753"><tspan
         sodipodi:role="line"
         id="tspan4751"
         x="105.22739"
         y="51.75325">PARKHAUS <tspan
   style="font-size:16.93333244px"
   id="tspan4755">SAMPLE</tspan></tspan></text>
  </g>
</svg>
