<?xml version="1.0" encoding="UTF-8" standalone="no"?>
<!-- Created with Inkscape (http://www.inkscape.org/) -->

<svg
   xmlns:osb="http://www.openswatchbook.org/uri/2009/osb"
   xmlns:dc="http://purl.org/dc/elements/1.1/"
   xmlns:cc="http://creativecommons.org/ns#"
   xmlns:rdf="http://www.w3.org/1999/02/22-rdf-syntax-ns#"
   xmlns:svg="http://www.w3.org/2000/svg"
   xmlns="http://www.w3.org/2000/svg"
   xmlns:xlink="http://www.w3.org/1999/xlink"
   xmlns:sodipodi="http://sodipodi.sourceforge.net/DTD/sodipodi-0.dtd"
   xmlns:inkscape="http://www.inkscape.org/namespaces/inkscape"
   width="210mm"
   height="297mm"
   viewBox="0 0 210 297"
   version="1.1"
   id="svg8"
   inkscape:version="0.92.1 r15371"
   sodipodi:docname="Persian_Room.svg">
  <defs
     id="defs2">
    <linearGradient
       id="linearGradient4710"
       osb:paint="solid"
       gradientTransform="scale(0.26458333)">
      <stop
         style="stop-color:#3f312b;stop-opacity:1"
         offset="0"
         id="stop4708" />
    </linearGradient>
    <clipPath
       clipPathUnits="userSpaceOnUse"
       id="clipPath4693">
      <rect
         style="opacity:1;fill:#3b7960;fill-opacity:1;stroke:none;stroke-width:0.05000001;stroke-linecap:round;stroke-linejoin:miter;stroke-miterlimit:4;stroke-dasharray:none;stroke-dashoffset:0;stroke-opacity:1;paint-order:normal"
         id="rect4695"
         width="215.88672"
         height="303"
         x="-3"
         y="-3" />
    </clipPath>
    <linearGradient
       inkscape:collect="always"
       xlink:href="#linearGradient4710"
       id="linearGradient4712"
       x1="-3"
       y1="148.5"
       x2="212.88672"
       y2="148.5"
       gradientUnits="userSpaceOnUse" />
  </defs>
  <sodipodi:namedview
     id="base"
     pagecolor="#ffffff"
     bordercolor="#666666"
     borderopacity="1.0"
     inkscape:pageopacity="0.0"
     inkscape:pageshadow="2"
     inkscape:zoom="1.0073722"
     inkscape:cx="407.68353"
     inkscape:cy="570.24996"
     inkscape:document-units="mm"
     inkscape:current-layer="layer5"
     showgrid="true"
     inkscape:snap-page="true"
     inkscape:snap-bbox="false"
     borderlayer="true"
     inkscape:showpageshadow="false"
     inkscape:snap-global="false"
     inkscape:bbox-paths="true"
     inkscape:pagecheckerboard="true"
     inkscape:snap-center="true"
     inkscape:snap-intersection-paths="true"
     inkscape:bbox-nodes="true"
     inkscape:snap-smooth-nodes="true"
     inkscape:object-paths="true"
     showguides="false"
     inkscape:guide-bbox="true">
    <sodipodi:guide
       position="105,300.00001"
       orientation="0,1"
       id="guide4495"
       inkscape:locked="false" />
    <sodipodi:guide
       position="105,-3.0000001"
       orientation="0,1"
       id="guide4497"
       inkscape:locked="false" />
    <sodipodi:guide
       position="-2.9999999,148.5"
       orientation="1,0"
       id="guide4499"
       inkscape:locked="false" />
    <sodipodi:guide
       position="213,148.5"
       orientation="1,0"
       id="guide4501"
       inkscape:locked="false" />
    <sodipodi:guide
       position="34.391009,213.68281"
       orientation="1,0"
       id="guide4511"
       inkscape:locked="false" />
    <sodipodi:guide
       position="69.699112,179.75035"
       orientation="1,0"
       id="guide4513"
       inkscape:locked="false" />
    <sodipodi:guide
       position="55.769546,249.50387"
       orientation="204.04238,98.03839"
       id="guide4517"
       inkscape:locked="false" />
    <sodipodi:guide
       position="79.114938,241.23571"
       orientation="-121.74913,58.498088"
       id="guide4521"
       inkscape:locked="false" />
  </sodipodi:namedview>
  <metadata
     id="metadata5">
    <rdf:RDF>
      <cc:Work
         rdf:about="">
        <dc:format>image/svg+xml</dc:format>
        <dc:type
           rdf:resource="http://purl.org/dc/dcmitype/StillImage" />
        <dc:title></dc:title>
        <cc:license
           rdf:resource="http://creativecommons.org/publicdomain/zero/1.0/" />
        <dc:source>https://digitalcollections.nypl.org/items/b0d65bdd-77e0-7d0a-e040-e00a18065084</dc:source>
      </cc:Work>
      <cc:License
         rdf:about="http://creativecommons.org/publicdomain/zero/1.0/">
        <cc:permits
           rdf:resource="http://creativecommons.org/ns#Reproduction" />
        <cc:permits
           rdf:resource="http://creativecommons.org/ns#Distribution" />
        <cc:permits
           rdf:resource="http://creativecommons.org/ns#DerivativeWorks" />
      </cc:License>
    </rdf:RDF>
  </metadata>
  <g
     inkscape:groupmode="layer"
     id="layer3"
     inkscape:label="white"
     sodipodi:insensitive="true">
    <rect
       style="fill:#3b7960;stroke-width:0.99999994"
       id="rect4494"
       width="215.88672"
       height="303"
       x="-3"
       y="-3" />
  </g>
  <g
     inkscape:groupmode="layer"
     id="layer2"
     inkscape:label="mark"
     sodipodi:insensitive="true">
    <g
       id="g4516">
      <g
         id="g4506">
        <path
           style="fill:none;stroke:#000000;stroke-width:0.2"
           d="m -12,0 h 9 v -12"
           id="path4485"
           inkscape:connector-curvature="0" />
        <use
           x="0"
           y="0"
           xlink:href="#path4485"
           id="use4502"
           width="100%"
           height="100%"
           transform="matrix(0,1,1,0,0,0)" />
      </g>
      <use
         transform="matrix(-1,0,0,1,210,0)"
         height="100%"
         width="100%"
         id="use4508"
         xlink:href="#g4506"
         y="0"
         x="0" />
      <path
         style="stroke:#000000;stroke-width:0.2"
         d="m 105,-12 v 9"
         id="path4524"
         inkscape:connector-curvature="0" />
      <path
         style="stroke:#000000;stroke-width:0.2"
         d="m 96,-6 h 18"
         id="path4548"
         inkscape:connector-curvature="0" />
      <path
         style="stroke:#000000;stroke-width:0.2"
         d="m -12,148.5 h 9"
         id="path4554"
         inkscape:connector-curvature="0" />
      <path
         style="stroke:#000000;stroke-width:0.2"
         d="M -6,159 V 138"
         id="path4556"
         inkscape:connector-curvature="0" />
    </g>
    <use
       x="0"
       y="0"
       xlink:href="#g4516"
       id="use4518"
       width="100%"
       height="100%"
       transform="rotate(-180,105,148.5)" />
  </g>
  <g
     inkscape:groupmode="layer"
     id="layer4"
     inkscape:label="triangle"
     sodipodi:insensitive="true">
    <path
       id="path4523-01"
       style="fill:url(#linearGradient4712);stroke-width:0.05;stroke-linecap:round"
       d="m -0.916985,221.20464 -35.308101,72.35891 V 147.71966 Z M -0.91698327,75.360748 -36.225084,147.71966 V 1.8757674 Z M 246.23962,298.06805 210.93151,370.42696 V 224.58307 Z m -1e-5,-145.84389 -35.3081,72.35891 V 78.739181 Z m 1e-5,-145.843906 -35.30811,72.358912 V -67.104726 Z M 210.9032,370.48498 175.5951,442.84389 V 297 Z m -70.58789,-1.18451 -35.3081,72.35891 V 295.81548 Z M 69.699217,368.1746 34.391116,440.53351 V 294.68962 Z M 210.93151,-67.104717 175.62341,5.254195 V -140.5897 Z m -70.61619,-2.252131 -35.3081,72.3589119 V -142.84183 Z m -70.616209,-7e-6 L 34.39101,3.0020571 V -142.84184 Z m 105.924299,366.298835 -35.3081,72.35891 v -145.8439 z m 35.3081,-72.35891 -35.3081,72.35891 v -145.8439 z m 0,-145.843904 -35.3081,72.358914 V 5.254185 Z M 175.62341,5.254195 140.31531,77.613107 V -68.230786 Z m 0,145.843885 -35.3081,72.35891 V 77.613111 Z m -35.3081,-73.484973 -35.3081,72.358913 V 4.1281265 Z m 0,145.843883 -35.3081,72.35891 V 149.97201 Z m -35.3081,72.35849 -35.308098,72.35891 v -145.8439 z m 0,-145.84346 -35.308098,72.35891 V 76.487035 Z M 105.00722,3.0020639 69.699112,75.360976 V -70.482917 Z M 34.39101,3.0020571 -0.917091,75.360969 V -70.482924 Z M 34.391117,148.84573 -0.91698433,221.20464 V 75.360746 Z m -1e-6,145.84389 -35.308101,72.35891 V 221.20464 Z M 69.699217,222.33071 34.391116,294.68962 V 148.84573 Z M 69.69911,76.487035 34.39101,148.84595 V 3.0020548 Z"
       inkscape:connector-curvature="0"
       clip-path="url(#clipPath4693)" />
  </g>
  <g
     inkscape:groupmode="layer"
     id="layer5"
     inkscape:label="ribbon"
     sodipodi:insensitive="true">
    <path
       id="path4700"
       style="fill:#bb5520;stroke-width:0.05;stroke-linecap:round"
       d="m -3,171.45471 c 29.051848,14.10706 69.871509,3.48071 112.19103,1.20396 38.70047,-2.08204 80.65707,2.83963 96.21265,28.93478 -12.62074,-6.04088 -27.6685,-10.27401 -40.8553,-4.85897 13.13235,5.8439 27.11831,21.40574 28.36588,35.85132 C 144.84985,182.15757 69.589276,239.06056 -3,212.55897 Z m 0,-53.18604 C 9.3092747,112.28471 23.301586,107.5489 38.953399,103.95606 53.019532,100.72722 68.339252,87.627104 62.641323,74.14397 57.14882,61.14694 21.577941,55.627351 -3,65.739263 V 55.890001 C 28.497206,48.141912 68.755448,55.922475 62.641323,74.14397 52.4246,104.59215 10.284118,92.135294 -3,101.98456 Z"
       inkscape:connector-curvature="0" />
  </g>
  <g
     inkscape:groupmode="layer"
     id="layer6"
     inkscape:label="title"
     sodipodi:insensitive="true">
    <text
       xml:space="preserve"
       style="font-size:19.7555542px;line-height:1.25em;font-family:sans-serif;-inkscape-font-specification:sans-serif;text-align:center;text-anchor:middle;fill:url(#linearGradient4710);stroke-width:0.05;stroke-linecap:round"
       id="text4706"><textPath
         xlink:href="#path4714"
         startOffset="50%"
         id="textPath4720"><tspan
   style="-inkscape-font-specification:sans-serif;text-align:center"
   id="tspan4704">Sample Room</tspan></textPath></text>
    <path
       style="fill:none;stroke-width:0.05;stroke-linecap:round"
       d="M 9.980588,200.34588 C 44.387352,214.52882 129.485,189.83999 159.68941,199.55794"
       id="path4714"
       inkscape:connector-curvature="0"
       sodipodi:nodetypes="cc" />
  </g>
</svg>
