<?xml version="1.0" encoding="UTF-8" standalone="no"?>
<!-- Created with Inkscape (http://www.inkscape.org/) -->

<svg
   xmlns:osb="http://www.openswatchbook.org/uri/2009/osb"
   xmlns:dc="http://purl.org/dc/elements/1.1/"
   xmlns:cc="http://creativecommons.org/ns#"
   xmlns:rdf="http://www.w3.org/1999/02/22-rdf-syntax-ns#"
   xmlns:svg="http://www.w3.org/2000/svg"
   xmlns="http://www.w3.org/2000/svg"
   xmlns:xlink="http://www.w3.org/1999/xlink"
   xmlns:sodipodi="http://sodipodi.sourceforge.net/DTD/sodipodi-0.dtd"
   xmlns:inkscape="http://www.inkscape.org/namespaces/inkscape"
   width="210mm"
   height="297mm"
   viewBox="0 0 210 297"
   version="1.1"
   id="svg8"
   inkscape:version="0.92.1 r15371"
   sodipodi:docname="S.S._Maasdam.svg">
  <defs
     id="defs2">
    <linearGradient
       id="linearGradient4639"
       osb:paint="solid"
       gradientTransform="scale(0.07000434)">
      <stop
         style="stop-color:#e60033;stop-opacity:1"
         offset="0"
         id="stop4637" />
    </linearGradient>
    <linearGradient
       inkscape:collect="always"
       xlink:href="#linearGradient4639"
       id="linearGradient4641"
       x1="32.12398"
       y1="152.78173"
       x2="177.90002"
       y2="152.78173"
       gradientUnits="userSpaceOnUse" />
  </defs>
  <sodipodi:namedview
     id="base"
     pagecolor="#ffffff"
     bordercolor="#666666"
     borderopacity="1.0"
     inkscape:pageopacity="0.0"
     inkscape:pageshadow="2"
     inkscape:zoom="0.6900716"
     inkscape:cx="366.14433"
     inkscape:cy="426.11773"
     inkscape:document-units="mm"
     inkscape:current-layer="layer6"
     showgrid="true"
     inkscape:snap-page="true"
     inkscape:snap-bbox="false"
     borderlayer="true"
     inkscape:showpageshadow="false"
     inkscape:snap-global="true"
     inkscape:bbox-paths="true"
     inkscape:pagecheckerboard="true"
     inkscape:snap-center="true"
     inkscape:snap-intersection-paths="true"
     inkscape:bbox-nodes="true"
     inkscape:snap-smooth-nodes="true"
     inkscape:object-paths="true"
     showguides="false"
     inkscape:guide-bbox="true">
    <sodipodi:guide
       position="105,300.00001"
       orientation="0,1"
       id="guide4495"
       inkscape:locked="false" />
    <sodipodi:guide
       position="105,-3.0000001"
       orientation="0,1"
       id="guide4497"
       inkscape:locked="false" />
    <sodipodi:guide
       position="-2.9999999,148.5"
       orientation="1,0"
       id="guide4499"
       inkscape:locked="false" />
    <sodipodi:guide
       position="213,148.5"
       orientation="1,0"
       id="guide4501"
       inkscape:locked="false" />
    <sodipodi:guide
       position="105,309"
       orientation="1,0"
       inkscape:locked="false"
       id="guide4592" />
    <sodipodi:guide
       position="12.125482,278.45465"
       orientation="1,0"
       id="guide4597"
       inkscape:locked="false" />
    <sodipodi:guide
       position="12.125482,278.45465"
       orientation="0,1"
       id="guide4599"
       inkscape:locked="false" />
    <sodipodi:guide
       position="16.522767,274.05737"
       orientation="1,0"
       id="guide4601"
       inkscape:locked="false" />
    <sodipodi:guide
       position="17.181754,274.05737"
       orientation="0,1"
       id="guide4603"
       inkscape:locked="false" />
    <sodipodi:guide
       position="9.1540167,268.62967"
       orientation="1,0"
       id="guide4605"
       inkscape:locked="false" />
    <sodipodi:guide
       position="18.547667,281.42612"
       orientation="0,1"
       id="guide4607"
       inkscape:locked="false" />
    <sodipodi:guide
       position="9.1540167,281.42612"
       orientation="0.70710678,0.70710678"
       id="guide4609"
       inkscape:locked="false" />
    <sodipodi:guide
       position="142.08014,148.5"
       orientation="-0.70710678,0.70710678"
       id="guide4611"
       inkscape:locked="false" />
    <sodipodi:guide
       position="200.84598,281.42612"
       orientation="1,0"
       id="guide4613"
       inkscape:locked="false" />
    <sodipodi:guide
       position="197.87451,278.45465"
       orientation="1,0"
       id="guide4615"
       inkscape:locked="false" />
    <sodipodi:guide
       position="193.47723,274.05737"
       orientation="1,0"
       id="guide4617"
       inkscape:locked="false" />
    <sodipodi:guide
       position="-12,148.5"
       orientation="0,1"
       id="guide4619"
       inkscape:locked="false" />
    <sodipodi:guide
       position="9.1540167,15.573877"
       orientation="0,1"
       id="guide4621"
       inkscape:locked="false" />
    <sodipodi:guide
       position="12.125482,18.545342"
       orientation="0,1"
       id="guide4623"
       inkscape:locked="false" />
    <sodipodi:guide
       position="105,185.58014"
       orientation="-0.70710678,0.70710678"
       id="guide4625"
       inkscape:locked="false" />
    <sodipodi:guide
       position="16.522767,22.942628"
       orientation="0,1"
       id="guide4627"
       inkscape:locked="false" />
  </sodipodi:namedview>
  <metadata
     id="metadata5">
    <rdf:RDF>
      <cc:Work
         rdf:about="">
        <dc:format>image/svg+xml</dc:format>
        <dc:type
           rdf:resource="http://purl.org/dc/dcmitype/StillImage" />
        <dc:title></dc:title>
        <cc:license
           rdf:resource="http://creativecommons.org/publicdomain/zero/1.0/" />
        <dc:source>https://digitalcollections.nypl.org/items/afbf98ff-488c-7e08-e040-e00a18064829</dc:source>
      </cc:Work>
      <cc:License
         rdf:about="http://creativecommons.org/publicdomain/zero/1.0/">
        <cc:permits
           rdf:resource="http://creativecommons.org/ns#Reproduction" />
        <cc:permits
           rdf:resource="http://creativecommons.org/ns#Distribution" />
        <cc:permits
           rdf:resource="http://creativecommons.org/ns#DerivativeWorks" />
      </cc:License>
    </rdf:RDF>
  </metadata>
  <g
     inkscape:groupmode="layer"
     id="layer3"
     inkscape:label="white"
     sodipodi:insensitive="true">
    <rect
       style="fill:#ffffff;stroke-width:0.99999994"
       id="rect4494"
       width="215.88672"
       height="303"
       x="-3"
       y="-3" />
  </g>
  <g
     inkscape:groupmode="layer"
     id="layer2"
     inkscape:label="mark"
     sodipodi:insensitive="true">
    <g
       id="g4516">
      <g
         id="g4506">
        <path
           style="fill:none;stroke:#000000;stroke-width:0.2"
           d="m -12,0 h 9 v -12"
           id="path4485"
           inkscape:connector-curvature="0" />
        <use
           x="0"
           y="0"
           xlink:href="#path4485"
           id="use4502"
           width="100%"
           height="100%"
           transform="matrix(0,1,1,0,0,0)" />
      </g>
      <use
         transform="matrix(-1,0,0,1,210,0)"
         height="100%"
         width="100%"
         id="use4508"
         xlink:href="#g4506"
         y="0"
         x="0" />
      <path
         style="stroke:#000000;stroke-width:0.2"
         d="m 105,-12 v 9"
         id="path4524"
         inkscape:connector-curvature="0" />
      <path
         style="stroke:#000000;stroke-width:0.2"
         d="m 96,-6 h 18"
         id="path4548"
         inkscape:connector-curvature="0" />
      <path
         style="stroke:#000000;stroke-width:0.2"
         d="m -12,148.5 h 9"
         id="path4554"
         inkscape:connector-curvature="0" />
      <path
         style="stroke:#000000;stroke-width:0.2"
         d="M -6,159 V 138"
         id="path4556"
         inkscape:connector-curvature="0" />
    </g>
    <use
       x="0"
       y="0"
       xlink:href="#g4516"
       id="use4518"
       width="100%"
       height="100%"
       transform="rotate(-180,105,148.5)" />
  </g>
  <g
     inkscape:groupmode="layer"
     id="layer7"
     inkscape:label="paper"
     sodipodi:insensitive="true">
    <rect
       style="fill:#698aab;stroke-width:0.12499999;stroke-linecap:round;stroke-linejoin:round"
       id="rect4629"
       width="191.69196"
       height="265.85223"
       x="9.1540165"
       y="15.57388" />
    <rect
       style="fill:none;stroke:#ffffff;stroke-width:0.5;stroke-linecap:round;stroke-linejoin:round"
       id="rect4631"
       width="185.74902"
       height="259.9093"
       x="12.125482"
       y="18.545351" />
    <rect
       style="fill:none;stroke:url(#linearGradient4639);stroke-width:3;stroke-linecap:round"
       id="rect4633"
       width="176.95447"
       height="251.11475"
       x="16.522766"
       y="22.942631" />
  </g>
  <g
     inkscape:groupmode="layer"
     id="layer4"
     inkscape:label="ribbon"
     sodipodi:insensitive="true">
    <use
       x="0"
       y="0"
       xlink:href="#path4535"
       id="use4538"
       width="100%"
       height="100%"
       transform="matrix(-1,0,0,1,210,0)"
       style="fill:#ffffff" />
    <g
       id="g4547"
       style="fill:url(#linearGradient4641)">
      <path
         sodipodi:nodetypes="cscccscccscccscccscccsccccccccccccccccccsccscccccccccc"
         inkscape:connector-curvature="0"
         d="m 142.39713,99.709363 c -20.34141,-17.71703 -36.62871,-2.718238 -31.91641,7.530917 1.20623,2.62351 5.57258,4.40456 8.3995,5.68162 -4.37534,-5.51582 6.57825,-22.32893 23.51691,-13.212537 z m 25.90316,32.070027 c -9.88392,-24.14751 -32.87557,-19.21218 -32.47353,-6.40072 0.0985,3.13898 3.10858,6.26506 5.57397,8.96422 -3.59092,-6.69946 12.31342,-19.59538 26.89956,-2.5635 z m 9.57573,41.51078 c 0.88881,-31.27871 -23.18195,-31.97704 -26.22666,-21.5844 -0.83081,2.83585 0.0726,7.94471 0.87304,11.20733 -0.44081,-7.9454 18.51517,-14.16796 25.35362,10.37707 z m -8.94437,38.94061 c 12.01801,-23.64929 -6.05742,-36.50611 -15.22491,-28.97343 -1.59435,1.31003 -2.75472,6.53725 -3.50038,10.3711 2.67892,-7.00603 22.71208,-3.07467 18.72529,18.60233 z m -23.88182,32.20425 c 21.57408,-17.35179 9.23813,-34.75118 0.17641,-33.89584 -2.6666,0.2517 -6.57051,5.22971 -9.15743,8.68515 6.90118,-5.34902 21.65906,8.27072 8.98102,25.21069 z m -39.50203,17.93942 c 32.03889,0.40128 31.65502,-31.77563 17.55159,-30.08833 -2.05652,0.24603 -6.99907,2.54203 -8.41001,2.87554 9.21722,-1.67309 15.06923,22.08668 -9.14158,27.21279 z M 95.31062,235.16166 c 10.61124,5.34739 -4.96034,33.33663 -30.36045,9.27337 18.307398,11.02381 26.696286,-3.05492 21.95044,-12.14891 1.326592,0.0348 6.048484,1.98448 8.41001,2.87554 z M 73.93119,219.22434 c 5.43094,13.70269 -20.8312,22.7513 -32.86284,-6.99356 13.2781,16.9168 29.20962,11.951 23.70541,-1.69159 2.700384,0.41171 6.581243,5.08661 9.15743,8.68515 z M 59.79364,193.62845 c -1.75466,13.28492 -26.49991,13.91845 -27.66966,-20.33828 2.294094,15.45325 22.974705,25.09806 24.16928,9.96718 1.914258,2.18697 2.738664,6.69924 3.50038,10.3711 z M 57.4776,162.9131 c -8.60596,11.27965 -30.98454,-4.22965 -15.77789,-31.13371 -4.960758,13.81052 7.728136,32.54381 16.65093,19.92638 0.763473,2.12025 0.240574,6.92007 -0.87304,11.20733 z m 11.12167,-28.57021 c -9.164741,7.73881 -28.9031,-14.07949 -0.9964,-34.633527 -11.203804,12.014317 -7.140744,32.447647 6.57037,25.669307 -0.241606,3.14865 -2.520457,6.3858 -5.57397,8.96422 z M 87.286754,56.548812 c -9.35793,7.269112 -21.80226,22.136475 17.384096,24.559512 -35.092266,6.266475 -26.00046,36.492546 -13.55107,31.813576 2.717805,-1.02145 7.408964,-3.28102 8.3995,-5.68162 C 82.236062,108.62426 88.132191,86.793297 105,81.064449 79.015014,70.954536 89.876894,62.063309 87.286754,56.548812 Z m 71.178756,-6.537406 c -11.09821,-13.652007 -44.53794,-4.324484 -35.83584,6.203195 5.32712,-7.707148 19.41471,-4.609751 25.84829,2.742913 2.25593,-3.425671 6.39477,-7.191494 9.98755,-8.946108 z"
         id="path4535" />
    </g>
  </g>
  <g
     inkscape:groupmode="layer"
     id="layer5"
     inkscape:label="stars"
     sodipodi:insensitive="true">
    <g
       id="g4583"
       style="fill:#ffffff">
      <path
         sodipodi:nodetypes="ccccccccccc"
         inkscape:connector-curvature="0"
         id="path4550"
         d="m 92.402511,126.13807 -0.649891,-2.4814 2.067832,1.71334 2.481398,-1.83151 -0.886214,3.07221 1.772428,1.94967 -2.363237,-0.35448 -0.945293,2.12691 -0.945296,-2.54048 h -2.304155 z"
         style="stroke-width:0.25;stroke-linecap:round;stroke-linejoin:round" />
      <path
         inkscape:connector-curvature="0"
         id="path4555"
         d="m 63.748279,168.14458 1.536105,-1.65427 -0.59081,-2.00875 2.126912,1.12254 1.595183,-1.18162 -0.590809,2.18599 1.595186,1.18162 -2.126914,0.0591 -0.70897,2.59956 -0.886214,-2.59956 z"
         style="stroke-width:0.25;stroke-linecap:round;stroke-linejoin:round" />
      <path
         inkscape:connector-curvature="0"
         id="path4557"
         d="m 84.840156,173.40278 1.89059,-0.9453 -0.413567,-1.65426 1.831506,0.88621 3.131289,-1.18162 -1.240698,3.01313 c 0,0 2.304153,1.94967 2.008749,1.83151 -0.295405,-0.11817 -2.599558,-0.70898 -2.599558,-0.70898 l -0.827133,2.12692 -1.181618,-2.65864 z"
         style="stroke-width:0.25;stroke-linecap:round;stroke-linejoin:round" />
      <path
         inkscape:connector-curvature="0"
         id="path4563"
         d="m 124.6016,220.90381 0.47264,-2.30415 -1.89059,-1.29978 2.89497,-0.17725 0.82713,-2.54047 0.59081,2.54047 2.30415,0.17725 -1.89058,1.29978 0.35448,2.00875 -1.89059,-1.06346 z"
         style="stroke-width:0.25;stroke-linecap:round;stroke-linejoin:round" />
      <path
         inkscape:connector-curvature="0"
         id="path4567"
         d="m 144.74818,173.22553 -1.18162,-2.71772 -2.42232,-0.35448 1.83151,-1.18162 -1.29978,-2.7768 2.65864,1.71334 3.13129,-2.06783 -1.12254,3.84026 c 0,0 1.94967,1.29978 1.59519,1.29978 -0.35449,0 -2.24508,-0.23632 -2.24508,-0.23632 z"
         style="stroke-width:0.25;stroke-linecap:round;stroke-linejoin:round" />
    </g>
    <g
       id="g4576"
       style="fill:url(#linearGradient4639)">
      <path
         inkscape:connector-curvature="0"
         id="path4552"
         d="m 75.741701,148.82513 -0.413568,-2.65864 2.245075,1.8315 3.013125,-0.88621 -1.772428,3.07221 1.713346,2.42231 -2.71772,-1.00437 -1.299779,2.42231 -0.413568,-3.24945 -2.540478,-1.00437 z"
         style="stroke-width:0.25;stroke-linecap:round;stroke-linejoin:round" />
      <path
         inkscape:connector-curvature="0"
         id="path4559"
         d="m 70.010853,186.9323 1.181618,-2.18599 -1.772425,-2.30416 3.013125,0.9453 1.890588,-2.59956 0.177242,3.54485 1.890588,1.00438 -1.713346,0.64989 0.118163,2.30415 -2.06783,-2.12691 z"
         style="stroke-width:0.25;stroke-linecap:round;stroke-linejoin:round" />
      <path
         inkscape:connector-curvature="0"
         id="path4561"
         d="m 105.04582,229.94319 1.94967,-1.29978 -0.59081,-2.30416 2.24508,1.59519 2.12691,-1.2407 -1.00438,2.36323 2.00875,1.53611 -2.59956,-0.11817 -1.00437,2.24508 -0.9453,-2.4814 z"
         style="stroke-width:0.25;stroke-linecap:round;stroke-linejoin:round" />
      <path
         inkscape:connector-curvature="0"
         id="path4565"
         d="m 140.08079,201.40712 -1.12254,-2.65864 -2.54048,-0.47265 2.06783,-1.00438 -0.47264,-3.01312 2.06783,1.89059 2.7768,-1.41794 -1.06346,3.30853 c 0,0 2.00875,1.18161 1.71335,1.2407 -0.29541,0.0591 -2.36324,0 -2.36324,0 z"
         style="stroke-width:0.25;stroke-linecap:round;stroke-linejoin:round" />
      <path
         inkscape:connector-curvature="0"
         id="path4569"
         d="m 122.82917,138.66321 -0.41357,-3.30853 -2.7768,-1.35886 2.71772,-0.88621 -0.17724,-2.42232 1.59518,2.186 3.60394,-1.29978 -2.12692,3.24944 1.65427,2.12692 -2.42232,-0.76805 z"
         style="stroke-width:0.25;stroke-linecap:round;stroke-linejoin:round" />
    </g>
    <path
       id="path4633"
       style="fill:#ffffff;stroke-width:0.25;stroke-linecap:round;stroke-linejoin:round"
       d="m 105.22312,40.67756 3.51532,2.067829 -0.11819,3.810719 -3.36761,2.126911 -3.24944,-2.215534 0.0295,-3.722095 z m -4.54926,6.705679 4.57876,2.658642 4.69693,-2.865424 -0.0591,-5.287741 -4.72647,-2.599557 -4.51969,2.658639 z m -5.050048,1.140674 c 0.258619,0.891048 0.774119,1.872562 1.585284,2.598092 L 97.7822,50.637629 c -0.594094,-0.526813 -1.219849,-1.58111 -1.479915,-2.386048 z m 1.634361,-2.4274 c 0.257314,1.420515 1.505392,3.58225 2.816087,4.582208 l 0.53617,-0.54834 c -1.354996,-1.076698 -2.35739,-2.783355 -2.645692,-4.168925 z m 8.296017,-2.053731 -10.395852,6.097223 0.42042,0.610028 10.172472,-6.07056 z m -8.349962,-5.813717 c -0.642361,0.669495 -1.234629,1.606692 -1.457374,2.671946 l 0.706034,0.254135 c 0.159186,-0.777907 0.759359,-1.846979 1.326426,-2.474672 z m 2.919362,0.201698 c -1.101536,0.933099 -2.349616,3.094837 -2.560256,4.729916 l 0.74296,0.19017 c 0.25495,-1.711818 1.23176,-3.433249 2.287546,-4.375711 z m 5.25339,5.966502 -9.805066,-5.763266 -0.31809,0.669109 9.670286,5.583143 z m 8.18987,6.704709 c 0.64236,-0.669495 1.23462,-1.606692 1.45737,-2.671946 l -0.70603,-0.254135 c -0.15919,0.777907 -0.75936,1.846979 -1.32643,2.474672 z m -2.91937,-0.201698 c 1.10154,-0.933099 2.34962,-3.094837 2.56026,-4.729916 l -0.74296,-0.19017 c -0.25495,1.711818 -1.23176,3.433248 -2.28755,4.375711 z m -5.63742,-6.114204 10.1891,5.910968 0.31809,-0.669109 -10.05432,-5.730845 z m -1.39695,10.321996 c 0.90098,0.221553 2.00875,0.265874 3.04266,-0.07385 l -0.13293,-0.738511 c -0.75328,0.251094 -1.97921,0.265865 -2.80634,0.08862 z M 102.3281,52.47897 c 1.35886,0.487417 3.85502,0.487417 5.37636,-0.147704 l -0.20679,-0.73851 c -1.60995,0.63512 -3.58916,0.649889 -4.93325,0.206782 z m 2.52568,-7.990693 -0.0738,11.830949 0.73851,-0.05908 -0.0148,-11.624164 z m 10.14578,-3.76977 c -0.25862,-0.891048 -0.77413,-1.872566 -1.58529,-2.598096 l -0.5731,0.484376 c 0.59409,0.526813 1.21985,1.581114 1.47991,2.386052 z m -1.63436,2.4274 c -0.25732,-1.420516 -1.5054,-3.582254 -2.8161,-4.582212 l -0.53617,0.54834 c 1.355,1.076698 2.3574,2.783359 2.6457,4.168929 z m -8.04493,1.787867 10.14476,-5.831359 -0.42042,-0.610029 -9.92137,5.804697 z m 1.39458,-10.60741 c -0.90098,-0.221553 -2.00875,-0.265874 -3.04266,0.07385 l 0.13293,0.738511 c 0.75328,-0.251094 1.97921,-0.265865 2.80634,-0.08862 z m 1.28501,2.629098 c -1.35886,-0.487417 -3.85502,-0.487417 -5.37636,0.147704 l 0.20679,0.73851 c 1.60995,-0.63512 3.58916,-0.649889 4.93325,-0.206782 z m -2.52568,7.82822 0.0738,-11.668476 -0.73851,0.05908 0.0148,11.461691 z"
       inkscape:connector-curvature="0"
       sodipodi:nodetypes="cccccccccccccccccccccccccccccccccccccccccccccccccccccccccccccccccccccccccccccccccccccccccccccccccccccccc" />
  </g>
  <g
     inkscape:groupmode="layer"
     id="layer6"
     inkscape:label="angels"
     sodipodi:insensitive="true">
    <g
       id="g4722">
      <path
         sodipodi:nodetypes="ccccc"
         inkscape:connector-curvature="0"
         id="path4644"
         d="m 83.637652,220.55946 -0.39268,-18.32521 1.890588,-0.35449 0.124715,16.6089 c -0.484505,0.27555 -1.213879,1.36904 -1.622623,2.0708 z"
         style="fill:url(#linearGradient4639);stroke-width:0.25;stroke-linecap:round;stroke-linejoin:round" />
      <path
         sodipodi:nodetypes="csscsscc"
         inkscape:connector-curvature="0"
         id="path4646"
         d="m 84.824644,219.2226 c -0.01045,0.68931 0.03811,0.86107 0.03385,1.01308 -0.01044,0.376 0.565043,0.36449 0.584871,1.47263 0.02038,1.13898 -0.744068,1.61302 -0.567567,3.75629 -0.375989,-1.5875 -1.499989,-1.80234 -1.316702,-3.28452 0.161288,-1.30428 1.153182,-1.53708 1.17407,-1.91306 0.01043,-0.1877 -0.03133,-1.03397 -0.03133,-1.03397 z"
         style="fill:#ffffff;stroke-width:0.125;stroke-linecap:round;stroke-linejoin:round" />
      <path
         inkscape:connector-curvature="0"
         d="m 91.250433,204.12484 c 0.04431,-1.63949 1.698576,-1.04869 3.146057,-1.41794 -0.502188,-0.42834 -3.958419,-1.04869 -3.146057,1.41794 z m 0.651,-3.90442 c 1.056777,-1.50514 0.397199,-3.2095 0.604468,-3.90903 0.354485,-1.19639 1.23888,-2.45915 1.81674,-2.59956 1.128462,-0.2742 2.614326,0.3988 3.766406,1.12254 -1.27024,-1.3441 -2.972431,-1.71691 -3.840258,-1.5361 -0.64009,0.13336 -2.114153,2.12666 -2.230305,3.10174 -0.152999,1.2844 0.445329,1.48162 -0.117051,3.82041 z m 4.059181,-2.67982 c 0.219328,-0.48043 0.981747,-0.24022 1.117521,0.0522 -0.449097,0.48043 -0.950414,0.29244 -1.117521,-0.0522 z m -2.537923,0.59531 c -0.03133,-0.54309 0.647538,-0.69975 0.90864,-0.27154 0.094,0.34466 -0.689311,0.63709 -0.90864,0.27154 z m 0.988571,-1.7359 c 0.104874,-0.16933 0.297938,-0.13656 0.384024,-0.0148 -0.06535,0.0904 -0.27467,0.13114 -0.384024,0.0148 z m -0.310177,-0.67943 c -0.07385,-1.06345 0.768052,-1.06345 1.28501,-0.5465 -0.398796,0.66466 -0.797592,0.5465 -1.28501,0.5465 z m -9.674494,2.52571 c 2.437086,-0.75328 3.884567,-3.05744 3.943649,-3.41192 1.491792,0.13293 3.36761,0.2954 4.00273,-0.47265 -1.3884,0.0443 -3.648244,-0.48741 -4.239055,-0.0443 -0.886211,1.60995 -3.692555,3.44146 -3.707324,3.92888 z m -1.709127,-1.76055 c 1.775503,-5.11761 5.577163,-7.87487 10.590341,-7.14378 -4.156759,-0.0836 -7.874868,2.25593 -10.590341,7.14378 z m 10e-7,0.12533 c 0.07311,0.57443 -0.0209,1.02353 -0.03133,1.20108 -0.793752,0.90863 -1.336847,2.53792 -0.219327,3.9061 -2.611033,-1.7755 -0.250657,-4.53275 0.250657,-5.10718 z m 1.326403,2.37082 c -0.83553,-0.38643 -1.775499,-1.12797 -1.650172,-1.44129 0.323769,-0.28199 1.169743,0.7102 1.650172,1.44129 z m -0.981747,0.3551 c 1.096634,0.79375 2.193267,-0.0104 1.639726,-0.72064 -0.08355,0.65797 -0.88775,0.86686 -1.639726,0.72064 z m 0.501317,0.93997 c 0.569232,0.59142 2.312809,-0.25047 1.61884,-0.59531 -0.553537,0.69975 -1.242849,0.53265 -1.61884,0.59531 z m 0.19844,0.95042 c 1.138408,0.12533 1.54573,-0.60577 2.047047,-0.76243 -0.344654,-0.18799 -1.483065,0.62666 -2.047047,0.76243 z m -1.065303,0.64753 c 0.689314,0.69976 2.120156,0.73109 3.509228,-1.05486 0.0836,-0.10748 -0.111354,-0.24671 -0.219325,-0.12532 -1.765056,1.98438 -2.652811,1.14885 -3.289903,1.18018 z"
         style="fill:#ffffff;stroke-width:0.12499999;stroke-linecap:round;stroke-linejoin:round"
         id="path4674" />
      <path
         sodipodi:nodetypes="cccccccccccccccccccccccccccccccccccccccccccccccccccccccccccccccccccccccccccccccccccccccccccccccccccc"
         inkscape:connector-curvature="0"
         d="m 86.42057,219.39725 -0.206782,-0.19201 1.255469,-1.75766 0.147701,0.13293 z m 0.827132,0.53173 -0.236323,-0.20679 1.32932,-1.27024 0.132932,0.14771 z m 0.428337,0.82713 -0.147701,-0.22155 1.388401,-0.93053 0.07385,0.20678 z m 0.192013,0.91575 -0.04431,-0.22155 1.550871,-0.51696 0.05908,0.19201 z m 0.05908,0.98961 -0.05908,-0.16248 1.506562,-0.35448 -0.02954,0.17724 z m 1.949669,1.07822 H 87.77943 v -0.20678 l 2.053061,-0.0295 z m -0.6942,1.28501 -1.477023,-0.53172 0.05908,-0.19202 1.550874,0.57604 z m -0.457877,1.32932 -1.181619,-0.78282 0.08862,-0.1477 1.166847,0.81236 z m -0.723742,1.41795 -0.871442,-1.47703 0.177242,-0.13293 0.871442,1.5361 z m -1.609955,1.43271 -0.398796,-2.23031 0.295405,-0.10339 0.398796,2.28939 z m -1.669034,0.17724 0.01476,-2.11214 0.221554,-0.0443 0.02954,2.18599 z m -1.40317,-0.0148 0.369255,-2.31893 0.177242,0.0739 -0.310174,2.31893 z m -1.329322,-0.79759 1.211159,-1.99398 0.08862,0.11816 -1.137308,1.99398 z m -0.73851,-1.6395 1.417941,-1.10776 0.132932,0.13293 -1.43271,1.16684 z m -0.502187,-1.50656 1.654265,-0.5465 0.05908,0.17724 -1.683806,0.57604 z m -0.354486,-1.49179 1.861047,-0.16248 v 0.2511 l -1.846276,0.1477 z m 1.728115,-1.07823 -1.787197,-0.48742 -0.07385,0.22156 1.831506,0.42833 z m 0.295405,-1.13731 -1.388401,-0.79759 -0.147701,0.23633 1.477023,0.76805 z m 0.221554,-0.96006 -0.989605,-1.50656 -0.206783,0.17724 1.078225,1.56564 z m 0.487418,-0.97484 -0.649891,-1.25547 -0.177242,0.0886 0.635119,1.34409 z"
         style="fill:#ffffff;stroke-width:0.12499999;stroke-linecap:round;stroke-linejoin:round"
         id="path4714" />
      <path
         style="fill:#ffffff;stroke-width:0.12499999;stroke-linecap:round;stroke-linejoin:round"
         d="m 93.224254,205.67657 c -2.316497,-0.1595 -0.605759,-3.07057 -0.605759,-3.07057 l 0.793753,-0.0209 c 0,0 -1.727427,2.37069 -0.187994,3.09147 z"
         id="path4726"
         inkscape:connector-curvature="0"
         sodipodi:nodetypes="cccc" />
      <path
         style="fill:#ffffff;stroke-width:0.12499999;stroke-linecap:round;stroke-linejoin:round"
         d="m 95.327014,202.33764 c 0.132932,-2.31892 -3.30853,-2.11218 -2.776802,0.1477 0.103394,0.11816 0.443108,0.3988 0.457877,0 -0.192023,-1.49179 1.92013,-1.81674 2.318925,-0.1477 z"
         id="path4728"
         inkscape:connector-curvature="0"
         sodipodi:nodetypes="cccc" />
      <path
         style="fill:#ffffff;stroke-width:0.12499999;stroke-linecap:round;stroke-linejoin:round"
         d="m 96.242768,201.54005 c -0.369256,-2.42231 -3.219909,-1.75766 -3.175598,-0.5465 0.0076,0.20664 1.16341,0.11937 1.033915,-0.16247 -0.251094,-0.5465 1.624726,-0.67943 2.141683,0.70897 z"
         id="path4730"
         inkscape:connector-curvature="0"
         sodipodi:nodetypes="cssc" />
      <path
         style="fill:#ffffff;stroke-width:0.12499999;stroke-linecap:round;stroke-linejoin:round"
         d="m 96.3757,201.18556 c 0.413568,0.50219 1.255469,0 2.126912,1.69858 -0.01477,-0.63512 -0.324944,-1.2407 -0.620348,-1.58041 0.797593,-0.44311 1.048683,1.10776 1.536102,1.55087 0.295406,-2.30416 -1.772427,-3.01313 -3.042666,-1.66904 z"
         id="path4732"
         inkscape:connector-curvature="0"
         sodipodi:nodetypes="ccccc" />
      <path
         style="fill:#ffffff;stroke-width:0.12499999;stroke-linecap:round;stroke-linejoin:round"
         d="m 95.489486,204.21346 c -1.38859,0.12641 -1.624723,2.2303 -0.265864,2.7768 -1.019144,-0.97484 -0.295403,-2.33368 0.236324,-2.378 0.280054,-0.0233 0.177369,-0.41226 0.02954,-0.3988 z"
         id="path4734"
         inkscape:connector-curvature="0"
         sodipodi:nodetypes="scss" />
      <path
         style="fill:#ffffff;stroke-width:0.12499999;stroke-linecap:round;stroke-linejoin:round"
         d="m 97.394846,207.74354 c -2.570018,0.0443 -2.230303,-2.21553 -1.713347,-2.82111 0.261928,-0.30683 0.641045,-0.0335 0.531728,0.22155 -0.310174,0.72375 -0.443108,2.25985 1.181619,2.59956 z"
         id="path4736"
         inkscape:connector-curvature="0"
         sodipodi:nodetypes="cssc" />
      <path
         style="fill:#ffffff;stroke-width:0.12499999;stroke-linecap:round;stroke-linejoin:round"
         d="m 96.892658,205.72002 c -1.394371,1.94328 1.388401,3.8698 2.791571,1.66904 -1.270238,1.18162 -2.968815,0.0295 -2.245072,-1.59519 0.126354,-0.28365 -0.37558,-0.31205 -0.546499,-0.0738 z"
         id="path4738"
         inkscape:connector-curvature="0"
         sodipodi:nodetypes="scss" />
      <path
         style="fill:#ffffff;stroke-width:0.12499999;stroke-linecap:round;stroke-linejoin:round"
         d="m 99.220435,196.32977 c 1.976975,1.40187 1.317995,2.54013 0.395398,2.32446 0.766827,1.1742 2.372377,-1.29403 -0.395398,-2.32446 z"
         id="path4740"
         inkscape:connector-curvature="0"
         sodipodi:nodetypes="ccc" />
      <path
         style="fill:#ffffff;stroke-width:0.12499999;stroke-linecap:round;stroke-linejoin:round"
         d="m 100.70617,197.09661 c -0.14379,-0.63504 0.27557,-0.47927 0.47926,-0.35946 0.024,0.49125 -0.17972,0.40738 -0.47926,0.35946 z"
         id="path4742"
         inkscape:connector-curvature="0" />
      <path
         style="fill:#ffffff;stroke-width:0.12499999;stroke-linecap:round;stroke-linejoin:round"
         d="m 101.06562,198.01919 c 0,-0.7189 0.56314,-0.8507 0.92259,-0.62304 -0.20369,0.27557 -0.51521,0.62304 -0.92259,0.62304 z"
         id="path4744"
         inkscape:connector-curvature="0" />
      <path
         style="fill:#ffffff;stroke-width:0.12499999;stroke-linecap:round;stroke-linejoin:round"
         d="m 100.03519,200.09203 c 0.29954,0.41936 0.94655,0.81475 1.00646,0.80277 0.0599,-0.012 0.15577,-0.17972 0.0359,-0.26359 -0.11982,-0.0839 -0.64701,-0.57513 -0.73088,-0.68296 -0.0839,-0.10784 -0.407381,-0.012 -0.31153,0.14378 z"
         id="path4746"
         inkscape:connector-curvature="0" />
      <path
         style="fill:#ffffff;stroke-width:0.12499999;stroke-linecap:round;stroke-linejoin:round"
         d="m 100.21492,198.82197 c 0.0599,-0.14378 0.43134,-0.59909 0.4553,-0.46729 0.024,0.1318 0.0719,0.3954 0.048,0.67098 0.64701,-0.20369 1.42582,0.43134 1.77329,1.11429 -0.56314,-0.21567 -1.40186,-0.92258 -1.64149,-0.82673 -0.15577,0.25161 0.88664,0.81475 0.8986,1.22213 -1.11431,-0.55116 -1.749347,-0.89862 -1.53367,-1.71338 z"
         id="path4748"
         inkscape:connector-curvature="0"
         sodipodi:nodetypes="ccccccc" />
      <path
         style="fill:#ffffff;stroke-width:0.12499999;stroke-linecap:round;stroke-linejoin:round"
         d="m 101.11354,201.92523 c 2.38436,0.70692 1.65348,2.92353 2.21662,2.92353 0.85069,-2.57607 -2.00095,-3.95395 -2.21662,-2.92353 z"
         id="path4750"
         inkscape:connector-curvature="0"
         sodipodi:nodetypes="ccc" />
      <path
         style="fill:#ffffff;stroke-width:0.12499999;stroke-linecap:round;stroke-linejoin:round"
         d="m 101.12553,206.82574 c -0.10784,-0.69494 1.54564,-0.94655 0.29954,-3.18713 0.7189,-0.92259 3.05533,2.37238 -0.29954,3.18713 z"
         id="path4752"
         inkscape:connector-curvature="0"
         sodipodi:nodetypes="ccc" />
      <path
         style="fill:#ffffff;stroke-width:0.12499999;stroke-linecap:round;stroke-linejoin:round"
         d="m 104.45644,204.51328 c 0.53918,-0.17973 1.22213,0.34746 1.09034,0.69493 -0.61107,-0.47927 -1.0544,-0.31152 -1.09034,-0.69493 z"
         id="path4754"
         inkscape:connector-curvature="0"
         sodipodi:nodetypes="ccc" />
      <path
         style="fill:#ffffff;stroke-width:0.12499999;stroke-linecap:round;stroke-linejoin:round"
         d="m 104.14491,205.17227 c -0.14377,0.49125 0.99449,1.44978 1.70141,2.10878 0.33548,-0.81476 -0.87467,-1.85717 -1.70141,-2.10878 z"
         id="path4756"
         inkscape:connector-curvature="0"
         sodipodi:nodetypes="ccc" />
      <path
         style="fill:#ffffff;stroke-width:0.12499999;stroke-linecap:round;stroke-linejoin:round"
         d="m 104.46842,206.66998 c 1.42582,0.56314 2.12076,2.37237 1.66545,3.88207 -0.57311,-0.39777 -0.69765,-2.32352 -1.21762,-2.84959 -0.31355,-0.31724 -0.44503,-0.95978 -0.44783,-1.03248 z"
         id="path4758"
         inkscape:connector-curvature="0"
         sodipodi:nodetypes="ccsc" />
      <path
         style="fill:#ffffff;stroke-width:0.12499999;stroke-linecap:round;stroke-linejoin:round"
         d="m 106.13387,214.86546 c -0.82673,-0.73088 -0.8507,-4.43322 -2.34841,-5.8231 -0.14957,-0.1388 0.14089,-0.61287 0.41936,-0.41936 1.41384,0.9825 2.14473,3.45073 1.92905,6.24246 z"
         id="path4760"
         inkscape:connector-curvature="0"
         sodipodi:nodetypes="cssc" />
      <path
         style="fill:#ffffff;stroke-width:0.12499999;stroke-linecap:round;stroke-linejoin:round"
         d="m 101.58083,207.66446 c 1.62951,0.0479 3.73829,5.41573 3.7982,7.15307 -0.87223,-0.62604 -1.47234,-2.66273 -2.41775,-4.42848 -0.79317,-1.48143 -1.49138,-2.21933 -1.38045,-2.72459 z"
         id="path4762"
         inkscape:connector-curvature="0"
         sodipodi:nodetypes="ccsc" />
      <path
         style="fill:#ffffff;stroke-width:0.12499999;stroke-linecap:round;stroke-linejoin:round"
         d="m 103.22232,199.94825 c 0.22768,1.21015 1.85717,-0.32351 0.81476,-1.01845 0.0539,0.66498 -0.20968,1.64748 -0.81476,1.01845 z"
         id="path4764"
         inkscape:connector-curvature="0"
         sodipodi:nodetypes="ccc" />
      <path
         style="fill:#ffffff;stroke-width:0.12499999;stroke-linecap:round;stroke-linejoin:round"
         d="m 116.05411,211.42937 c 1.44029,-2.49087 -0.74557,-4.79534 -2.44003,-6.45592 1.30473,2.10114 2.88059,3.99893 2.38919,5.69341 -0.90085,-2.24995 -2.82181,-4.69205 -5.42786,-5.94043 -3.47464,-1.66446 -5.73674,-1.48009 -6.33175,-4.02304 -0.0311,-0.13302 -0.31234,-0.17056 -0.305,-0.0169 0.14307,2.99284 3.12418,2.82896 6.24988,4.50996 2.8586,1.53736 4.71202,4.12275 5.86557,6.23295 z"
         id="path4766"
         inkscape:connector-curvature="0"
         sodipodi:nodetypes="cccssssc" />
      <path
         style="fill:#ffffff;stroke-width:0.12499999;stroke-linecap:round;stroke-linejoin:round"
         d="m 116.11463,208.39535 c 0.81475,-2.0968 -0.81475,-4.08576 -2.88759,-4.98439 1.41384,1.40185 2.88759,2.91155 2.32445,4.01387 -0.012,0.23963 0.56314,0.97052 0.56314,0.97052 z"
         id="path4768"
         inkscape:connector-curvature="0"
         sodipodi:nodetypes="cccc" />
      <path
         style="fill:#ffffff;stroke-width:0.12499999;stroke-linecap:round;stroke-linejoin:round"
         d="m 111.64546,201.51785 c 2.43228,-0.4553 5.17609,2.79174 3.6664,3.48667 0.22762,-1.4378 -2.21662,-3.12722 -3.6664,-3.48667 z"
         id="path4770"
         inkscape:connector-curvature="0"
         sodipodi:nodetypes="ccc" />
      <path
         style="fill:#ffffff;stroke-width:0.12499999;stroke-linecap:round;stroke-linejoin:round"
         d="m 109.66847,199.80447 c 1.47375,-0.0719 3.283,0.3235 4.14567,1.34195 -1.55762,-0.38341 -3.11524,-1.10232 -4.14567,-1.34195 z"
         id="path4772"
         inkscape:connector-curvature="0"
         sodipodi:nodetypes="ccc" />
      <path
         style="fill:#ffffff;stroke-width:0.12499999;stroke-linecap:round;stroke-linejoin:round"
         d="m 109.96801,199.24133 c -0.012,-0.57512 1.71339,-0.17969 2.63598,0.43134 -1.13826,-0.29954 -2.44427,-0.29954 -2.63598,-0.43134 z"
         id="path4774"
         inkscape:connector-curvature="0"
         sodipodi:nodetypes="ccc" />
      <path
         style="fill:#ffffff;stroke-width:0.12499999;stroke-linecap:round;stroke-linejoin:round"
         d="m 109.36893,197.37218 c 0.012,0.55116 1.79725,0.53918 2.88759,1.07836 -0.14378,-0.95854 -2.26454,-1.40186 -2.88759,-1.07836 z"
         id="path4776"
         inkscape:connector-curvature="0"
         sodipodi:nodetypes="ccc" />
      <path
         style="fill:#ffffff;stroke-width:0.12499999;stroke-linecap:round;stroke-linejoin:round"
         d="m 109.46479,196.55743 c -0.27558,-0.88665 1.79725,-0.27558 1.94103,0.15576 -0.78286,-0.0757 -1.74933,-0.024 -1.94103,-0.15576 z"
         id="path4778"
         inkscape:connector-curvature="0"
         sodipodi:nodetypes="ccc" />
      <path
         style="fill:#ffffff;stroke-width:0.12499999;stroke-linecap:round;stroke-linejoin:round"
         d="m 109.29704,195.62285 c 0.15576,-0.69493 1.30601,-0.73088 1.41384,-0.14378 -0.38341,0.14379 -0.89862,0.0479 -1.41384,0.14378 z"
         id="path4780"
         inkscape:connector-curvature="0"
         sodipodi:nodetypes="ccc" />
      <path
         style="fill:#ffffff;stroke-width:0.12499999;stroke-linecap:round;stroke-linejoin:round"
         d="m 100.21492,195.41917 c 1.24609,-0.86268 4.37332,-0.0599 4.56502,-1.61753 -2.04887,-0.19171 -4.70881,0.37143 -4.56502,1.61753 z"
         id="path4782"
         inkscape:connector-curvature="0"
         sodipodi:nodetypes="ccc" />
      <path
         style="fill:#ffffff;stroke-width:0.12499999;stroke-linecap:round;stroke-linejoin:round"
         d="m 106.66107,194.13712 c -0.87466,-0.2636 -2.32445,0.75485 -1.90509,3.06732 0.0359,-2.76778 2.07283,-2.50417 1.90509,-3.06732 z"
         id="path4784"
         inkscape:connector-curvature="0"
         sodipodi:nodetypes="ccc" />
      <path
         style="fill:#ffffff;stroke-width:0.12499999;stroke-linecap:round;stroke-linejoin:round"
         d="m 105.422,197.31517 c -0.024,-0.35945 0.12602,-1.09975 0.40035,-1.12918 0.56195,-0.0603 0.14487,1.30601 0.25161,1.50969 0.40426,-0.15228 0.35969,-1.78026 -0.10783,-1.76131 -0.51626,0.0209 -0.64701,0.87467 -0.57512,1.40186 -0.012,0.53917 -0.7908,0.77881 -0.63503,-0.13179 -0.29954,0.94655 0.79781,0.93748 0.66602,0.11073 z"
         id="path4786"
         inkscape:connector-curvature="0"
         sodipodi:nodetypes="cscsccc" />
      <path
         style="fill:#ffffff;stroke-width:0.12499999;stroke-linecap:round;stroke-linejoin:round"
         d="m 105.21128,198.98971 c 1.0757,0.12539 2.74366,-0.63619 3.37884,-1.82122 -0.50453,0.52344 -1.72667,1.36361 -2.38436,1.53366 -0.0479,-0.11382 -0.0539,-0.2636 0.012,-0.46728 -0.22765,0.31152 -0.54128,0.59537 -0.68296,0.44332 -0.29559,-0.31721 0.35552,-0.73088 0.47927,-0.94656 -0.52114,0.3396 -0.89102,0.74673 -0.80279,1.25808 z"
         id="path4788"
         inkscape:connector-curvature="0"
         sodipodi:nodetypes="ccccscc" />
      <path
         style="fill:#ffffff;stroke-width:0.12499999;stroke-linecap:round;stroke-linejoin:round"
         d="m 107.36149,196.90778 c 0.004,-0.0803 0.27051,-0.0848 0.26264,-0.0169 -0.0274,0.23606 -0.63543,1.27085 -0.56765,1.51655 0.027,0.098 -0.36431,0.28806 -0.38973,0.18637 0.47446,-0.60156 0.65236,-0.87267 0.69474,-1.68602 z"
         id="path4790"
         inkscape:connector-curvature="0"
         sodipodi:nodetypes="ssscs" />
      <path
         style="fill:#ffffff;stroke-width:0.12499999;stroke-linecap:round;stroke-linejoin:round"
         d="m 108.59012,197.16849 c 0.0592,-1.26044 -0.5339,-2.34491 -0.83891,-2.98881 1.25391,-3.15171 4.84618,-2.82976 3.59227,-6.91343 -4.32088,-0.54222 -6.72703,3.08393 -8.54011,2.74504 1.0581,-0.41118 1.79274,-1.34417 3.00251,-2.16073 1.21167,-0.81784 4.09478,-1.39091 5.63927,-0.78764 1.33352,0.52087 1.4178,3.24187 -0.0177,4.3096 -1.22396,0.9104 -2.54515,2.02234 -3.40515,2.858 0.66084,0.91502 0.86446,1.94477 0.56779,2.93797 z"
         id="path4792"
         inkscape:connector-curvature="0"
         sodipodi:nodetypes="ccccssscc" />
      <path
         style="fill:#ffffff;stroke-width:0.12499999;stroke-linecap:round;stroke-linejoin:round"
         d="m 105.86659,194.37175 c -0.30195,-3.03892 2.28222,-4.83491 2.14666,-5.61436 -3.0266,1.18571 -2.19511,4.58389 -2.55074,5.89614 -0.0394,0.14525 0.32082,-0.0919 0.40408,-0.28178 z"
         id="path4794"
         inkscape:connector-curvature="0"
         sodipodi:nodetypes="ccsc" />
      <path
         style="fill:#ffffff;stroke-width:0.12499999;stroke-linecap:round;stroke-linejoin:round"
         d="m 93.313458,190.0274 c 2.387412,0.11374 4.123941,-5.21847 8.414972,-6.8545 2.73887,-1.04425 5.70234,-0.76192 7.88014,0.93554 -1.42794,-2.41043 -5.49368,-2.99143 -8.09972,-1.9566 -2.729579,1.08389 -5.221111,6.11073 -8.195392,7.87556 z"
         id="path4796"
         inkscape:connector-curvature="0"
         sodipodi:nodetypes="cscsc" />
      <path
         style="fill:#ffffff;stroke-width:0.12499999;stroke-linecap:round;stroke-linejoin:round"
         d="m 104.10811,184.44497 c 0.52528,-0.25417 1.29627,0.36431 1.24543,0.95737 -0.59307,-0.0169 -1.20307,-0.55917 -1.24543,-0.95737 z"
         id="path4798"
         inkscape:connector-curvature="0"
         sodipodi:nodetypes="ccc" />
      <path
         style="fill:#ffffff;stroke-width:0.12499999;stroke-linecap:round;stroke-linejoin:round"
         d="m 118.75076,189.094 c -0.88838,1.15924 -5.31946,0.94255 -6.43536,0.31419 -0.31418,-0.20585 -0.0758,-0.71504 -0.0758,-0.71504 1.35423,0.32502 4.66942,0.56336 6.51118,0.40085 z"
         id="path4566"
         inkscape:connector-curvature="0"
         sodipodi:nodetypes="cccc" />
      <path
         style="fill:#ffffff;stroke-width:0.12499999;stroke-linecap:round;stroke-linejoin:round"
         d="m 117.68904,189.49486 c 0.85587,0.49835 0.91056,1.07278 0.7367,1.47341 -0.24918,0.5742 0.24301,1.03165 0.92089,0.91005 2.64782,-0.47496 2.4918,1.10506 3.43436,0.78005 -0.59587,-0.99673 -2.24066,-1.54233 -3.5427,-1.09423 -0.57449,0.19771 -0.82703,-0.22385 -0.59587,-0.52003 0.54663,-0.70038 -0.15167,-1.36508 -0.31418,-1.72259"
         id="path4568"
         inkscape:connector-curvature="0"
         sodipodi:nodetypes="csscssc" />
      <path
         style="fill:#ffffff;stroke-width:0.12499999;stroke-linecap:round;stroke-linejoin:round"
         d="m 123.23601,192.24668 c 0.44419,-0.16251 0.79088,0.17334 0.78004,0.40085 -0.18417,0.16252 -0.74754,-0.0433 -0.78004,-0.40085 z"
         id="path4570"
         inkscape:connector-curvature="0"
         sodipodi:nodetypes="ccc" />
      <path
         style="fill:#ffffff;stroke-width:0.12499999;stroke-linecap:round;stroke-linejoin:round"
         d="m 123.84271,191.68331 c 0.39002,-0.18417 0.75838,0.24918 0.56337,0.48753 -0.26002,-0.065 -0.48753,-0.31418 -0.56337,-0.48753 z"
         id="path4572"
         inkscape:connector-curvature="0"
         sodipodi:nodetypes="ccc" />
      <path
         style="fill:#ffffff;stroke-width:0.12499999;stroke-linecap:round;stroke-linejoin:round"
         d="m 124.2219,191.14162 c 0.33585,0 0.85588,0.35752 0.86671,0.7367 -0.30334,0.0216 -0.81254,-0.44418 -0.86671,-0.7367 z"
         id="path4574"
         inkscape:connector-curvature="0"
         sodipodi:nodetypes="ccc" />
      <path
         style="fill:#ffffff;stroke-width:0.12499999;stroke-linecap:round;stroke-linejoin:round"
         d="m 123.03017,189.36485 c 0.6392,0.0217 1.41924,0.88839 1.70092,1.54926 -0.53086,-0.40086 -1.56008,-1.19174 -1.70092,-1.54926 z"
         id="path4576"
         inkscape:connector-curvature="0"
         sodipodi:nodetypes="ccc" />
      <path
         style="fill:#ffffff;stroke-width:0.12499999;stroke-linecap:round;stroke-linejoin:round"
         d="m 108.036,182.70198 c 4.55025,-2.31846 12.18346,0.13832 15.34085,3.81355 0.34576,0.40247 -0.0867,1.8851 -1.06172,2.81682 0.41169,-1.49508 0.80896,-2.52938 0.41169,-3.05517 -1.47341,-1.95011 -9.68554,-4.44191 -14.40914,-3.40185"
         id="path4578"
         inkscape:connector-curvature="0"
         sodipodi:nodetypes="cscsc" />
      <path
         style="fill:#ffffff;stroke-width:0.12499999;stroke-linecap:round;stroke-linejoin:round"
         d="m 114.00727,182.18069 c 1.44021,-2.02244 1.57811,-1.37893 1.99179,-1.67004 -0.13789,0.32175 -1.0725,1.77729 -1.0725,1.77729"
         id="path4580"
         inkscape:connector-curvature="0"
         sodipodi:nodetypes="ccc" />
      <path
         style="fill:#ffffff;stroke-width:0.12499999;stroke-linecap:round;stroke-linejoin:round"
         d="m 117.85296,182.22666 c 0.0766,-0.44433 0.13789,-0.41368 0.32175,-0.45965 0.18386,0.26047 -0.32175,0.45965 -0.32175,0.45965 z"
         id="path4582"
         inkscape:connector-curvature="0" />
      <path
         style="fill:#ffffff;stroke-width:0.12499999;stroke-linecap:round;stroke-linejoin:round"
         d="m 119.66081,182.20362 c 0.30335,0.0109 0.70421,-0.30335 0.62837,-0.47669 -0.15167,-0.10834 -0.43336,0.22751 -0.62837,0.47669 z"
         id="path4584"
         inkscape:connector-curvature="0"
         sodipodi:nodetypes="ccc" />
      <path
         style="fill:#ffffff;stroke-width:0.12499999;stroke-linecap:round;stroke-linejoin:round"
         d="m 119.94249,182.56114 c 0.53086,-0.13004 1.18091,-0.56337 1.07256,-0.73671 -0.29251,-0.11914 -0.85588,0.43336 -1.07256,0.73671 z"
         id="path4586"
         inkscape:connector-curvature="0"
         sodipodi:nodetypes="ccc" />
      <path
         style="fill:#ffffff;stroke-width:0.12499999;stroke-linecap:round;stroke-linejoin:round"
         d="m 119.81249,183.90455 c 0.31161,-0.40912 0.70219,-0.9297 0.91005,-1.13756 0.33585,0.0216 0.73671,-0.41169 0.82338,-0.59587 0.0482,-0.10234 0.25318,0.0133 0.17334,0.14084 -0.34907,0.55757 -1.16555,1.42927 -1.61426,1.77677"
         id="path4588"
         inkscape:connector-curvature="0"
         sodipodi:nodetypes="ccssc" />
      <path
         style="fill:#ffffff;stroke-width:0.12499999;stroke-linecap:round;stroke-linejoin:round"
         d="m 104.85082,181.8786 c 7.13154,-6.65282 10.6335,-7.14921 13.12491,-4.93091 0.31713,0.28237 0.7369,2.36054 -0.14585,4.43255 0.17782,-2.57233 -0.0893,-4.25544 -0.52989,-4.58703 -1.6076,-1.20999 -4.30029,-0.90863 -11.23577,5.23707"
         id="path4590"
         inkscape:connector-curvature="0"
         sodipodi:nodetypes="cscsc" />
    </g>
    <use
       x="0"
       y="0"
       xlink:href="#g4722"
       id="use4724"
       width="100%"
       height="100%"
       transform="matrix(-1,0,0,1,214.86242,-41.120299)" />
  </g>
</svg>
