<?xml version="1.0" encoding="UTF-8" standalone="no"?>
<!-- Created with Inkscape (http://www.inkscape.org/) -->

<svg
   xmlns:dc="http://purl.org/dc/elements/1.1/"
   xmlns:cc="http://creativecommons.org/ns#"
   xmlns:rdf="http://www.w3.org/1999/02/22-rdf-syntax-ns#"
   xmlns:svg="http://www.w3.org/2000/svg"
   xmlns="http://www.w3.org/2000/svg"
   xmlns:xlink="http://www.w3.org/1999/xlink"
   xmlns:sodipodi="http://sodipodi.sourceforge.net/DTD/sodipodi-0.dtd"
   xmlns:inkscape="http://www.inkscape.org/namespaces/inkscape"
   width="210mm"
   height="297mm"
   viewBox="0 0 210 297"
   version="1.1"
   id="svg8"
   inkscape:version="0.92.1 r15371"
   sodipodi:docname="Skyline_Drive.svg">
  <defs
     id="defs2">
    <inkscape:path-effect
       effect="skeletal"
       id="path-effect5101"
       is_visible="true"
       pattern="M 1.9472335,9.6530948e-5 C 0.99946632,-0.00956076 -0.00935554,0.70595723 6.5481697e-5,1.8930051 0.05597697,8.9378803 3.9029823,14.158038 8.8543053,16.776852 3.9030876,19.395701 0.05597617,24.615924 6.5481697e-5,31.660695 -0.01766689,33.895138 3.5719404,34.458071 3.5719404,31.660695 c 0,-6.564761 3.6839159,-11.358574 7.2848266,-13.989842 1.757704,0.64992 3.600458,0.994254 5.426542,0.994254 1.947401,0 3.061829,-1.139767 3.061829,-1.888255 0,-0.74849 -1.114428,-1.888776 -3.061829,-1.888776 -1.826084,0 -3.668838,0.344337 -5.426542,0.994257 C 7.2558563,13.251065 3.5719404,8.4577674 3.5719404,1.8930051 3.5719404,0.58173535 2.7834987,0.00861082 1.9472335,9.6530948e-5 Z M 16.283309,15.352132 c 0.915677,0 1.391646,0.653629 1.391646,1.42472 0,0.771089 -0.475969,1.424202 -1.391646,1.424202 -1.014495,0 -2.487506,-0.487905 -4.073653,-1.424202 1.586147,-0.936299 3.059158,-1.42472 4.073653,-1.42472 z"
       copytype="repeated_stretched"
       prop_scale="-1"
       scale_y_rel="false"
       spacing="-3.9"
       normal_offset="0"
       tang_offset="0"
       prop_units="false"
       vertical_pattern="true"
       fuse_tolerance="0" />
  </defs>
  <sodipodi:namedview
     id="base"
     pagecolor="#ffffff"
     bordercolor="#666666"
     borderopacity="1.0"
     inkscape:pageopacity="0.0"
     inkscape:pageshadow="2"
     inkscape:zoom="0.5010612"
     inkscape:cx="394.755"
     inkscape:cy="371.60518"
     inkscape:document-units="mm"
     inkscape:current-layer="layer4"
     showgrid="true"
     inkscape:snap-page="true"
     inkscape:snap-bbox="false"
     borderlayer="true"
     inkscape:showpageshadow="false"
     inkscape:snap-global="true"
     inkscape:bbox-paths="true"
     inkscape:pagecheckerboard="true"
     inkscape:snap-center="true"
     inkscape:snap-intersection-paths="true"
     inkscape:bbox-nodes="true"
     inkscape:snap-smooth-nodes="true"
     inkscape:object-paths="true"
     showguides="false"
     inkscape:guide-bbox="true"
     inkscape:lockguides="false">
    <sodipodi:guide
       position="-2.9999999,3.6738192e-016"
       orientation="1,0"
       id="guide5069"
       inkscape:locked="false" />
    <sodipodi:guide
       position="213,-3.6738192e-016"
       orientation="1,0"
       id="guide5071"
       inkscape:locked="false" />
    <sodipodi:guide
       position="-2.9999998,40.676662"
       orientation="0,1"
       id="guide5073"
       inkscape:locked="false" />
    <sodipodi:guide
       position="-2.9999998,67.70696"
       orientation="0,1"
       id="guide5075"
       inkscape:locked="false" />
    <sodipodi:guide
       position="0,300.00001"
       orientation="0,1"
       id="guide5108"
       inkscape:locked="false" />
    <sodipodi:guide
       position="-3.673819e-016,-3.0000001"
       orientation="0,1"
       id="guide5110"
       inkscape:locked="false" />
  </sodipodi:namedview>
  <metadata
     id="metadata5">
    <rdf:RDF>
      <cc:Work
         rdf:about="">
        <dc:format>image/svg+xml</dc:format>
        <dc:type
           rdf:resource="http://purl.org/dc/dcmitype/StillImage" />
        <dc:title></dc:title>
        <cc:license
           rdf:resource="http://creativecommons.org/publicdomain/zero/1.0/" />
        <dc:source>https://digitalcollections.nypl.org/items/af1f02d7-5641-ce42-e040-e00a18064e03</dc:source>
      </cc:Work>
      <cc:License
         rdf:about="http://creativecommons.org/publicdomain/zero/1.0/">
        <cc:permits
           rdf:resource="http://creativecommons.org/ns#Reproduction" />
        <cc:permits
           rdf:resource="http://creativecommons.org/ns#Distribution" />
        <cc:permits
           rdf:resource="http://creativecommons.org/ns#DerivativeWorks" />
      </cc:License>
    </rdf:RDF>
  </metadata>
  <g
     inkscape:groupmode="layer"
     id="layer2"
     inkscape:label="mark"
     sodipodi:insensitive="true"
     style="display:none">
    <g
       id="g4516">
      <g
         id="g4506">
        <path
           style="fill:none;stroke:#000000;stroke-width:0.2"
           d="m -12,0 h 9 v -12"
           id="path4485"
           inkscape:connector-curvature="0" />
        <use
           x="0"
           y="0"
           xlink:href="#path4485"
           id="use4502"
           width="100%"
           height="100%"
           transform="matrix(0,1,1,0,0,0)" />
      </g>
      <use
         transform="matrix(-1,0,0,1,210,0)"
         height="100%"
         width="100%"
         id="use4508"
         xlink:href="#g4506"
         y="0"
         x="0" />
      <path
         style="stroke:#000000;stroke-width:0.2"
         d="m 105,-12 v 9"
         id="path4524"
         inkscape:connector-curvature="0" />
      <path
         style="stroke:#000000;stroke-width:0.2"
         d="m 96,-6 h 18"
         id="path4548"
         inkscape:connector-curvature="0" />
      <path
         style="stroke:#000000;stroke-width:0.2"
         d="m -12,148.5 h 9"
         id="path4554"
         inkscape:connector-curvature="0" />
      <path
         style="stroke:#000000;stroke-width:0.2"
         d="M -6,159 V 138"
         id="path4556"
         inkscape:connector-curvature="0" />
    </g>
    <use
       x="0"
       y="0"
       xlink:href="#g4516"
       id="use4518"
       width="100%"
       height="100%"
       transform="rotate(-180,105,148.5)" />
  </g>
  <g
     inkscape:groupmode="layer"
     id="layer3"
     inkscape:label="white"
     sodipodi:insensitive="true">
    <rect
       style="fill:#ffffff"
       id="rect4494"
       width="210"
       height="297"
       x="0"
       y="0" />
  </g>
  <g
     inkscape:groupmode="layer"
     id="layer4"
     inkscape:label="border"
     sodipodi:insensitive="true">
    <rect
       style="fill:#302833;stroke-width:0.25;stroke-linecap:round;stroke-linejoin:round"
       id="rect5077"
       width="215.99998"
       height="27.030298"
       x="-2.9999998"
       y="229.29305" />
    <path
       style="fill:#d3cbc6;stroke-width:0.25;stroke-linecap:round;stroke-linejoin:round"
       d="m 11.956919,-2.9999118 c -0.947767,-0.00974 -1.956589,0.7118873 -1.947168,1.9090702 0.05591,7.1050243 3.902917,12.3697516 8.85424,15.0109256 -4.951217,2.641208 -8.798329,7.906002 -8.85424,15.010921 -0.017732,2.25352 3.571875,2.82126 3.571875,0 0,-6.620811 3.683916,-11.455554 7.284827,-14.109287 1.757704,0.655469 3.600458,1.002742 5.426542,1.002742 1.947401,0 3.061829,-1.149498 3.061829,-1.904376 0,-0.754881 -1.114428,-1.904903 -3.061829,-1.904903 -1.826084,0 -3.668838,0.347277 -5.426542,1.002746 -3.600911,-2.653734 -7.284827,-7.4879564 -7.284827,-14.1087686 0,-1.3224654 -0.788441,-1.9004833 -1.624707,-1.9090702 z M 26.292995,12.483199 c 0.915677,0 1.391646,0.65921 1.391646,1.436885 0,0.777672 -0.475969,1.436361 -1.391646,1.436361 -1.014495,0 -2.487506,-0.49207 -4.073653,-1.436361 1.586147,-0.944294 3.059158,-1.436885 4.073653,-1.436885 z M 11.956919,26.906765 c -0.947767,-0.0097 -1.956589,0.711887 -1.947168,1.90907 0.05591,7.105024 3.902917,12.369752 8.85424,15.010925 -4.951217,2.641209 -8.798329,7.906002 -8.85424,15.010921 -0.017732,2.253521 3.571875,2.82126 3.571875,0 0,-6.620811 3.683916,-11.455553 7.284827,-14.109287 1.757704,0.655469 3.600458,1.002743 5.426542,1.002743 1.947401,0 3.061829,-1.149498 3.061829,-1.904377 0,-0.754881 -1.114428,-1.904902 -3.061829,-1.904902 -1.826084,0 -3.668838,0.347277 -5.426542,1.002746 -3.600911,-2.653734 -7.284827,-7.487957 -7.284827,-14.108769 0,-1.322466 -0.788441,-1.900483 -1.624707,-1.90907 z m 14.336076,15.483111 c 0.915677,0 1.391646,0.659209 1.391646,1.436884 0,0.777673 -0.475969,1.436362 -1.391646,1.436362 -1.014495,0 -2.487506,-0.492071 -4.073653,-1.436362 1.586147,-0.944293 3.059158,-1.436884 4.073653,-1.436884 z M 11.956919,56.813441 c -0.947767,-0.0097 -1.956589,0.711887 -1.947168,1.90907 0.05591,7.105025 3.902917,12.369752 8.85424,15.010925 -4.951217,2.641209 -8.798329,7.906002 -8.85424,15.010922 -0.017732,2.25352 3.571875,2.82126 3.571875,0 0,-6.620811 3.683916,-11.455554 7.284827,-14.109288 1.757704,0.655469 3.600458,1.002743 5.426542,1.002743 1.947401,0 3.061829,-1.149498 3.061829,-1.904377 0,-0.75488 -1.114428,-1.904902 -3.061829,-1.904902 -1.826084,0 -3.668838,0.347277 -5.426542,1.002746 -3.600911,-2.653734 -7.284827,-7.487957 -7.284827,-14.108769 0,-1.322465 -0.788441,-1.900483 -1.624707,-1.90907 z m 14.336076,15.483111 c 0.915677,0 1.391646,0.65921 1.391646,1.436884 0,0.777673 -0.475969,1.436362 -1.391646,1.436362 -1.014495,0 -2.487506,-0.492071 -4.073653,-1.436362 1.586147,-0.944293 3.059158,-1.436884 4.073653,-1.436884 z M 11.956919,86.720117 c -0.947767,-0.0097 -1.956589,0.711888 -1.947168,1.909071 0.05591,7.105024 3.902917,12.369752 8.85424,15.010922 -4.951217,2.64121 -8.798329,7.906 -8.85424,15.01092 -0.017732,2.25352 3.571875,2.82126 3.571875,0 0,-6.62081 3.683916,-11.45555 7.284827,-14.10928 1.757704,0.65547 3.600458,1.00274 5.426542,1.00274 1.947401,0 3.061829,-1.1495 3.061829,-1.90438 0,-0.75488 -1.114428,-1.9049 -3.061829,-1.9049 -1.826084,0 -3.668838,0.34728 -5.426542,1.00275 -3.600911,-2.65374 -7.284827,-7.48796 -7.284827,-14.108772 0,-1.322466 -0.788441,-1.900484 -1.624707,-1.909071 z m 14.336076,15.483113 c 0.915677,0 1.391646,0.65921 1.391646,1.43688 0,0.77768 -0.475969,1.43636 -1.391646,1.43636 -1.014495,0 -2.487506,-0.49207 -4.073653,-1.43636 1.586147,-0.94429 3.059158,-1.43688 4.073653,-1.43688 z m -14.336076,14.42356 c -0.947767,-0.01 -1.956589,0.71189 -1.947168,1.90907 0.05591,7.10503 3.902917,12.36976 8.85424,15.01093 -4.951217,2.64121 -8.798329,7.906 -8.85424,15.01092 -0.017732,2.25352 3.571875,2.82126 3.571875,0 0,-6.62081 3.683916,-11.45555 7.284827,-14.10929 1.757704,0.65547 3.600458,1.00275 5.426542,1.00275 1.947401,0 3.061829,-1.1495 3.061829,-1.90438 0,-0.75488 -1.114428,-1.9049 -3.061829,-1.9049 -1.826084,0 -3.668838,0.34727 -5.426542,1.00274 -3.600911,-2.65373 -7.284827,-7.48795 -7.284827,-14.10877 0,-1.32246 -0.788441,-1.90048 -1.624707,-1.90907 z m 14.336076,15.48311 c 0.915677,0 1.391646,0.65921 1.391646,1.43689 0,0.77767 -0.475969,1.43636 -1.391646,1.43636 -1.014495,0 -2.487506,-0.49207 -4.073653,-1.43636 1.586147,-0.94429 3.059158,-1.43689 4.073653,-1.43689 z m -14.336076,14.42357 c -0.947767,-0.01 -1.956589,0.71189 -1.947168,1.90907 0.05591,7.10502 3.902917,12.36975 8.85424,15.01093 -4.951217,2.6412 -8.798329,7.906 -8.85424,15.01092 -0.017732,2.25352 3.571875,2.82126 3.571875,0 0,-6.62081 3.683916,-11.45556 7.284827,-14.10929 1.757704,0.65547 3.600458,1.00274 5.426542,1.00274 1.947401,0 3.061829,-1.1495 3.061829,-1.90437 0,-0.75489 -1.114428,-1.90491 -3.061829,-1.90491 -1.826084,0 -3.668838,0.34728 -5.426542,1.00275 -3.600911,-2.65373 -7.284827,-7.48796 -7.284827,-14.10877 0,-1.32246 -0.788441,-1.90048 -1.624707,-1.90907 z m 14.336076,15.48311 c 0.915677,0 1.391646,0.65921 1.391646,1.43689 0,0.77767 -0.475969,1.43636 -1.391646,1.43636 -1.014495,0 -2.487506,-0.49207 -4.073653,-1.43636 1.586147,-0.9443 3.059158,-1.43689 4.073653,-1.43689 z m -14.336076,14.42357 c -0.947767,-0.01 -1.956589,0.71188 -1.947168,1.90907 0.05591,7.10502 3.902917,12.36975 8.85424,15.01092 -4.951217,2.64121 -8.798329,7.906 -8.85424,15.01092 -0.017732,2.25352 3.571875,2.82126 3.571875,0 0,-6.62081 3.683916,-11.45555 7.284827,-14.10928 1.757704,0.65547 3.600458,1.00274 5.426542,1.00274 1.947401,0 3.061829,-1.1495 3.061829,-1.90438 0,-0.75488 -1.114428,-1.9049 -3.061829,-1.9049 -1.826084,0 -3.668838,0.34728 -5.426542,1.00275 -3.600911,-2.65374 -7.284827,-7.48796 -7.284827,-14.10877 0,-1.32247 -0.788441,-1.90049 -1.624707,-1.90907 z m 14.336076,15.48311 c 0.915677,0 1.391646,0.65921 1.391646,1.43688 0,0.77767 -0.475969,1.43636 -1.391646,1.43636 -1.014495,0 -2.487506,-0.49207 -4.073653,-1.43636 1.586147,-0.94429 3.059158,-1.43688 4.073653,-1.43688 z m -14.336076,14.42356 c -0.947767,-0.01 -1.956589,0.71189 -1.947168,1.90907 0.05591,7.10503 3.902917,12.36975 8.85424,15.01093 -4.951217,2.64121 -8.798329,7.906 -8.85424,15.01092 -0.017732,2.25352 3.571875,2.82126 3.571875,0 0,-6.62081 3.683916,-11.45555 7.284827,-14.10929 1.757704,0.65547 3.600458,1.00275 5.426542,1.00275 1.947401,0 3.061829,-1.1495 3.061829,-1.90438 0,-0.75488 -1.114428,-1.9049 -3.061829,-1.9049 -1.826084,0 -3.668838,0.34727 -5.426542,1.00274 -3.600911,-2.65373 -7.284827,-7.48795 -7.284827,-14.10877 0,-1.32246 -0.788441,-1.90048 -1.624707,-1.90907 z m 14.336076,15.48311 c 0.915677,0 1.391646,0.65921 1.391646,1.43689 0,0.77767 -0.475969,1.43636 -1.391646,1.43636 -1.014495,0 -2.487506,-0.49207 -4.073653,-1.43636 1.586147,-0.94429 3.059158,-1.43689 4.073653,-1.43689 z M 11.956919,236.2535 c -0.947767,-0.01 -1.956589,0.71189 -1.947168,1.90907 0.05591,7.10502 3.902917,12.36975 8.85424,15.01092 -4.951217,2.64121 -8.798329,7.90601 -8.85424,15.01093 -0.017732,2.25352 3.571875,2.82126 3.571875,0 0,-6.62081 3.683916,-11.45556 7.284827,-14.10929 1.757704,0.65547 3.600458,1.00274 5.426542,1.00274 1.947401,0 3.061829,-1.1495 3.061829,-1.90438 0,-0.75488 -1.114428,-1.9049 -3.061829,-1.9049 -1.826084,0 -3.668838,0.34728 -5.426542,1.00275 -3.600911,-2.65374 -7.284827,-7.48796 -7.284827,-14.10877 0,-1.32247 -0.788441,-1.90048 -1.624707,-1.90907 z m 14.336076,15.48311 c 0.915677,0 1.391646,0.65921 1.391646,1.43688 0,0.77768 -0.475969,1.43637 -1.391646,1.43637 -1.014495,0 -2.487506,-0.49207 -4.073653,-1.43637 1.586147,-0.94429 3.059158,-1.43688 4.073653,-1.43688 z m -14.336076,14.42357 c -0.947767,-0.01 -1.956589,0.71188 -1.947168,1.90907 0.05591,7.10502 3.902917,12.36975 8.85424,15.01092 -4.951217,2.64121 -8.798329,7.906 -8.85424,15.01092 -0.017732,2.25352 3.571875,2.82126 3.571875,0 0,-6.62081 3.683916,-11.45555 7.284827,-14.10928 1.757704,0.65546 3.600458,1.00274 5.426542,1.00274 1.947401,0 3.061829,-1.1495 3.061829,-1.90438 0,-0.75488 -1.114428,-1.9049 -3.061829,-1.9049 -1.826084,0 -3.668838,0.34728 -5.426542,1.00274 -3.600911,-2.65373 -7.284827,-7.48795 -7.284827,-14.10876 0,-1.32247 -0.788441,-1.90049 -1.624707,-1.90907 z m 14.336076,15.48311 c 0.915677,0 1.391646,0.65921 1.391646,1.43688 0,0.77767 -0.475969,1.43636 -1.391646,1.43636 -1.014495,0 -2.487506,-0.49207 -4.073653,-1.43636 1.586147,-0.94429 3.059158,-1.43688 4.073653,-1.43688 z"
       id="path5099"
       inkscape:connector-curvature="0"
       inkscape:path-effect="#path-effect5101"
       inkscape:original-d="M 19.682255,-3.0000092 V 300"
       sodipodi:nodetypes="cc" />
  </g>
  <g
     inkscape:groupmode="layer"
     id="layer5"
     inkscape:label="text"
     sodipodi:insensitive="true">
    <text
       xml:space="preserve"
       style="font-weight:bold;font-size:33.86666489px;line-height:1.25em;font-family:'Noto Sans CJK JP';-inkscape-font-specification:'Noto Sans CJK JP Bold';text-align:center;text-anchor:middle;fill:#302833;stroke-width:0.25;stroke-linecap:round;stroke-linejoin:round"
       x="104.93306"
       y="82.332199"
       id="text5115"><tspan
         sodipodi:role="line"
         id="tspan5113"
         x="104.93306"
         y="82.332199"
         style="-inkscape-font-specification:'Noto Sans CJK JP Bold'">MENU</tspan></text>
    <text
       xml:space="preserve"
       style="font-weight:bold;font-size:12.69999981px;line-height:1.25em;font-family:'Noto Sans CJK JP';-inkscape-font-specification:'Noto Sans CJK JP Bold';text-align:center;text-anchor:middle;fill:#302833;stroke-width:0.25;stroke-linecap:round;stroke-linejoin:round"
       x="140.65909"
       y="112.54732"
       id="text5119"><tspan
         sodipodi:role="line"
         id="tspan5117"
         x="140.65909"
         y="112.54732">Sample Drive</tspan></text>
    <text
       xml:space="preserve"
       style="font-weight:900;font-size:4.93888903px;line-height:1.25em;font-family:'Noto Sans CJK JP';-inkscape-font-specification:'Noto Sans CJK JP Heavy';text-align:center;letter-spacing:2.3812499px;text-anchor:middle;fill:#ffffff;stroke-width:0.25;stroke-linecap:round;stroke-linejoin:round"
       x="104.8839"
       y="239.09027"
       id="text5123"><tspan
         sodipodi:role="line"
         id="tspan5121"
         x="106.07453"
         y="239.09027"
         style="-inkscape-font-specification:'Noto Sans CJK JP Heavy'">SAMPLE NATIONAL PARK</tspan></text>
    <text
       xml:space="preserve"
       style="font-weight:500;font-size:9.87777805px;line-height:1.25em;font-family:'Noto Sans CJK JP';-inkscape-font-specification:'Noto Sans CJK JP Medium';text-align:center;text-anchor:middle;fill:#ffffff;stroke-width:0.25;stroke-linecap:round;stroke-linejoin:round"
       x="104.98624"
       y="248.06705"
       id="text5127"><tspan
         sodipodi:role="line"
         id="tspan5125"
         x="104.98624"
         y="248.06705"
         style="-inkscape-font-specification:'Noto Sans CJK JP Medium'">Samle of Sample</tspan></text>
  </g>
</svg>
