<?xml version="1.0" encoding="UTF-8" standalone="no"?>
<!-- Created with Inkscape (http://www.inkscape.org/) -->

<svg
   xmlns:osb="http://www.openswatchbook.org/uri/2009/osb"
   xmlns:dc="http://purl.org/dc/elements/1.1/"
   xmlns:cc="http://creativecommons.org/ns#"
   xmlns:rdf="http://www.w3.org/1999/02/22-rdf-syntax-ns#"
   xmlns:svg="http://www.w3.org/2000/svg"
   xmlns="http://www.w3.org/2000/svg"
   xmlns:xlink="http://www.w3.org/1999/xlink"
   xmlns:sodipodi="http://sodipodi.sourceforge.net/DTD/sodipodi-0.dtd"
   xmlns:inkscape="http://www.inkscape.org/namespaces/inkscape"
   width="210mm"
   height="297mm"
   viewBox="0 0 210 297"
   version="1.1"
   id="svg8"
   inkscape:version="0.92.1 r15371"
   sodipodi:docname="The_Metropolitan_Club.svg">
  <defs
     id="defs2">
    <linearGradient
       id="linearGradient4625"
       osb:paint="solid"
       gradientTransform="scale(0.26458333)">
      <stop
         style="stop-color:#5b6356;stop-opacity:1"
         offset="0"
         id="stop4623" />
    </linearGradient>
    <linearGradient
       id="linearGradient4619"
       osb:paint="solid">
      <stop
         style="stop-color:#888e7e;stop-opacity:1"
         offset="0"
         id="stop4617" />
    </linearGradient>
    <linearGradient
       id="linearGradient4559">
      <stop
         style="stop-color:#9ba88d;stop-opacity:1"
         offset="0"
         id="stop4557" />
    </linearGradient>
    <linearGradient
       id="linearGradient4553">
      <stop
         style="stop-color:#47585c;stop-opacity:1"
         offset="0"
         id="stop4551" />
    </linearGradient>
    <linearGradient
       inkscape:collect="always"
       xlink:href="#linearGradient4619"
       id="linearGradient4621"
       x1="79.277058"
       y1="226.12336"
       x2="88.011311"
       y2="226.12336"
       gradientUnits="userSpaceOnUse" />
    <linearGradient
       inkscape:collect="always"
       xlink:href="#linearGradient4625"
       id="linearGradient4627"
       x1="70.418651"
       y1="226.384"
       x2="79.277059"
       y2="226.384"
       gradientUnits="userSpaceOnUse" />
  </defs>
  <sodipodi:namedview
     id="base"
     pagecolor="#ffffff"
     bordercolor="#666666"
     borderopacity="1.0"
     inkscape:pageopacity="0.0"
     inkscape:pageshadow="2"
     inkscape:zoom="0.97590862"
     inkscape:cx="396.85039"
     inkscape:cy="561.25984"
     inkscape:document-units="mm"
     inkscape:current-layer="layer5"
     showgrid="true"
     inkscape:snap-page="true"
     inkscape:snap-bbox="false"
     borderlayer="true"
     inkscape:showpageshadow="false"
     inkscape:snap-global="false"
     inkscape:bbox-paths="true"
     inkscape:pagecheckerboard="true"
     inkscape:snap-center="true"
     inkscape:snap-intersection-paths="true"
     inkscape:bbox-nodes="true"
     inkscape:snap-smooth-nodes="true"
     inkscape:object-paths="true"
     showguides="false"
     inkscape:guide-bbox="true"
     inkscape:lockguides="true">
    <sodipodi:guide
       position="105,300.00001"
       orientation="0,1"
       id="guide4495"
       inkscape:locked="true" />
    <sodipodi:guide
       position="105,-3.0000001"
       orientation="0,1"
       id="guide4497"
       inkscape:locked="true" />
    <sodipodi:guide
       position="-2.9999999,148.5"
       orientation="1,0"
       id="guide4499"
       inkscape:locked="true" />
    <sodipodi:guide
       position="213,148.5"
       orientation="1,0"
       id="guide4501"
       inkscape:locked="true" />
    <sodipodi:guide
       position="36.339834,-3.0000001"
       orientation="1,0"
       id="guide4511"
       inkscape:locked="true" />
  </sodipodi:namedview>
  <metadata
     id="metadata5">
    <rdf:RDF>
      <cc:Work
         rdf:about="">
        <dc:format>image/svg+xml</dc:format>
        <dc:type
           rdf:resource="http://purl.org/dc/dcmitype/StillImage" />
        <dc:title></dc:title>
        <cc:license
           rdf:resource="http://creativecommons.org/publicdomain/zero/1.0/" />
        <dc:source>https://digitalcollections.nypl.org/items/b7748731-1918-3196-e040-e00a180626e0</dc:source>
      </cc:Work>
      <cc:License
         rdf:about="http://creativecommons.org/publicdomain/zero/1.0/">
        <cc:permits
           rdf:resource="http://creativecommons.org/ns#Reproduction" />
        <cc:permits
           rdf:resource="http://creativecommons.org/ns#Distribution" />
        <cc:permits
           rdf:resource="http://creativecommons.org/ns#DerivativeWorks" />
      </cc:License>
    </rdf:RDF>
  </metadata>
  <g
     inkscape:groupmode="layer"
     id="layer3"
     inkscape:label="white"
     sodipodi:insensitive="true">
    <rect
       style="fill:#efcd9a;stroke-width:0.99999994"
       id="rect4494"
       width="215.88672"
       height="303"
       x="-3"
       y="-3" />
  </g>
  <g
     inkscape:groupmode="layer"
     id="layer2"
     inkscape:label="mark"
     sodipodi:insensitive="true">
    <g
       id="g4516">
      <g
         id="g4506">
        <path
           style="fill:none;stroke:#000000;stroke-width:0.2"
           d="m -12,0 h 9 v -12"
           id="path4485"
           inkscape:connector-curvature="0" />
        <use
           x="0"
           y="0"
           xlink:href="#path4485"
           id="use4502"
           width="100%"
           height="100%"
           transform="matrix(0,1,1,0,0,0)" />
      </g>
      <use
         transform="matrix(-1,0,0,1,210,0)"
         height="100%"
         width="100%"
         id="use4508"
         xlink:href="#g4506"
         y="0"
         x="0" />
      <path
         style="stroke:#000000;stroke-width:0.2"
         d="m 105,-12 v 9"
         id="path4524"
         inkscape:connector-curvature="0" />
      <path
         style="stroke:#000000;stroke-width:0.2"
         d="m 96,-6 h 18"
         id="path4548"
         inkscape:connector-curvature="0" />
      <path
         style="stroke:#000000;stroke-width:0.2"
         d="m -12,148.5 h 9"
         id="path4554"
         inkscape:connector-curvature="0" />
      <path
         style="stroke:#000000;stroke-width:0.2"
         d="M -6,159 V 138"
         id="path4556"
         inkscape:connector-curvature="0" />
    </g>
    <use
       x="0"
       y="0"
       xlink:href="#g4516"
       id="use4518"
       width="100%"
       height="100%"
       transform="rotate(-180,105,148.5)" />
  </g>
  <g
     inkscape:groupmode="layer"
     id="layer5"
     inkscape:label="flowerA"
     sodipodi:insensitive="true">
    <path
       id="path4544"
       style="fill:url(#linearGradient4621);stroke-width:0.05;stroke-linecap:round;stroke-linejoin:round"
       d="m 85.194467,230.53048 c -1.479352,2.85738 -3.161356,3.80983 -3.627453,4.49885 1.236169,-0.26345 3.445067,-2.89791 3.627453,-4.49885 z m -5.471581,1.49962 c -0.245418,-0.30286 -0.09963,-0.51134 0.243181,-0.38504 2.69526,0.99299 3.850369,-0.66874 2.69526,-2.99923 -0.116999,-0.23605 -0.01148,-0.52104 0.385035,-0.28372 2.60005,1.55616 2.1481,-1.01326 3.566658,-0.85113 0.15196,0.32074 -0.297306,0.87797 -0.106076,1.45067 0.261346,0.78269 1.297158,0.91247 1.504367,1.79175 -0.703432,-0.039 -2.918171,1.70226 -1.175375,2.77631 0.287132,0.17695 0.09611,0.66931 -0.222916,0.60796 -1.580679,-0.30399 -2.756056,0.62821 -2.715522,2.1481 0.0099,0.36967 -0.02499,0.50776 -0.385038,0.26344 -1.134844,-0.77008 -2.411548,-0.77007 -3.546393,-0.44583 -0.298068,0.0852 -0.500204,-0.33333 -0.303972,-0.52689 1.050371,-1.03607 1.013251,-2.37102 0.06079,-3.54639 z m -0.445828,-16.45512 h 4.25567 c 0.486362,0 0.688496,0.48563 0.222917,0.89152 -0.790341,0.68901 -2.249427,3.0195 -2.533137,4.33673 1.033519,0.34451 1.925183,1.86439 1.925183,3.44508 0,2.10756 -2.208893,3.89089 -3.870633,3.89089 z"
       inkscape:connector-curvature="0" />
    <path
       id="path4547"
       style="fill:url(#linearGradient4627);stroke-width:0.05;stroke-linecap:round;stroke-linejoin:round"
       d="m 73.778891,231.93329 c -0.59017,-0.8267 -1.004343,-1.64658 -1.099862,-2.3518 0.483945,0.78883 0.949654,1.49294 1.419201,2.12998 0.120402,0.2153 -0.0586,0.4341 -0.319339,0.22182 z m 0.810583,0.41802 c 0.865161,1.07965 1.768488,1.95701 2.84346,2.73882 0.107261,0.12608 0.178909,0.33611 0.121591,0.54715 -1.007451,-0.70697 -2.119932,-1.70419 -3.029568,-2.75889 -0.316641,-0.49357 -0.08785,-0.58357 0.06452,-0.52708 z m -0.62187,-16.77647 c 1.053784,1.09431 2.796583,3.87063 3.039763,5.30945 -1.641472,0.4053 -2.31022,2.06704 -2.31022,3.32348 0,2.41155 2.43181,3.74904 3.890897,3.8301 v 7.43729 c -1.675455,-0.3892 -0.922279,-2.85147 -0.348496,-3.35954 0.202417,-0.17923 0.07485,-0.53136 -0.200615,-0.40122 -2.672954,1.26279 -3.715658,-1.7682 -2.579325,-2.55067 0.537269,-0.36996 0.0085,-0.63812 -0.515866,-0.51586 -3.243258,0.75617 -2.66123,-1.45814 -3.324464,-1.57626 -0.165596,1.03173 0.326874,3.2295 -1.146368,3.55374 -0.587775,0.12936 3.78301,4.58547 4.270216,4.92938 0.487207,0.34391 2.679634,0.54452 3.911979,0.55885 0,0.37778 0.02688,0.64095 0.02688,0.82626 0,0.39302 0.595074,0.27617 0.595074,0.005 v -21.36986 z"
       inkscape:connector-curvature="0"
       sodipodi:nodetypes="cccccccccccsccccscccscsscc" />
  </g>
  <g
     inkscape:groupmode="layer"
     id="layer4"
     inkscape:label="tree"
     sodipodi:insensitive="true">
    <path
       style="fill:url(#linearGradient4625);stroke-width:0.05;stroke-linecap:round;stroke-linejoin:round"
       d="m 6.3632405,38.701075 c 0.5268922,-0.445833 1.1145803,-0.587688 1.9657143,-0.587688 4.2706962,0 8.4158172,6.565699 9.6586652,12.343369 2.017241,9.377617 1.809677,21.248868 2.601718,26.626412 0.770073,5.228396 3.404537,13.658674 3.404537,29.100682 0,22.08833 -12.888602,43.94607 -12.888602,70.52253 0,11.67368 4.620442,30.37966 4.620442,37.28778 0,15.96442 -9.4742309,27.80442 -9.4742309,32.027 0,3.59209 1.935615,5.99032 6.0291649,5.99032 5.755287,0 13.577614,-6.68748 20.386687,-6.68748 1.013256,0 2.756053,0.16212 3.672496,0.44583 V -3.000009 L 28.056728,-3 c 0,13.089639 -1.083492,32.957496 -5.44088,43.119632 -0.673876,1.571589 -2.539576,1.722477 -3.607188,0.162121 -1.053784,-1.540148 -4.41779,-4.498852 -5.917407,-5.714758 -0.486363,-0.526893 -0.884711,-1.626125 -0.856052,-2.386363 0.685554,-0.811049 3.7328,-1.490002 5.189578,-3.40185 2.056855,-2.69938 2.40737,-3.553737 2.894576,-5.90379 0.09032,-0.435646 -0.04729,-0.593194 -0.515865,-0.487206 -2.407371,0.544525 -3.953684,1.638464 -5.129992,2.951895 -1.185643,1.323853 -2.235417,3.553738 -2.607985,5.359266 -0.143296,-0.458547 1.106535,-4.441147 0.859775,-7.193453 -0.215721,-2.406104 -1.318322,-4.52815 -2.378712,-5.674517 -0.346489,-0.374583 -0.6689957,-0.238264 -0.8311157,0.08598 -0.7451388,1.490277 -1.5052776,4.65004 -1.0317303,7.365408 0.6217446,3.565146 2.120779,3.754352 2.693962,5.846472 0.114637,0.487205 0.08598,1.690891 0.34391,2.693962 C 10.861827,33.020338 9.4575277,32.24654 8.4257974,31.702016 6.9068611,28.721462 9.1003541,27.851818 5.7891533,22.703035 4.33149,20.436428 1.6049138,18.977343 -0.40122845,18.174886 c -0.47970733,-0.191883 -0.48720597,0.286592 -0.40122845,0.601843 0.0859775,0.31525 0.83353284,3.769776 3.0092134,6.935519 1.5239442,2.217429 4.1842395,2.46469 5.244629,5.55988 C 4.7287639,29.896491 2.4646891,29.609898 0.05731835,29.982468 -0.42498805,30.057111 -0.33792835,30.456993 0,30.526992 c 4.0122845,0.831117 6.8495428,2.693962 10.546576,6.161723 -3.0951906,-0.229273 -7.5340933,2.908524 -9.5148457,6.56295 -1.28979543,2.379632 -1.69382691,4.971219 -1.6808583,6.279295 0.003988,0.402232 0.71698021,0.347743 1.0762937,0.210862 1.2036854,-0.458547 2.743031,-1.583299 3.9290289,-3.624238 0.94158,-1.62033 1.0030712,-4.54248 0.8884344,-6.691918 0.1146367,-0.157626 0.3439101,-0.286592 0.5731835,-0.386899 0.7056147,1.53359 -0.4224419,4.548662 0.2362273,7.837266 0.476196,2.37755 2.1207789,4.885371 2.4884311,5.583622 0.274939,0.522168 0.8003703,0.461333 1.0010343,-0.09437 C 9.8133088,51.618108 10.826537,49.089416 10.112283,45.733064 9.0923108,40.940111 6.3835056,39.552209 6.3632405,38.701075 Z"
       id="path4515"
       inkscape:connector-curvature="0"
       sodipodi:nodetypes="ccsssssssssccssccsssscsssscccsssscsscssssccssssc" />
    <path
       style="fill:url(#linearGradient4619);stroke-width:0.05;stroke-linecap:round;stroke-linejoin:round"
       d="M 53.707294,17.745 C 55.885391,10.522888 64.957985,-0.77947132 70.537532,-3 h -34.1977 v 248.76983 c 1.432959,0.38879 3.611057,2.05102 6.878204,2.05102 4.986697,0 5.616871,-2.63664 10.661213,-2.63664 11.202453,0 16.622305,6.99284 21.437062,6.99284 4.009051,0 3.770976,-1.60492 5.961108,-1.60492 2.532408,0 4.069604,2.29274 7.279429,2.29274 2.235416,0 4.986697,-1.48909 4.986697,-2.86592 0,-1.84372 -4.747589,-3.89477 -7.4792,-5.24378 -2.21407,-1.09343 -0.551764,-1.24548 -2.726345,-2.54744 -19.659058,-11.77027 -30.442998,-44.00039 -30.442998,-69.27484 0,-15.79152 3.276981,-27.13055 3.276981,-36.65354 0,-25.33065 -3.249166,-39.652298 -3.249166,-54.842432 0,-28.821333 23.697139,-46.79284 41.044711,-46.79284 11.026692,0 15.705022,4.439642 18.579082,10.370548 -0.54655,1.446867 -2.6097,-1.528137 -6.27839,-1.390392 -3.45329,0.129659 -5.36557,1.273941 -7.258868,3.386699 -0.520168,0.580462 0.0011,1.386665 0.695918,1.055474 1.24124,-0.591657 2.61199,0.06057 3.78301,0.257933 5.10133,0.859775 7.03583,-0.286592 9.35722,-2.579326 0.24678,0.592847 0.64389,2.017078 0.47288,2.43603 -0.59325,1.453427 -3.57842,-0.03684 -6.90686,1.862846 -3.81506,2.177424 -3.53037,5.048559 -4.27022,5.674517 -0.47985,0.405987 -0.27009,1.256641 0.48721,0.859775 2.44026,-1.278825 9.77277,-3.381782 11.00512,-7.652 0.45855,2.40737 0.21029,3.393209 -1.43296,3.983626 -4.8464,1.741306 -7.22215,6.133062 -7.45139,8.741048 -0.0703,0.799882 0.35399,0.964861 1.06039,0.515865 0.70355,-0.447182 5.6172,-2.206756 6.56295,-4.700105 0.086,1.74821 2.23542,5.015356 2.23542,6.075745 0,0.71648 0.40981,0.705992 0.71647,0.143296 3.12385,-5.731835 2.14945,-9.830097 -0.91709,-12.753332 0.0573,-1.232345 -0.11463,-2.77994 -0.4872,-4.040944 1.80553,2.550666 5.58854,4.929376 8.45446,5.989767 0.5191,0.192068 0.60551,-0.260907 0.37257,-0.544524 -0.55306,-0.673379 -0.35959,-3.251175 -2.92324,-5.703176 -1.37938,-1.319303 -3.86899,-1.977483 -6.27636,-1.318322 -1.28966,-4.470831 -7.73797,-12.094172 -11.69294,-13.584448 18.68578,-2.693962 38.57524,6.305018 46.71445,25.105437 0,0.773797 -0.22926,1.748209 -0.54452,2.206756 -3.5824,-2.865917 -7.5963,-2.254425 -10.4606,-0.05732 -0.54243,0.41608 -0.83112,1.232344 1.83419,1.003071 3.09519,2.378711 8.56909,2.149438 9.6868,-1.805529 0.85977,2.350055 2.63664,8.913006 1.23234,9.772782 -4.27021,-2.722622 -8.05262,-2.249973 -11.00512,0.429887 -0.60891,0.552684 0.086,1.003071 1.00307,0.974412 1.06039,0.802457 2.49335,1.175026 4.64279,1.432959 -1.5476,1.089048 -3.38179,4.040943 -3.43911,6.505633 -0.01,0.429748 0.24574,0.636601 0.65917,0.429887 2.80859,-1.404295 6.21904,-4.556809 7.62334,-8.483116 0.45854,-0.143296 0.85977,-0.429887 1.14636,-0.859775 -0.0287,0.859776 -0.11463,2.006142 -0.28659,2.665303 -0.3439,1.003071 -2.59702,1.180576 -3.95497,5.158652 -1.17846,3.452294 0.0574,5.101332 -0.0859,6.59161 -0.0521,0.542024 0.6115,0.755914 1.06039,0.34391 1.47402,-1.352898 3.61912,-4.438806 4.02829,-7.224453 0.47601,-3.240816 -0.10116,-6.408879 -0.13064,-8.251501 1.28966,0.859775 0.8236,3.311552 2.95189,6.820883 1.54709,2.550981 4.06961,4.126922 4.55681,4.614127 0.37257,0.372569 0.9823,0.03035 0.94575,-0.544524 -0.08,-1.259239 0.53719,-4.006782 -1.54759,-6.792225 -2.36144,-3.155079 -5.58855,-3.353122 -6.76357,-4.786082 -0.91716,-6.792224 -1.23242,-15.074725 -8.02464,-24.159684 6.19038,0.05732 13.52713,3.066531 17.42478,7.336749 -2.75128,4.49949 1.37564,10.976462 1.66224,11.635625 0.13807,0.31757 0.65915,0.401226 0.80245,-0.05732 0.14329,-0.458549 1.37564,-2.493349 0.60184,-6.505633 2.12079,4.040943 6.90686,5.273291 7.22211,5.731835 0.32082,0.46664 0.95329,0.218099 0.7738,-0.37257 -1.57625,-5.18731 -4.90071,-7.709317 -8.36848,-7.250771 -0.3439,-0.773797 -1.06038,-1.805528 -1.69089,-2.493348 5.44525,2.693962 9.48619,1.977482 10.89048,1.690892 0.5246,-0.10706 0.82283,-0.714125 0.14331,-1.146368 -6.21803,-3.955288 -7.27944,-3.926306 -11.80759,-1.776868 -0.65916,-0.945754 -3.38178,-3.639716 -4.67144,-4.442173 4.04095,0.745141 6.13307,-1.432954 7.48005,-3.181166 0.28204,-0.366055 -0.19074,-0.961881 -0.7738,-0.773798 -0.88844,0.286595 -3.78302,-0.02866 -5.53122,1.834187 0.37257,-1.690891 2.14944,-3.983627 0.94575,-5.817812 -0.32378,-0.493377 -0.74701,-0.370233 -1.08905,0.05732 -0.34391,0.429888 -1.6683,1.28771 -2.0348,2.43603 -0.39194,1.228005 -0.40123,3.324465 -0.28659,4.757423 -2.9519,-1.834189 -8.94167,-4.614129 -13.81373,-4.986698 -1.69088,-1.977483 -5.67451,-4.986697 -7.85261,-6.2477 3.84032,0.114634 8.59775,0.114637 13.67043,-1.74821 -1.77687,5.187311 1.92016,7.508704 3.95496,9.486187 0.29211,0.283877 0.5482,0.08156 0.40123,-0.315251 -0.28659,-0.773796 -0.45855,-4.843401 -1.69089,-7.30809 2.83726,1.690891 7.652,0.716479 8.79836,-0.515865 0.21114,-0.226974 0.56172,-0.307448 0.20062,-0.745138 -0.94575,-1.14637 -5.07268,-2.837259 -7.85261,-2.407371 2.43603,-1.261004 5.15866,-5.674515 5.44524,-7.365408 0.063,-0.371649 -0.50757,-1.015558 -0.83112,-0.859776 -0.7738,0.37257 -4.58546,1.490278 -6.62027,4.098263 -0.34391,-1.834188 -1.10235,-5.101334 -2.27738,-7.394067 -0.13894,-0.271117 -0.55531,-0.340033 -0.62211,0.04401 -0.22786,1.309929 -3.23357,7.464696 1.2086,12.422734 -9.14992,2.493695 -21.66628,-2.20641 -30.34023,-3.186089 3.75435,-1.37564 8.18236,-4.766775 9.40726,-6.749874 1.38742,0.306477 1.13968,3.261112 2.1039,4.748649 1.08105,1.667773 2.69395,2.52201 3.86898,3.410442 0.27528,0.208137 0.55048,0.228647 0.48721,-0.34391 -0.57318,-5.18731 -3.23849,-7.336749 -5.70318,-8.167865 0.25793,-0.200614 0.45787,-0.415299 0.91709,-0.401229 2.9795,0.09129 4.0123,5.961108 10.77586,5.731835 0.63274,-0.02145 0.70125,-0.564649 0.40122,-1.117707 -2.37871,-4.384854 -6.19038,-6.104405 -10.46059,-5.55988 4.52815,-1.604914 8.68373,0.31525 12.75333,-4.155581 0.32739,-0.35967 0.27817,-0.935974 -0.34391,-1.060389 -5.30195,-1.060391 -9.34289,-0.05732 -13.87104,5.617198 2.60799,-8.339819 -1.03173,-11.2343988 -2.00614,-13.3838346 -0.11833,-0.2610288 -0.64372,-0.5751907 -1.00308,0.2006142 -3.06652,6.6202674 2.12078,9.1709354 2.37872,13.2118794 -2.03661,-0.464821 -2.4727,-3.230312 -4.92379,-4.823983 -2.40234,-1.561979 -5.07201,-1.387609 -6.65452,-2.913994 -0.35127,-0.338816 -0.83061,-0.301574 -0.71648,0.257933 1.17503,5.760495 4.58547,8.196524 11.57831,8.139205 -12.10572,7.46022 -19.88752,4.420455 -32.614003,6.811736 6.534153,-4.748276 10.689733,-12.256979 13.068443,-13.346027 0.5372,-0.245946 0.0573,-1.08905 -0.85978,-1.003071 -0.48591,0.04555 -0.69904,0.47369 -1.63357,0.745138 -0.9219,0.267783 -2.18054,-0.1759 -3.32447,0.601842 -1.763396,1.198911 -2.321385,5.989768 -10.403273,10.517918 1.318323,-4.298877 -0.233981,-4.643763 10e-7,-5.760494 0.396524,-1.892498 7.766636,-4.241558 6.534291,-13.9283594 -1.662232,1.6335729 -5.426113,5.225846 -5.846471,8.2251834 -0.352679,2.516428 0.859775,2.894577 -1.175026,4.757423 C 89.437291,17.114738 89.576899,13.652006 87.879481,11.059404 85.914922,8.0587785 83.193948,7.4449645 82.051218,5.4502139 81.722325,4.8760984 81.347338,5.1577795 81.392057,5.622169 c 0.74514,7.737977 6.2477,8.884344 6.792224,10.804509 -4.298876,-4.040944 -9.744119,-4.327536 -13.412493,-1.834187 3.295804,3.611056 8.741047,3.639715 13.039924,2.178097 0.34391,0.05732 0.745139,0.243603 0.945753,0.372569 0.444216,0.558854 0.207535,0.816839 -0.315251,0.831116 -1.759689,0.04806 -3.589396,0.905529 -4.826857,2.367494 -1.236793,1.461176 -2.445532,4.465912 -3.455645,5.112551 -0.886192,0.567309 -0.717734,0.812453 -0.169918,0.856299 4.205549,0.336607 7.889469,-3.395327 8.993468,-7.476568 0.104425,-0.386036 0.476873,-0.325346 0.598663,0.0909 2.264076,7.737977 -10.683216,10.283726 -14.552205,12.490483 -0.429888,-3.783016 5.502561,-6.419661 1.719551,-12.524065 -0.377418,-0.609015 -1.071585,-0.05956 -1.175027,0.487206 -0.200615,1.060389 -3.238487,2.522008 -1.175026,10.174007 -3.295805,-6.906862 -7.764406,-4.570834 -10.288644,-5.101333 -0.622733,-0.130875 -0.707822,0.264453 -0.429887,0.831116 2.951895,6.018427 8.99898,4.098262 10.460598,6.305018 -9.71546,3.868989 -22.382815,15.733887 -26.796328,27.656104 -3.439101,-23.156613 3.310134,-40.022537 12.423752,-43.117728 0.243603,0.186284 0.50993,0.506453 0.70215,0.702149 0.613466,4.899628 5.848159,6.142899 7.27943,6.419656 0.464063,0.08973 0.781558,0.01423 0.573184,-0.458547 -1.286535,-2.919018 -4.340395,-5.799235 -8.024569,-6.906861 0.888434,-0.487206 2.354659,-0.874865 2.951895,-0.148214 2.952649,3.592461 6.456853,3.821011 9.772779,2.068378 0.432969,-0.228846 0.343073,-0.767424 -0.315251,-0.917093 -1.309859,-0.297794 -3.22884,-3.425543 -11.492329,-2.235416 0.142157,-0.106427 0.385937,-0.401109 0.567772,-0.461556 4.636472,-1.54128 7.252015,-3.863497 9.216877,-7.0604589 0.291371,-0.4740796 -0.06388,-0.5554009 -0.473894,-0.5717434 -4.960876,-0.1977336 -7.484017,2.5672497 -9.282096,7.1193463 -0.205532,0.338993 -0.545964,0.746579 -0.831116,1.03173 -2.09212,0.515865 -4.958037,1.805529 -6.706247,3.037873 z"
       id="path4517"
       inkscape:connector-curvature="0"
       sodipodi:nodetypes="ccccsssssssssssscsssscsssscssscssccsssccccscccsccsscccsssscsssscccsscssccssccsscsssccccsscsscsscsscccssscssscsscsscsssccsssscscscsssccccsssssscsscssccccsscssscsssccc" />
  </g>
  <g
     inkscape:groupmode="layer"
     id="layer6"
     inkscape:label="flowerB"
     sodipodi:insensitive="true">
    <path
       id="path4529"
       style="fill:url(#linearGradient4625);stroke-width:0.05;stroke-linecap:round;stroke-linejoin:round"
       d="m 59.619915,255.74026 c 2.361661,-2.56726 3.46533,-2.99924 3.749041,-3.58692 -1.195639,0.0811 -6.545626,5.1676 -6.728011,6.82933 0.303976,-0.0608 0.60727,-0.66425 2.97897,-3.24241 z m -10.918189,-0.85595 c 2.664531,2.47841 3.074041,3.48034 3.663285,3.85519 -0.162122,-1.4591 -5.816084,-6.78882 -7.234641,-6.93067 0.302337,0.45101 1.614619,1.25543 3.571356,3.07548 z m 0.299279,-20.21975 h 10.537848 c -0.851132,1.54015 -2.269691,4.37727 -2.796582,5.79582 1.013886,0.12159 2.891617,1.94565 2.918173,4.09355 0.04106,3.32127 -3.15391,4.98521 -4.620441,4.98521 0.04053,1.25644 0,11.06475 0,11.06475 1.134846,-1.05379 0.932197,-4.21514 0.648483,-4.53939 -0.283709,-0.32424 -0.06353,-0.64573 0.243181,-0.56742 1.90492,0.48636 3.120825,-0.60795 2.472342,-2.79658 -0.17117,-0.5777 -0.04236,-0.89142 0.445832,-0.60795 1.256435,0.72955 3.282946,-0.16212 3.120825,-1.82386 -0.04739,-0.48575 0.11979,-0.77701 0.526893,-0.40531 0.932197,0.85114 1.985979,1.09432 3.728778,0.40531 0.512659,-0.20268 0.482688,0.62336 0.12159,0.68901 -0.891663,0.16211 -1.459087,1.7428 -0.891664,2.47234 0.222561,0.28615 0.233601,0.78312 -0.364772,0.64848 -1.62121,-0.3648 -2.634462,1.41856 -1.945449,2.91818 0.169213,0.36829 0.258723,0.65058 -0.202651,0.48636 -2.391281,-0.85113 -3.607189,1.13484 -2.918174,2.91818 0.138574,0.35866 0.103551,0.63646 -0.486362,0.24318 -1.70227,-1.13485 -3.809839,-0.64849 -4.458322,1.66173 v 1.70227 c 0,0.31546 -0.851134,0.64848 -0.851134,0 0,-0.36477 -0.04053,-1.41855 -0.04053,-1.90492 -1.220076,-2.26062 -3.688246,-2.59393 -4.944684,-1.49961 -0.238704,0.2079 -0.571729,-0.0537 -0.344506,-0.5877 0.713665,-1.67711 -1.15511,-3.06001 -2.857379,-2.81684 -0.443169,0.0633 -0.57459,-0.2205 -0.445832,-0.44583 0.972725,-1.70227 -0.932199,-2.79661 -2.02651,-2.87765 -0.412208,-0.0305 -0.605962,-0.15883 -0.202651,-0.4053 0.729544,-0.44583 0.607953,-1.66174 -0.283711,-2.26969 -0.34477,-0.23507 -0.137376,-0.63283 0.283711,-0.48636 0.932194,0.32424 1.90492,0.36477 2.958705,-0.48636 0.359498,-0.29036 0.415018,-0.21121 0.445832,0.12159 0.202651,2.18863 1.763066,2.75606 3.424801,1.70227 0.390265,-0.24749 0.584122,-0.0325 0.385037,0.28371 -1.378034,2.18862 0.364772,3.64771 2.715523,3.32347 0.469944,-0.0648 0.43419,0.24856 0.202651,0.64849 -0.44583,0.77007 -0.561797,2.71228 0.567423,4.37726 v -11.18634 c -2.107571,0 -4.701503,-1.86439 -4.701503,-4.7015 0,-2.26969 1.621207,-3.97196 2.593932,-4.2962 -0.445833,-1.29697 -2.229159,-4.98522 -2.958703,-5.83635 z"
       inkscape:connector-curvature="0"
       sodipodi:nodetypes="cccccccccccsccccscsccscccccccsscccccccccccccccccscc" />
    <path
       style="fill:url(#linearGradient4619);stroke-width:0.05;stroke-linecap:round;stroke-linejoin:round"
       d="m 11.328189,204.32771 c 0.486362,0 0.54233,0.49222 0.222916,0.74981 -0.628216,0.50662 -2.0467746,3.23847 -2.0467746,3.70851 0.4260497,0 2.1075696,0.99299 2.1075696,2.77632 0,1.96572 -1.9859791,3.06003 -3.0397642,3.06003 v 4.80283 c 1.4168096,-2.04151 3.8909002,-3.8909 5.5323712,-3.93143 0.339603,-0.008 0.543376,0.61259 0.182386,0.66874 -0.911932,0.14186 -1.276698,1.01326 -1.134845,1.58068 0.04939,0.19758 -0.169192,0.64156 -0.445832,0.48637 -0.830872,-0.4661 -1.70227,0.42556 -1.438822,1.2767 0.09882,0.31927 -0.409504,0.67352 -0.709279,0.4053 -0.385037,-0.34451 -1.6617376,0.18238 -1.9251837,0.99299 v 1.13484 c 0,0.26345 -1.2394654,0.64983 -1.1348454,0.0202 0.2204494,-1.32665 -0.6687482,-2.41153 -1.7022682,-2.10756 -0.4872066,0.14329 -0.8653149,-0.14037 -0.6484832,-0.50663 0.3984975,-0.67313 -0.4053019,-1.78333 -1.3172312,-1.2767 -0.2772829,0.15405 -0.6331161,-0.14501 -0.5066274,-0.4661 0.2634462,-0.66875 -0.1013255,-1.35775 -1.4185568,-1.45908 -0.3636974,-0.028 -0.385106,-0.91367 0.1013255,-0.9322 2.127836,-0.0811 4.5596467,1.70227 5.7350223,4.51912 v -5.2284 c -1.722533,0 -3.2424155,-1.43882 -3.2424155,-2.93844 0,-1.82385 1.8505742,-2.76594 2.1886304,-2.83711 0,-0.97272 -1.7833284,-3.56666 -2.10757,-3.85037 -0.3242416,-0.28371 -0.3242416,-0.64848 0.2431812,-0.64847 z"
       id="path4519"
       inkscape:connector-curvature="0"
       sodipodi:nodetypes="sscsccsssssscssssssssccscscs" />
    <path
       style="fill:url(#linearGradient4619);stroke-width:0.05;stroke-linecap:round;stroke-linejoin:round"
       d="m 9.0276401,223.05935 c -0.014329,-0.47291 0.9314231,-0.50156 0.931423,0.0717 0.1003069,0.48719 0.1440539,2.02014 -0.8167864,1.74819 -0.7281571,-0.2061 -0.100307,-1.49028 -0.1146366,-1.81989 z"
       id="path4521"
       inkscape:connector-curvature="0"
       sodipodi:nodetypes="cccc" />
    <path
       style="fill:url(#linearGradient4625);stroke-width:0.05;stroke-linecap:round;stroke-linejoin:round"
       d="m 7.7523066,224.27734 c 0.6591612,-0.0144 0.2292737,0.96008 0.2149438,1.83419 -0.071648,0.42988 -0.3295804,0.5302 -0.4728762,-0.22927 -0.1719551,-0.60185 -0.2149437,-1.56193 0.2579324,-1.60492 z"
       id="path4523"
       inkscape:connector-curvature="0"
       sodipodi:nodetypes="cccc" />
    <path
       style="fill:url(#linearGradient4625);stroke-width:0.05;stroke-linecap:round;stroke-linejoin:round"
       d="m 66.469516,260.05672 c 0,0.32425 0.344508,0.24319 0.364773,0.0203 0.02027,-0.22291 0,-1.54015 -0.02027,-1.76306 -0.02027,-0.22292 -0.324242,-0.0405 -0.344509,0.20265 -0.02027,0.24318 0,1.3375 0,1.54015 z"
       id="path4563"
       inkscape:connector-curvature="0" />
    <path
       style="fill:url(#linearGradient4619);stroke-width:0.05;stroke-linecap:round;stroke-linejoin:round"
       d="m 68.435232,259.9554 c 0.09322,-0.53265 0.932194,-0.0203 0.972725,0.42557 0.04053,0.44583 0.02027,1.78332 -0.162121,2.04677 -0.182388,0.26345 -0.770075,0 -0.810604,-0.28371 -0.04053,-0.28371 -0.04903,-1.90845 0,-2.18863 z"
       id="path4565"
       inkscape:connector-curvature="0"
       sodipodi:nodetypes="scccs" />
    <path
       style="fill:url(#linearGradient4619);stroke-width:0.05;stroke-linecap:round;stroke-linejoin:round"
       d="m 74.332374,254.01769 c 0.190589,0.38117 0.141856,1.23617 -0.04053,1.49962 -0.182388,0.26345 -0.466098,0.18239 -0.58769,0 -0.121589,-0.18239 -0.28371,-1.11458 -0.06079,-1.47933 0.121588,-0.24317 0.526902,-0.3445 0.689011,-0.0203 z"
       id="path4567"
       inkscape:connector-curvature="0"
       sodipodi:nodetypes="scccs" />
    <path
       style="fill:url(#linearGradient4619);stroke-width:0.05;stroke-linecap:round;stroke-linejoin:round"
       d="m 81.040122,257.07776 c 0.222915,0.52689 0.425567,2.00624 0.08106,2.35075 -0.344509,0.3445 -0.486363,0.0203 -0.607955,-0.40531 -0.121589,-0.42557 -0.12159,-1.70226 10e-7,-2.00624 0.04053,-0.22292 0.303978,-0.4661 0.526894,0.0608 z"
       id="path4569"
       inkscape:connector-curvature="0"
       sodipodi:nodetypes="ccccc" />
    <path
       style="fill:url(#linearGradient4619);stroke-width:0.05;stroke-linecap:round;stroke-linejoin:round"
       d="m 82.641063,258.59764 c -0.02027,-0.36477 0.66875,-0.22292 0.729544,0.0608 0.0608,0.28371 -0.04053,1.90492 -0.141854,2.08731 -0.101327,0.18238 -0.729543,-0.16212 -0.689015,-0.48636 0.04053,-0.32424 0.08106,-1.3375 0.101325,-1.66174 z"
       id="path4571"
       inkscape:connector-curvature="0" />
    <path
       style="fill:url(#linearGradient4619);stroke-width:0.05;stroke-linecap:round;stroke-linejoin:round"
       d="m 86.613023,256.97639 c 0.101325,0.28371 0.02027,1.72253 -0.0608,1.94545 -0.08106,0.22292 -0.486363,0.16212 -0.587688,-0.10133 -0.101324,-0.26344 -0.02027,-1.47934 -0.02026,-1.76304 5e-6,-0.50661 0.466101,-0.50661 0.668753,-0.0811 z"
       id="path4573"
       inkscape:connector-curvature="0"
       sodipodi:nodetypes="ccccc" />
    <path
       style="fill:url(#linearGradient4619);stroke-width:0.05;stroke-linecap:round;stroke-linejoin:round"
       d="m 87.7884,257.92893 c 0.202649,0.26345 0.16212,1.54015 0.06079,1.70227 -0.101325,0.16212 -0.526891,0.28371 -0.648483,-0.12159 -0.101324,-0.4661 0.02027,-1.29697 2e-6,-1.66176 0.04053,-0.18241 0.385038,-0.18241 0.587691,0.0811 z"
       id="path4575"
       inkscape:connector-curvature="0"
       sodipodi:nodetypes="ccccc" />
    <path
       style="fill:url(#linearGradient4619);stroke-width:0.05;stroke-linecap:round;stroke-linejoin:round"
       d="m 82.78292,238.23122 c 0.101325,-0.42557 0.689014,-0.30398 0.810604,-0.0405 0.121591,0.26344 0.385037,1.01325 0.243181,1.25643 -0.141857,0.24318 -0.567423,0.52689 -0.881531,0.32423 -0.253313,-0.20267 -0.253315,-1.15513 -0.172254,-1.54016 z"
       id="path4577"
       inkscape:connector-curvature="0"
       sodipodi:nodetypes="ccccc" />
    <path
       style="fill:url(#linearGradient4625);stroke-width:0.05;stroke-linecap:round;stroke-linejoin:round"
       d="m 89.22722,239.89295 c 0,0.20266 0.119135,1.07765 0.127526,1.38151 0.01433,0.51892 -0.25751,0.82985 -0.330176,0.645 -0.101325,-0.14185 -0.162121,-1.37802 -0.162121,-1.49961 0,-0.12159 0.303977,-0.72955 0.364771,-0.5269 z"
       id="path4579"
       inkscape:connector-curvature="0"
       sodipodi:nodetypes="cscsc" />
    <path
       style="fill:url(#linearGradient4619);stroke-width:0.05;stroke-linecap:round;stroke-linejoin:round"
       d="m 93.013352,237.4319 c 0.100309,0.44422 -0.04299,1.60491 -0.100309,1.87718 -0.05732,0.27226 -0.429887,0.14329 -0.444217,-0.21495 -0.114639,-0.64483 0.01433,-1.71955 0.01433,-1.8915 -0.01434,-0.41556 0.458546,-0.22929 0.530196,0.22927 z"
       id="path4581"
       inkscape:connector-curvature="0"
       sodipodi:nodetypes="ccccc" />
    <path
       style="fill:url(#linearGradient4619);stroke-width:0.05;stroke-linecap:round;stroke-linejoin:round"
       d="m 94.704243,238.54961 c 0.35824,-0.043 0.544523,1.07472 0.444217,1.33265 -0.100307,0.25793 -0.587513,0.25793 -0.687822,0 -0.100306,-0.25793 -0.157626,-1.24667 0.243605,-1.33265 z"
       id="path4583"
       inkscape:connector-curvature="0"
       sodipodi:nodetypes="cccc" />
    <path
       style="fill:url(#linearGradient4625);stroke-width:0.05;stroke-linecap:round;stroke-linejoin:round"
       d="m 95.669657,266.33014 c 0.06778,-0.61003 0.643898,-0.67779 0.779455,-0.16947 0.135556,0.50834 0.169447,2.10116 -0.101669,2.33839 -0.271113,0.23722 -0.440561,0.23722 -0.745564,-0.30501 -0.305004,-0.54224 0.101669,-1.49114 0.06778,-1.86391 z"
       id="path4585"
       inkscape:connector-curvature="0" />
    <path
       style="fill:url(#linearGradient4619);stroke-width:0.05;stroke-linecap:round;stroke-linejoin:round"
       d="m 100.19095,267.76465 c 0.40681,0.0315 0.61074,1.12822 0.55116,1.48574 -0.0719,0.43133 -0.16774,0.88665 -0.67097,0.86268 -0.360928,-0.0173 -0.575126,-0.50324 -0.551163,-0.7189 0.06665,-0.59966 0.141367,-1.59029 0.670973,-1.62952 z"
       id="path4587"
       inkscape:connector-curvature="0"
       sodipodi:nodetypes="ccccc" />
    <path
       id="path4593"
       style="fill:url(#linearGradient4625);stroke-width:0.05;stroke-linecap:round;stroke-linejoin:round"
       d="m 104.07884,262.40679 c 1.66298,0.71579 5.2167,3.81231 6.39359,5.6718 0.14376,0.23962 0.32427,0.0806 0.26237,-0.0743 -1.0956,-2.49328 -4.0739,-5.0296 -6.56016,-5.81318 -0.21562,-0.0719 -0.33543,0.14377 -0.0958,0.21567 z m 7.82731,7.22701 v -4.16962 c -0.98832,0.54776 -0.67558,2.85234 0,4.16962 z m -5.95107,-23.87451 h 6.62537 c 0,0 0.37278,27.14537 0.37278,27.68761 0,0.54224 -0.86247,0.66863 -0.91501,0.16944 -0.0478,-0.45429 -0.0339,-1.34805 -0.0339,-1.76226 0,-1.63632 -3.55798,-3.29107 -5.25285,-1.86391 -0.36845,0.31025 -0.60275,-0.12256 -0.47034,-0.36867 0.90651,-1.68496 -0.55785,-4.43028 -3.58234,-3.75178 -0.36272,0.0814 -0.4897,-0.23536 -0.38683,-0.48849 0.75861,-1.86673 -0.43092,-3.0692 -2.507812,-3.86339 2.357922,0.0223 4.133792,-0.4573 4.575062,-1.49113 0.13371,-0.31325 0.64646,-0.85858 0.67779,-0.44057 0.19752,2.63528 2.98326,2.57119 3.8295,1.38947 0.22323,-0.31173 0.4679,0.0625 0.305,0.27111 -1.48744,1.90473 -0.24557,3.4485 2.64337,3.59228 v -4.74451 c -2.27952,-0.0958 -4.72345,-2.07406 -4.72345,-4.77139 0,-1.97842 1.05447,-3.5688 2.14786,-4.10763 -0.32195,-1.28779 -2.27059,-4.23616 -3.3381,-5.0834 -0.2733,-0.2169 -0.18639,-0.37278 0.0339,-0.37278 z"
       inkscape:connector-curvature="0"
       sodipodi:nodetypes="cccccccccscscscccccccccccsccs" />
    <path
       id="path4600"
       style="fill:url(#linearGradient4619);stroke-width:0.05;stroke-linecap:round;stroke-linejoin:round"
       d="m 122.11746,261.79777 c -3.90603,0.95853 -6.99731,4.07377 -7.95585,6.03877 0.31152,-0.096 0.4871,-0.28554 0.81476,-0.7189 0.74286,-0.9825 3.04335,-3.61847 7.14109,-5.31987 z m -6.66182,-0.64701 c -0.16003,-0.38744 0.28107,-0.46987 0.52719,-0.21568 1.46177,1.50969 3.69036,0.21566 3.97792,-1.17421 0.0768,-0.37104 0.5252,-0.41987 0.69494,-0.0958 0.52718,1.00647 1.94104,1.94102 3.83415,1.48573 0.28344,-0.0682 0.43455,0.53974 0.0958,0.55116 -2.13274,0.0719 -3.42676,1.94102 -1.89311,3.95395 0.22732,0.29836 -0.25176,0.68867 -0.50323,0.50324 -2.37238,-1.74933 -5.39177,0.69493 -3.52262,3.64244 0.28175,0.44429 -0.10384,0.87471 -0.57512,0.55115 -1.60556,-1.1023 -3.59451,-0.83872 -4.69683,0.7189 -0.24763,0.34991 -0.92802,-0.0571 -0.50323,-0.83873 0.59908,-1.10231 0.5512,-3.69034 -0.14378,-4.74474 -0.19604,-0.29743 -0.25396,-0.57837 0.0479,-0.55118 2.29366,0.20659 4.02589,-0.47928 2.65998,-3.78623 z m -2.87519,-15.39147 h 5.55785 c 0.44056,0 0.77946,0.33889 0.52529,0.54223 -1.15224,0.79639 -2.84671,3.15171 -3.49061,4.96479 1.18613,0.54223 2.20281,1.86392 2.20281,3.88032 0,3.42283 -2.92151,4.98299 -4.59903,4.98299 z"
       inkscape:connector-curvature="0"
       sodipodi:nodetypes="ccscssssssssssssssscsccscc" />
    <path
       style="fill:url(#linearGradient4619);stroke-width:0.05;stroke-linecap:round;stroke-linejoin:round"
       d="m 124.80133,255.30369 c -0.36558,0.54068 -0.30195,0.82749 -0.62305,0.23963 -0.0719,-0.1917 -0.0958,-1.00646 -0.0719,-1.22213 0.024,-0.21567 0.62305,-0.81475 0.71892,-0.21567 0.024,0.4553 0.0958,1.07835 -0.024,1.19817 z"
       id="path4603"
       inkscape:connector-curvature="0"
       sodipodi:nodetypes="ccccc" />
    <path
       style="fill:url(#linearGradient4619);stroke-width:0.05;stroke-linecap:round;stroke-linejoin:round"
       d="m 126.38294,253.24279 c 0.16775,0.40737 0.16775,1.82122 0.0959,2.13274 -0.0719,0.31152 -0.47927,0.55116 -0.55116,0.21567 -0.0719,-0.33549 -0.0958,-1.965 -0.0958,-2.25253 0.0239,-0.28754 0.38336,-0.50321 0.5511,-0.0959 z"
       id="path4605"
       inkscape:connector-curvature="0"
       sodipodi:nodetypes="ccccc" />
    <path
       style="fill:url(#linearGradient4619);stroke-width:0.05;stroke-linecap:round;stroke-linejoin:round"
       d="m 127.74886,254.87239 c 0.024,0.33548 -0.0479,1.24609 -0.024,1.62951 0.024,0.38341 -0.59909,0.31152 -0.62306,-0.16774 -0.024,-0.47927 0.024,-0.95854 0.024,-1.48575 0.0958,-0.52722 0.59908,-0.31155 0.62305,0.024 z"
       id="path4607"
       inkscape:connector-curvature="0"
       sodipodi:nodetypes="ccccc" />
    <path
       style="fill:url(#linearGradient4619);stroke-width:0.05;stroke-linecap:round;stroke-linejoin:round"
       d="m 131.3194,260.59959 c 0.0479,0.35945 -0.43134,1.00646 -0.21567,1.65347 0.14379,0.28757 -0.74286,0.31153 -0.7189,0 0.024,-0.31152 -1e-5,-1.07835 0.23963,-1.58157 0.14383,-0.28756 0.64702,-0.43134 0.69494,-0.0719 z"
       id="path4609"
       inkscape:connector-curvature="0"
       sodipodi:nodetypes="ccccc" />
    <path
       style="fill:url(#linearGradient4619);stroke-width:0.05;stroke-linecap:round;stroke-linejoin:round"
       d="m 133.0208,261.89362 c 0.0479,0.33549 0.16775,0.59909 -0.0479,1.03043 -0.21567,0.43134 -0.64702,0.28756 -0.7189,3e-5 -0.0958,-0.23963 -0.14379,-1.34195 0.024,-1.46178 0.0959,-0.21569 0.69493,0.0958 0.74285,0.43132 z"
       id="path4611"
       inkscape:connector-curvature="0"
       sodipodi:nodetypes="ccccc" />
    <path
       style="fill:url(#linearGradient4625);stroke-width:0.05;stroke-linecap:round;stroke-linejoin:round"
       d="m 132.75721,257.24473 c 0.024,-0.38342 0.79079,-0.2636 0.79079,0.11981 0,0.38341 0,1.74933 -0.16775,2.03689 -0.16774,0.28756 -0.69493,0.024 -0.7189,-0.19171 -0.024,-0.21567 -0.16774,-1.67744 0.0959,-1.96499 z"
       id="path4613"
       inkscape:connector-curvature="0" />
    <path
       style="fill:url(#linearGradient4619);stroke-width:0.05;stroke-linecap:round;stroke-linejoin:round"
       d="m 140.01811,243.41785 c 0.40738,0 0.55116,0.28756 0.35946,0.50323 -0.47927,0.47927 -1.27006,1.65347 -1.55762,2.30048 0.88664,0.47927 1.38987,1.22214 1.38987,1.98896 0,1.53366 -1.50969,2.32446 -2.20463,2.42031 v 4.1217 c 0.93457,-0.76683 0.48409,-1.95987 0.16774,-2.61201 1.05439,0.38341 1.94103,-0.13179 1.72537,-1.11429 -0.0828,-0.37742 0.20625,-0.40435 0.4553,-0.21568 0.7908,0.59909 1.96501,0.0719 1.89311,-0.5871 -0.0265,-0.24293 0.63661,-0.27621 0.62305,0.0359 -0.0359,0.82674 0.52719,0.91061 2.20464,1.10231 0.28964,0.0331 0.50306,0.66013 -5e-5,0.5871 -1.48573,-0.21567 -1.84516,0.67098 -1.65347,1.7014 0.0533,0.2866 -0.1802,0.31833 -0.45531,0.0959 -1.12629,-0.9106 -2.39634,-0.31152 -1.98896,1.22213 0.08,0.30109 -0.16676,0.21455 -0.35945,0.0479 -0.88664,-0.76683 -2.51616,-0.16774 -2.51616,1.55762 0,0.43134 -0.86268,0.67098 -0.86268,0.14378 0,-1.72537 -1.19817,-2.51616 -2.13274,-1.53366 -0.2922,0.30718 -0.65235,0.19517 -0.59909,-0.14378 0.2636,-1.67744 -1.07835,-2.10878 -1.94103,-1.12628 -0.16808,0.19142 -0.60134,0.0591 -0.50323,-0.28756 0.35947,-1.27006 -0.98251,-1.77331 -2.06085,-1.60555 -0.33235,0.0517 -0.048,-0.52594 0.23963,-0.50323 0.91061,0.0719 1.62952,-0.21566 1.94104,-1.10231 0.12833,-0.36526 0.52457,0.11401 0.69493,0.33548 0.47928,0.62305 1.55762,0.74286 2.25256,0 0.22266,-0.23802 0.68671,-0.15286 0.5272,0 -0.57512,0.55116 0.14377,1.38991 1.05439,1.46177 0.34781,0.0274 0.31893,0.18211 0.14378,0.50323 -0.28756,0.5272 -0.0719,1.65348 0.47927,2.06086 0.0479,-0.59909 -0.0719,-4.1936 -0.0719,-4.1936 -0.81476,-0.0958 -2.08482,-0.91061 -2.08482,-2.20463 0,-1.31798 1.00646,-1.91708 1.29402,-2.03689 -0.11977,-0.64701 -1.22213,-2.34841 -1.41384,-2.56408 -0.19171,-0.21567 -0.14378,-0.35945 0.33551,-0.35945 z"
       id="path4615"
       inkscape:connector-curvature="0"
       sodipodi:nodetypes="sccscccssssssssssssssssssssssssccscscs" />
    <path
       style="fill:url(#linearGradient4619);stroke-width:0.05;stroke-linecap:round;stroke-linejoin:round"
       d="m 147.44678,240.18279 c 0,0.44512 0.83872,0.46177 0.83872,0.0719 0,-0.18251 0,-1.12628 0.1917,-1.27006 1.12147,-0.024 2.42031,0.91061 2.58805,1.17421 0.21567,-0.0959 0.2636,-0.38342 0.2636,-0.55116 0.4909,0.28219 1.04992,0.7578 1.36591,1.12627 0.34438,0.40158 0.45125,0.0606 0.34959,-0.39695 0.4575,0.22025 1.08446,0.83029 1.18613,0.99974 0.10167,0.16944 0.49566,0.0724 0.38972,-0.23723 -0.22028,-0.64389 -1.4064,-1.83002 -1.57585,-1.94864 0.20333,-0.10167 0.33889,-0.11861 0.47445,-0.16944 -0.50834,-0.61001 -2.25364,-1.33863 -3.91422,-1.10141 0.67779,-0.45751 1.73552,-0.45254 2.47392,-0.35584 0.16945,-0.1525 0.12443,-0.36867 -0.0339,-0.54223 1.49241,-0.0537 2.65055,0.38527 3.19844,0.79846 0.14634,0.11035 0.52938,-0.019 0.42772,-0.25623 -0.10167,-0.23722 -0.32365,-0.50834 -0.57611,-0.71167 1.15159,0.0161 2.49511,0.83164 3.03309,1.40641 0.16086,0.17186 0.84498,0.22371 0.6439,-0.20334 -0.33719,-0.71614 -1.9003,-1.96899 -3.59227,-2.28753 0.49465,0.0313 0.33033,-0.6808 -0.10904,-0.74266 -1.05304,-0.14825 -2.19799,0.0745 -2.72072,0.4546 -0.2076,-0.13521 -0.48497,-0.33871 -0.97407,-0.13846 -1.91283,0.78315 -2.49888,2.89994 -3.09265,2.64627 0,0 -0.0542,-6.32128 0,-6.5237 0.2755,0.61455 0.64617,0.90981 0.99973,0.84723 0.60249,-0.10663 0.93678,-0.81874 0.42362,-2.52475 0.51535,0.66324 0.6514,1.91169 1.45724,1.84697 0.54076,-0.0434 0.65159,-0.83158 0.35584,-1.84697 0.66084,0.47445 1.38536,0.49756 1.54196,0.1525 0.1041,-0.22938 -0.14052,-0.76662 -0.27111,-0.98279 0.42397,0.067 0.83059,-0.1921 0.84723,-0.38973 0.0318,-0.3781 -0.64936,-1.00846 -1.11834,-1.22002 0.69047,-0.33017 0.20609,-1.25887 -0.93196,-1.27085 -0.46706,-0.005 -1.35487,0.22404 -1.94864,0.44056 0.72727,-0.81986 0.78066,-1.13615 0.32195,-1.42335 -0.33498,-0.20974 -0.88964,-0.20169 -1.76225,1.35557 -0.33683,-0.94719 -1.36515,-1.40266 -1.81719,-1.28694 -0.16168,0.0414 -0.25244,0.68651 0.0211,1.04972 -0.91573,-0.60214 -1.91646,-0.4045 -2.05031,0.28806 -0.70005,-0.16857 -1.29447,0.27451 -1.69447,0.67778 -0.16231,0.16363 0,0.35584 0.22028,0.35584 0.22028,0 0.95763,0.031 1.23696,0.16945 -1.48297,0.73344 -1.92793,1.47178 -1.5928,1.88086 0.16774,0.20475 1.09348,-0.36542 1.76225,-0.42362 -0.84383,0.44964 -1.06834,1.46251 -0.72862,1.77919 0.57302,0.53416 1.12672,-0.54513 1.81308,-0.67778 0.0979,0.55166 -0.36029,1.21014 0.27898,1.42335 0.35358,0.11793 0.60555,-0.27778 1.04271,-0.59306 0.0648,1.02646 0.54683,1.41542 0.79639,1.60974 v 3.42283 c -0.4218,-0.4338 -0.60257,-1.28782 -1.03277,-1.77218 -0.27819,-0.3132 -0.82532,-0.27728 -0.79143,-0.04 -0.42362,-0.27112 -1.04029,-0.42567 -1.19195,-0.0347 -0.10108,0.26054 0.13932,0.48438 0.38973,0.57611 -0.16945,0.23723 -0.16413,0.36492 -0.10167,0.38973 0.48182,0.2165 1.6888,0.81981 2.13503,1.88086 -2.20457,-1.41158 -3.1274,-2.02003 -3.4906,-1.37252 -1.29893,-0.49756 -2.57609,-0.54409 -2.89754,0.20334 -1.71042,0.13969 -2.70087,1.24157 -3.10088,1.64363 -0.20352,0.20456 -0.17315,0.67975 0.11741,0.49261 0.45871,-0.29544 1.4839,-0.79144 2.62763,-0.93317 -0.17852,0.39966 -0.23028,0.74616 -0.35995,0.99974 -0.12205,0.2387 0.43581,0.41244 0.64801,0.0847 0.27681,-0.42752 0.99251,-1.07127 1.91475,-1.25391 -0.0339,0.22029 -0.0938,0.74968 -0.0918,0.98194 0.88593,-0.75243 2.70236,-0.9859 4.29402,-0.16857 -3.50186,-0.4161 -4.80613,1.30893 -5.07057,3.43395 -0.0533,0.4287 0.54791,0.63892 0.64099,0.34797 0.2653,-0.82929 1.1036,-1.99486 1.8201,-2.07051 -0.14839,0.20384 -0.58227,0.85596 -0.4356,1.29892 0.0659,0.19897 0.38837,0.23647 0.54223,-0.0339 0.58384,-1.02596 1.81458,-1.91921 3.43479,-1.92588 0.0678,0.40666 -0.0397,1.12997 -0.0397,1.37081 z"
       id="path4629"
       inkscape:connector-curvature="0"
       sodipodi:nodetypes="cscccscsscccccsscsscscsccscscscscscscsccsscscscscccscscccccsscsscccsscsscsc" />
    <path
       style="fill:url(#linearGradient4625);stroke-width:0.05;stroke-linecap:round;stroke-linejoin:round"
       d="m 149.67235,228.27238 c 0,-0.55999 -0.74556,-1.33863 -1.79614,-1.33863 -1.11834,0 -1.78472,0.72578 -1.7453,1.35558 0.032,0.51058 0.66085,0.93195 1.72836,0.93195 1.11835,0 1.81308,-0.35468 1.81308,-0.9489 z"
       id="path4631"
       inkscape:connector-curvature="0"
       sodipodi:nodetypes="sssss" />
    <path
       style="fill:url(#linearGradient4619);stroke-width:0.05;stroke-linecap:round;stroke-linejoin:round"
       d="m 146.22463,246.25752 c 0.1318,0.53917 0.19171,0.97051 0.072,1.22213 -0.11982,0.25162 -0.62306,-0.28756 -0.57513,-0.43134 0.0479,-0.14378 -0.024,-0.57512 -0.0959,-0.73088 -0.15581,-0.50324 0.46723,-0.5991 0.59903,-0.0599 z"
       id="path4546"
       inkscape:connector-curvature="0"
       sodipodi:nodetypes="ccccc" />
    <path
       style="fill:url(#linearGradient4619);stroke-width:0.05;stroke-linecap:round;stroke-linejoin:round"
       d="m 149.24402,242.43535 c -0.024,-0.3954 0.52719,-0.46729 0.5871,-0.024 0.0599,0.44332 0,1.65347 -0.0839,1.86914 -0.0839,0.21567 -0.29954,0.2636 -0.39539,-0.012 -0.0959,-0.27557 -0.10784,-1.4378 -0.10784,-1.8332 z"
       id="path4549"
       inkscape:connector-curvature="0" />
    <path
       style="fill:url(#linearGradient4619);stroke-width:0.05;stroke-linecap:round;stroke-linejoin:round"
       d="m 151.06524,243.53766 c 0.012,-0.28756 0.31152,-0.47927 0.44332,-0.0479 0.1318,0.43134 0.11982,0.86268 0,1.21015 -0.11982,0.34747 -0.22765,0.35945 -0.39539,0.012 -0.16775,-0.34747 -0.10784,-0.87466 -0.0479,-1.1742 z"
       id="path4551"
       inkscape:connector-curvature="0" />
    <path
       style="fill:url(#linearGradient4625);stroke-width:0.05;stroke-linecap:round;stroke-linejoin:round"
       d="m 154.22841,243.08236 c 0.024,-0.33549 0.62305,-0.31153 0.67097,0.14378 0.0479,0.4553 0.0839,2.63597 0,2.9475 -0.0839,0.31152 -0.68295,0.23963 -0.70692,-0.024 -0.024,-0.2636 0.012,-2.79174 0.0359,-3.06732 z"
       id="path4553"
       inkscape:connector-curvature="0" />
    <path
       style="fill:url(#linearGradient4619);stroke-width:0.05;stroke-linecap:round;stroke-linejoin:round"
       d="m 157.95471,242.09989 c 0.16775,0.28756 0.0719,0.91061 -0.012,1.1143 -0.0839,0.20369 -0.38342,0.1917 -0.51521,-0.024 -0.1318,-0.21567 -0.15577,-0.76683 -0.0479,-1.04241 0.13174,-0.37143 0.40737,-0.33548 0.57511,-0.0479 z"
       id="path4555"
       inkscape:connector-curvature="0"
       sodipodi:nodetypes="csccc" />
    <path
       style="fill:url(#linearGradient4619);stroke-width:0.05;stroke-linecap:round;stroke-linejoin:round"
       d="m 157.51137,251.73315 c -0.25162,0.44333 -0.47927,0.23964 -0.64701,-0.11981 -0.16775,-0.35945 -0.036,-1.09034 0.19172,-1.42583 0.10784,-0.22766 0.53918,-0.33549 0.46729,0.0719 -0.0719,0.40737 0.23964,1.03042 -0.012,1.47374 z"
       id="path4557"
       inkscape:connector-curvature="0"
       sodipodi:nodetypes="ccccc" />
    <path
       style="fill:url(#linearGradient4619);stroke-width:0.05;stroke-linecap:round;stroke-linejoin:round"
       d="m 159.29664,252.9313 c -0.14378,0.33549 -0.76682,0.38341 -0.67097,-0.0839 0.0959,-0.46729 -0.11981,-0.71891 0.036,-1.13824 0.11979,-0.38339 0.41933,-0.32349 0.58707,-0.012 0.16774,0.31154 0.1917,0.89864 0.0479,1.23413 z"
       id="path4559"
       inkscape:connector-curvature="0"
       sodipodi:nodetypes="scccs" />
    <path
       id="path4566"
       style="fill:url(#linearGradient4625);stroke-width:0.05;stroke-linecap:round;stroke-linejoin:round"
       d="m 168.51483,250.60547 c 0.23723,-0.0508 0.50777,-0.2257 0.61001,-0.52529 0.72861,-2.13502 3.43977,-4.13452 5.93064,-4.06672 0.37302,0.0101 0.26788,0.45304 0,0.4575 -1.01668,0.0169 -2.152,0.71168 -1.23696,2.05031 0.14375,0.2103 -0.31051,0.20058 -0.47445,0.11861 -0.67778,-0.3389 -1.91476,0.54223 -1.71142,1.45725 0.0483,0.21757 -0.0787,0.47045 -0.25417,0.38972 -0.84723,-0.38971 -2.15197,0.59307 -2.6942,1.79614 -0.17751,0.39385 -0.16945,-1.67752 -0.16945,-1.67752 z m -3.07155,-13.65774 h 2.6839 v 9.17798 c -1.12628,0 -3.30695,-1.27006 -3.30695,-2.97146 0,-1.7014 1.48573,-2.63598 2.06085,-2.77975 -0.16774,-1.43781 -1.1742,-2.30049 -1.62951,-2.70787 -0.45531,-0.40738 -0.19171,-0.7189 0.19171,-0.7189 z"
       inkscape:connector-curvature="0"
       sodipodi:nodetypes="csssssssscsccscss" />
    <path
       style="fill:url(#linearGradient4619);stroke-width:0.05;stroke-linecap:round;stroke-linejoin:round"
       d="m 171.14657,236.94773 c 0.47926,0 0.50323,0.52719 0.23963,0.91061 -0.2636,0.38341 -1.55762,1.98896 -1.65347,2.63597 1.10231,0.40738 1.91707,1.27006 1.91707,2.89957 0,1.55762 -1.82122,2.7558 -2.85165,2.7558 v 6.63786 c 0,0.52719 -0.76683,0.62305 -0.76683,-0.0959 0,-1.22213 -1.60555,-2.51616 -2.49219,-1.94104 -0.53077,0.34429 -0.79437,-0.19016 -0.57512,-0.43134 0.14311,-0.15743 0.35289,-0.58399 0.25686,-0.85199 -0.12332,-0.34416 -1.12136,-1.15693 -1.4071,-0.75355 -0.20169,0.28472 -0.98209,-0.10887 -0.86269,-0.40738 0.28756,-0.7189 -0.43134,-1.67742 -1.22213,-1.84518 -0.4094,-0.0868 -0.21506,-0.61995 0.14378,-0.59909 2.06085,0.11982 4.62494,1.91708 5.65536,3.54659 0.1904,0.3011 0.62877,0.26467 0.59909,-0.23961 -0.024,-0.40738 0,-12.22132 0,-12.22132 z"
       id="path4564"
       inkscape:connector-curvature="0"
       sodipodi:nodetypes="sscscssssssssssscs" />
    <path
       style="fill:url(#linearGradient4619);stroke-width:0.05;stroke-linecap:round;stroke-linejoin:round"
       d="m 183.53564,225.54115 c 0.38341,0 0.59909,0.31153 0.14378,0.69494 -0.45531,0.38342 -1.29402,1.22213 -1.29402,1.98896 0.74407,0.25949 1.12628,1.12919 1.12628,1.77329 0,1.25411 -1.32249,1.93409 -1.78,1.93409 v 3.20254 c 0.96585,-1.74529 2.50781,-2.9314 4.50729,-2.5417 0.21685,0.0423 0.24175,0.43978 -0.0169,0.42362 -0.54223,-0.0339 -0.91499,0.50834 -0.86418,1.01668 0.0153,0.15267 -0.1165,0.26967 -0.35584,0.22028 -1.06751,-0.22028 -1.50808,0.52529 -0.96584,1.18613 0.0924,0.11267 -0.12974,0.55802 -0.32195,0.47445 -1.16919,-0.50831 -1.85855,0.57551 -1.88086,0.99974 -0.0169,0.32194 -0.52522,0.31537 -0.66084,-0.11862 -0.25416,-0.81334 -0.86418,-1.10138 -1.64364,-0.93195 -0.26544,0.0577 -0.30456,-0.24646 -0.20333,-0.42362 0.40666,-0.71167 -0.0678,-1.20308 -1.35558,-1.06752 -0.32195,0.0339 -0.51824,-0.16977 -0.20333,-0.33889 0.91501,-0.49139 0.57611,-1.23699 -1.05057,-1.15224 -0.20376,0.0106 -0.6919,-0.37117 -0.1525,-0.52528 1.66057,-0.47445 3.50754,0.61001 4.64284,2.52476 v -2.91449 c -0.9489,0 -2.06726,-0.91502 -2.06726,-1.91475 0,-1.08446 0.89808,-1.64363 1.22002,-1.71141 -0.1525,-0.76251 -1.15223,-2.05031 -1.42335,-2.28753 -0.27112,-0.23723 -0.23469,-0.51148 0.23847,-0.51148 z"
       id="path4570"
       inkscape:connector-curvature="0"
       sodipodi:nodetypes="sscsccssssssssssssssccscsss" />
    <path
       style="fill:url(#linearGradient4619);stroke-width:0.05;stroke-linecap:round;stroke-linejoin:round"
       d="m 178.63081,242.94647 c -0.0169,0.33889 -0.0508,1.52502 0,1.72836 0.0508,0.20333 -0.4914,0.57612 -0.72863,0.0508 -0.23722,-0.52528 0.0508,-1.67752 0.16945,-1.83002 0.11861,-0.15251 0.55918,-0.1864 0.55918,0.0508 z"
       id="path4572"
       inkscape:connector-curvature="0" />
    <path
       style="fill:url(#linearGradient4619);stroke-width:0.05;stroke-linecap:round;stroke-linejoin:round"
       d="m 182.69753,241.54006 c 0.16944,-0.44056 0.37278,-0.49139 0.57612,-0.0847 0.20333,0.40667 0.32195,1.11835 -0.0508,1.55891 -0.37278,0.44056 -0.42361,0.305 -0.62695,-0.0169 -0.20334,-0.32194 -0.11861,-1.05057 0.10167,-1.45724 z"
       id="path4574"
       inkscape:connector-curvature="0" />
    <path
       style="fill:url(#linearGradient4619);stroke-width:0.05;stroke-linecap:round;stroke-linejoin:round"
       d="m 181.85029,244.01398 c 0.23723,0.45751 0.25417,1.94864 0.0169,2.33837 -0.23723,0.38973 -0.67779,0.45751 -0.7964,0 -0.11862,-0.45751 -0.0678,-1.99947 0.10167,-2.28753 0.16944,-0.28806 0.49139,-0.4914 0.67778,-0.0508 z"
       id="path4576"
       inkscape:connector-curvature="0" />
    <path
       style="fill:url(#linearGradient4619);stroke-width:0.05;stroke-linecap:round;stroke-linejoin:round"
       d="m 190.52597,238.37133 c 0.0847,0.27113 0.13556,0.99975 -0.0339,1.27088 -0.16945,0.27112 -0.47445,0.35585 -0.72862,0.0169 -0.25417,-0.33889 -0.1525,-1.06751 0.16945,-1.33858 0.15251,-0.30496 0.50835,-0.22024 0.59307,0.0508 z"
       id="path4578"
       inkscape:connector-curvature="0"
       sodipodi:nodetypes="ccccc" />
    <path
       style="fill:url(#linearGradient4619);stroke-width:0.05;stroke-linecap:round;stroke-linejoin:round"
       d="m 191.30542,238.25275 c -0.16945,-0.305 -0.0339,-0.83028 0.0678,-1.05054 0.0339,-0.4236 0.52528,-0.28804 0.59306,0.0339 0.0678,0.32193 0.13554,0.77944 -0.11862,1.15221 -0.25418,0.37277 -0.37279,0.16944 -0.54224,-0.13557 z"
       id="path4580"
       inkscape:connector-curvature="0"
       sodipodi:nodetypes="ccccc" />
    <path
       style="fill:url(#linearGradient4619);stroke-width:0.05;stroke-linecap:round;stroke-linejoin:round"
       d="m 192.79656,234.11829 c -0.16945,-0.0339 -0.52529,-1.01668 -0.38973,-1.1014 0.13556,-0.0847 0.9489,0.54223 0.9489,0.61001 0,0.0678 -0.40667,0.49139 -0.55917,0.49139 z"
       id="path4582"
       inkscape:connector-curvature="0"
       sodipodi:nodetypes="ccsc" />
    <path
       style="fill:url(#linearGradient4619);stroke-width:0.05;stroke-linecap:round;stroke-linejoin:round"
       d="m 196.03299,235.99916 c 0.11861,0.15251 0.0678,0.61001 0.0169,0.74557 -0.0508,0.13556 -0.49139,0.0339 -0.59306,-0.0508 -0.10167,-0.0847 -0.18639,-0.50834 -0.0169,-0.72865 0.16944,-0.13558 0.47445,-0.11863 0.59306,0.0339 z"
       id="path4584"
       inkscape:connector-curvature="0"
       sodipodi:nodetypes="ccscsc" />
  </g>
  <g
     inkscape:groupmode="layer"
     id="layer7"
     inkscape:label="sheep">
    <path
       id="path4604"
       style="fill:url(#linearGradient4625);stroke-width:0.05;stroke-linecap:round;stroke-linejoin:round"
       d="m 149.17391,118.90295 c 1.02488,0.0173 1.09428,1.85554 0.005,1.89743 -1.05958,-0.047 -1.15056,-1.92705 -0.005,-1.89743 z m 8.15082,19.88364 c 1.7181,-0.2666 3.25847,0.6517 3.22885,1.00717 -0.0296,0.35546 -2.84376,-0.97754 -3.22885,-1.00717 z m -22.75003,-4.32487 c 1.35668,3.93594 4.83035,6.59948 9.98276,7.28712 -3.34733,1.54036 -4.35449,4.02865 -4.38412,4.53223 -0.0296,0.50358 0.91017,2.64485 1.86622,2.72526 3.1696,0.2666 6.42806,-3.1696 6.63542,-3.55469 0.20736,-0.38509 0.4587,-0.0861 0.50358,0.2666 0.62207,4.8877 4.76922,6.69467 11.40464,8.44239 -0.82943,1.74772 -0.14812,3.08074 2.34017,3.61394 0.82943,-0.29623 1.83659,-1.1849 2.13282,-1.68848 -0.62208,-0.38509 -2.60678,-0.85905 -2.87338,-0.94792 -0.2666,-0.0889 -0.17774,-0.47396 0.0296,-0.59244 0.88868,-0.38509 0.67252,-2.13344 -0.50358,-2.3698 -9.11483,-1.83176 -12.08595,-4.38412 -10.45672,-10.66407 1.00716,-0.59245 0.59246,1.24414 1.77735,-0.32585 3.22885,4.29525 8.47201,4.97657 14.30763,3.08073 0.56283,-0.35546 1.30339,-2.07356 1.24415,-2.81413 -5.06544,2.78451 -11.67124,2.57716 -15.61103,-0.94792 1.21452,-1.00716 4.83983,1.55536 6.93165,1.27377 3.08074,-0.41472 3.26751,-3.97114 0.0296,-4.8877 -2.17344,-0.61525 -5.50977,0.14811 -7.70184,2.07357 -0.85905,-0.17777 -1.80697,0.41471 -2.07356,1.03678 -7.31745,0.77948 -12.96916,-3.05511 -14.36686,-7.31674 -0.66692,0.17986 -1.23395,1.01523 -1.2145,1.77735 z"
       inkscape:connector-curvature="0"
       sodipodi:nodetypes="ccccccccccscccccccccccccccccc" />
    <path
       style="fill:url(#linearGradient4619);stroke-width:0.05;stroke-linecap:round;stroke-linejoin:round"
       d="m 152.88137,142.34128 0.65169,-0.47396 c 0,0 -0.40643,-0.62572 -0.59245,-1.03678 -0.28246,-0.62417 0.40183,-1.0338 0.97754,-0.50358 0.2179,0.20068 0.60981,0.83451 0.75792,1.10112 1.90959,-0.16404 3.68118,1.97365 3.77431,3.25338 0.0359,0.49302 -0.48139,0.64507 -0.52472,0.88946 -0.57547,0.17323 -1.0656,-0.52617 -1.31187,-0.32664 0.20736,0.32585 0.3572,0.50305 0.3572,0.50305 0.52365,-0.10472 1.33736,0.89597 0.25135,1.6338 -1.17821,0.80048 -1.75948,-0.73312 -1.42434,-1.31961 -0.021,-0.10473 -0.16757,-0.41892 -0.16757,-0.41892 -1.09635,1.02547 -0.7349,1.68856 -0.33514,1.9061 0.12567,0.52366 -0.78133,0.89015 -1.82232,0.3142 -1.41959,-0.78541 -1.88516,-3.60275 -1.31961,-4.46155 -0.79596,-0.56554 -1.34147,-1.2392 -1.06826,-1.57096 0.29325,-0.35609 1.24655,0.163 1.79627,0.51089 z"
       id="path4601"
       inkscape:connector-curvature="0"
       sodipodi:nodetypes="ccsscscccscccscsc" />
    <path
       id="path4610"
       style="fill:#ffffff;stroke-width:0.05;stroke-linecap:round;stroke-linejoin:round"
       d="m 146.48292,119.14692 c -0.20735,-2.16244 4.44337,-2.04395 3.88054,1.39226 -1.56999,0.62206 -2.01433,0.0296 -3.88054,-1.39226 z m -17.50685,-8.76824 c -0.47396,-0.29622 -0.74057,0.50358 -0.26661,0.77018 0.9183,0.85906 5.48015,3.49545 5.98373,3.58432 0.94792,-0.23698 2.3698,-0.68132 2.81413,-0.44434 -0.50358,0.0296 -0.62207,0.20736 -0.91829,0.38509 -1.09603,0.20736 -4.17676,1.06641 -5.36166,2.22169 0.23698,1.92545 2.903,2.01432 3.82129,1.7181 -1.33301,0.85905 -2.22168,0.65169 -2.78451,0.29622 -1.18489,2.16244 1.06641,4.38412 4.3545,4.17677 -2.84375,0.62207 -4.68034,-1.12566 -5.18392,-1.8366 -0.0592,-0.20735 -0.20736,-0.38509 -0.47396,-0.47396 0.65169,-0.20735 1.24414,-2.13281 -0.0296,-2.75488 -1.1849,0.7998 -1.15528,2.45866 -0.14812,2.81413 -0.71094,0.41471 -0.38509,1.06641 -0.23698,1.39225 0.47397,1.27377 2.13282,3.08074 6.19109,3.67318 -1.06641,1.12566 -0.77018,2.75489 -0.0889,3.34734 -1.80696,2.10319 -1.09603,2.42904 -0.74056,3.08073 -0.50358,0 -0.59244,0.29623 -0.65169,1.03679 2.6364,6.72429 13.06349,8.08692 14.87046,6.22071 1.54037,-0.11849 4.32487,-2.39942 3.85092,-3.05111 0.5332,-0.17774 0.0592,-1.15528 -0.14811,-1.56999 1.21451,-0.41472 1.21451,-1.39226 0.82942,-2.72527 2.45866,-1.95507 -1.56998,-3.31771 -0.68131,-5.92448 2.54753,8.73862 9.15333,6.3392 12.32293,9.18295 -1.4515,-0.29622 -4.44337,-1.48112 -4.85808,-1.18489 1.83659,2.7845 4.91732,2.6364 5.62826,2.16243 0.77018,-0.38509 0.9031,-1.20092 0.14811,-1.86621 -2.99186,-2.6364 -4.85808,-10.4271 -8.8571,-11.2269 0.65169,-1.12565 0.7998,-2.60678 -0.0593,-3.37696 0.94792,-1.33301 0.68132,-2.13281 0.11849,-2.96224 0.71094,-1.4515 0,-3.73243 -1.03678,-4.29525 0.0592,-1.95508 -1.56999,-3.11036 -2.48829,-3.34734 -0.50358,-1.24414 -1.89583,-1.74772 -2.81413,-1.68848 -1.1849,-1.51074 -2.19206,-1.65885 -3.46582,-1.18489 -1.36264,-1.21452 -2.81414,-0.56283 -3.58432,0.0889 -1.4515,-0.29622 -2.2513,0.38509 -2.69564,1.24414 -2.19206,0.0296 -3.4362,1.4515 -3.93975,2.99185 -2.36977,-1.77736 -6.60578,0.35545 -9.4199,-0.47398 z m 21.38739,31.75525 c -0.62207,1.95508 -0.48877,4.20638 0.81462,5.64307 0.34061,-0.0296 -0.17774,-0.44433 0.22216,-0.90348 -1.18489,-2.57715 -0.42952,-1.80698 -0.48877,-2.903 -0.13332,-0.69613 0.0889,-1.64404 -0.54801,-1.83659 z m -8.41277,5.03581 c 0.0592,-2.16244 4.85808,-5.1543 5.77637,-5.1543 -0.68131,2.34017 -2.99186,4.38412 -5.77637,5.1543 z m -46.687705,17.93287 c -0.610008,-0.305 -1.626691,-0.20333 -2.033363,0.0678 -0.948902,-0.88113 -1.762247,-0.84724 -2.338364,-0.54224 -0.135559,-1.08445 -0.779457,-1.8978 -1.66058,-2.03336 0.406672,-1.96558 -0.508339,-2.94837 -1.694466,-2.91448 0.881123,-1.96558 -0.06778,-3.69394 -0.813345,-4.10061 0.610007,-1.42336 0.06778,-3.05004 -0.643898,-3.89728 0.643898,-2.5417 0.06778,-4.4395 -1.220017,-5.25285 -0.508339,-5.06647 -5.405352,-3.30422 -5.76119,0.915 -0.915013,1.38947 -1.253906,4.23617 -0.203336,5.49008 -0.474451,1.2878 -0.237226,2.50781 0.338893,3.08393 -0.135557,1.66058 0.779456,3.42283 1.762247,3.89728 -0.440562,1.96558 1.084459,3.55838 2.440034,3.59227 0.271115,0.88112 0.881123,2.2367 2.270587,2.06725 0.271115,1.86392 1.897804,2.47392 3.219489,2.13503 1.186127,1.25391 2.270587,1.25391 3.355046,0.50834 0.54223,0.61001 1.626689,0.44056 2.372255,-0.0339 0.169447,0.3389 0.355839,0.50834 0.610009,0.52529 -0.406672,1.03362 -0.169447,2.08419 0.169447,2.62642 -0.522163,3.09693 0.794511,5.17602 2.009392,5.80441 -0.06284,1.06825 0.418925,2.59733 0.900688,2.99531 1.06107,4.34665 -1.175817,7.05476 -4.482492,9.13255 -0.907258,0.33005 -1.002696,3.80924 0,4.54533 0.418925,0.85879 4.981352,8.05177 6.283869,9.86567 0.51015,0.71044 0.0946,2.44265 0.41892,3.10004 0.14663,0.2723 1.25678,2.97436 1.69665,3.3095 0.43987,0.33514 1.00541,0.48177 1.40339,0.52366 0.74391,2.02521 3.08578,2.84597 5.06899,2.05273 0.25357,-0.10142 -0.56258,-2.79663 -1.04731,-3.896 0.47519,0.63347 2.13651,2.57639 2.24124,2.82774 1.22716,-0.4737 1.39857,-2.33135 0.0209,-3.74937 0,-0.29325 -0.0209,-0.67028 0.10473,-0.87974 -0.23041,-0.35609 -0.50271,-1.25678 -0.85879,-1.50813 -3.11098,-1.64361 -7.11376,-8.18788 -8.00243,-11.09087 -0.0103,-0.19545 0.0645,-1.03587 0.20879,-1.39257 0.33735,-0.31263 1.68542,-2.15022 2.07213,-2.51759 1.06261,-0.57124 2.6142,-1.81394 3.04252,-2.02769 2.67996,-1.33745 6.3604,-3.30029 7.74005,-6.62206 -1.39393,3.89101 -5.77417,6.25565 -8.9163,7.90919 -0.41472,0.32584 -0.62108,0.66092 -0.3049,1.29979 0.52397,1.05873 3.44487,5.4245 3.80034,7.26109 0.35547,1.83659 -0.0381,5.42123 0.0875,5.84015 0.37703,0.98447 1.80138,2.80679 1.86422,3.07909 0.0628,0.27231 -0.0628,0.56555 0.0628,0.8588 0.64933,2.17841 2.19935,2.84868 3.53991,2.38787 0.23041,-0.16758 0.2723,-2.80679 0.16757,-3.41424 0.37703,0.52366 1.44529,2.68112 1.50813,2.78585 1.0473,-0.8169 1.25677,-2.99531 0.56554,-4.37776 0.14663,-0.12568 0.37704,-0.35608 0.37704,-0.35608 l -0.2723,-0.71218 c 0.58649,-0.71217 -1.21488,-2.84869 -2.61828,-4.21019 0.16757,-0.41892 0.12568,-0.43987 -0.12568,-0.77501 -1.29866,-2.51355 -2.53449,-6.32575 -2.24125,-9.13255 -0.0419,-0.58649 0.12568,-0.96353 0.48177,-1.13109 0.98447,-0.2723 2.11557,-1.25678 2.61828,-1.90611 0.75406,-0.0418 1.71759,-0.75406 1.82232,-1.75948 1.78043,-0.50271 2.93246,-2.32504 2.53449,-4.29398 0.60752,-0.79596 0.64941,-1.88516 0.29333,-2.51355 0.75406,-1.15204 0.35608,-3.47707 -0.52366,-3.68653 0.12568,-0.41893 -0.85879,-1.38245 -1.00542,-1.42434 0.10473,-0.23041 0.0628,-0.67028 -0.0419,-0.8588 0.5446,-0.60744 0.48176,-2.36692 0.12568,-2.59733 1.0892,0.0419 2.36692,-0.73312 2.78585,-1.29867 1.29866,0 2.4926,-0.39797 3.22571,-1.13109 1.04731,0.37703 2.70207,0.16757 3.14194,-0.0419 -0.12568,1.48719 0.67028,2.84869 1.67569,2.72301 -0.20946,1.31962 0.43988,2.34598 1.21489,2.4926 -0.23041,1.06826 0.0209,1.82233 1.52907,2.24125 -0.0838,1.42434 0.52366,2.28314 1.00542,2.57639 -0.23041,0.52365 -0.12568,0.98447 0.10473,1.13109 -0.41893,0.48176 -0.0838,1.88516 0.37703,2.38787 -0.8169,0.56555 -1.25677,2.01084 -0.83785,2.63922 -1.04731,0.12568 -1.27772,1.34056 -1.31961,2.17841 -0.85879,0.33514 -1.44529,1.96895 -1.46623,2.4926 -0.25136,0.0419 -0.54461,0.35609 -0.56555,0.5446 -1.21488,0.60744 -2.13652,2.01084 -2.2203,3.01626 -1.08921,0.12568 -1.75949,1.55002 -0.73312,3.45613 -0.12568,0.0838 -0.0209,0.46081 0.14662,0.60744 -0.39797,0.18851 -0.50271,0.67028 -0.37703,0.79595 -0.18851,0.0838 -0.25952,0.23236 -0.29325,0.52366 -0.23041,1.98989 0.48176,3.87505 2.2203,4.35681 0.71217,-0.0838 1.36151,-1.67569 1.78043,-3.01625 0.0628,0.77501 -0.23041,2.91152 -0.16757,3.16288 0.52366,0.60744 3.01626,-0.48177 2.78585,-4.46155 1.50814,-0.75406 0.85341,-2.05717 1.11016,-3.49802 0.83556,-4.68908 7.26392,-12.12817 7.4778,-15.14412 0.22433,-3.16331 -2.03178,-4.06357 -2.17841,-9.06971 0.56555,2.66017 2.5345,7.16361 2.61828,7.70821 -0.0419,1.04731 0.18852,2.63922 0.92164,3.05815 -0.12568,0.60744 0.12567,1.06825 0.0209,1.38245 -0.41893,1.3615 -2.03178,4.18924 -2.53449,5.61359 -0.85879,0.12567 -1.38245,0.96352 -1.36151,1.71759 -0.52365,0.14662 -1.21488,0.52365 -1.21488,1.13109 -1.61286,0.56555 -2.30408,2.86963 -1.73853,4.67101 -1.29867,1.69665 -0.79594,4.56628 0.71217,5.02709 0.5865,-0.2723 1.44529,-1.23582 2.01084,-2.38787 -0.0209,0.75407 -0.56555,1.61287 -0.46082,2.57639 1.67569,0.46081 3.10004,-1.46623 3.02885,-3.81563 1.44315,-0.22305 3.71319,-8.28687 6.56783,-12.96069 0.65161,-1.06686 1.68767,-2.1583 1.77735,-3.99903 0.0666,-1.36822 -0.56283,-2.2513 -0.88868,-2.60677 0.26573,-0.71124 -0.2539,-1.79286 -0.65169,-2.10319 0.14816,-1.06642 -0.56283,-2.28093 -1.12565,-2.69564 0.23697,-0.94792 -0.23698,-2.22169 -0.94792,-2.42904 0.65169,-0.97754 0.17773,-2.72527 -0.79981,-3.08074 0.44434,-0.44433 0.38509,-1.89583 -0.11849,-2.54753 0.68132,-0.2666 1.12565,-1.39226 1.12565,-2.28092 1.1849,0.1481 2.13282,-1.24414 1.92546,-2.60678 1.09603,-0.14811 1.24414,-1.56999 1.21452,-3.28809 1.48112,-0.56282 1.39226,-2.16243 0.94792,-3.25846 0.55301,-0.51477 0.80319,-1.45161 0.76682,-1.9787 -0.12338,-1.78797 -1.85619,-1.68817 -1.98134,-4.86409 -2.04394,2.75489 -5.62175,3.85856 -6.66505,3.58432 -1.36948,-0.35998 -2.29055,-2.01637 -2.10319,-2.87337 0.19033,-0.87053 2.36979,-3.5547 3.99903,-4.59148 -4.59148,-0.17773 -8.64975,-3.52507 -9.71616,-7.31674 -0.94792,-0.20736 -1.51074,0.82942 -1.65885,1.4515 -0.97754,-0.41472 -2.22169,0.32584 -2.60678,1.30338 -0.82943,-0.2666 -1.92546,0.41472 -2.19206,1.27376 -1.54037,-0.59244 -3.22884,0.0593 -3.99903,1.30339 -1.39225,-0.5332 -3.22884,1e-5 -4.35449,1.27377 -0.88868,-0.35547 -2.07357,0.59245 -2.3698,1.36263 -0.61249,-0.4928 -1.60758,-0.15446 -2.45614,0.68541 -0.85766,0.23478 -1.72152,0.87411 -2.2242,1.8325 -0.9183,0.0296 -2.01433,0.71094 -2.31055,1.39225 -1.48112,-0.56282 -2.54753,0.74057 -2.93262,2.66602 -2.10319,0 -3.13998,1.1849 -3.28809,3.02149 -1.77735,0.2666 -3.11036,1.89583 -3.05111,2.57715 -0.740563,0.0296 -1.392256,1.33301 -1.30339,2.22168 -0.829427,0.11849 -1.392254,1.98471 -1.392253,3.19923 -0.859051,0.59245 -1.333011,1.95508 -1.392255,3.02149 -0.444336,0.44433 -1.012671,1.53333 -1.009917,2.08486 z"
       inkscape:connector-curvature="0" />
  </g>
</svg>
