<?xml version="1.0" encoding="UTF-8" standalone="no"?>
<!-- Created with Inkscape (http://www.inkscape.org/) -->

<svg
   xmlns:dc="http://purl.org/dc/elements/1.1/"
   xmlns:cc="http://creativecommons.org/ns#"
   xmlns:rdf="http://www.w3.org/1999/02/22-rdf-syntax-ns#"
   xmlns:svg="http://www.w3.org/2000/svg"
   xmlns="http://www.w3.org/2000/svg"
   xmlns:xlink="http://www.w3.org/1999/xlink"
   xmlns:sodipodi="http://sodipodi.sourceforge.net/DTD/sodipodi-0.dtd"
   xmlns:inkscape="http://www.inkscape.org/namespaces/inkscape"
   width="210mm"
   height="297mm"
   viewBox="0 0 210 297"
   version="1.1"
   id="svg8"
   inkscape:version="0.92.1 r15371"
   sodipodi:docname="The_President_Restaurant.svg">
  <defs
     id="defs2">
    <inkscape:path-effect
       effect="skeletal"
       id="path-effect6678"
       is_visible="true"
       pattern="M 0.12500002,0.12500002 H 4.6198099 V 303.125 H 0.12500002 Z"
       copytype="repeated"
       prop_scale="1"
       scale_y_rel="true"
       spacing="4"
       normal_offset="0"
       tang_offset="0"
       prop_units="false"
       vertical_pattern="false"
       fuse_tolerance="0" />
    <inkscape:path-effect
       effect="skeletal"
       id="path-effect5108"
       is_visible="true"
       pattern="m 64.309141,119.48244 -2.108085,2.10599 0.539758,2.93051 -2.654348,-1.35413 -2.620284,1.41892 0.467607,-2.94288 -2.159181,-2.05357 2.943345,-0.46468 1.285836,-2.68809 1.35148,2.65569 z"
       copytype="repeated_stretched"
       prop_scale="1"
       scale_y_rel="true"
       spacing="7.8"
       normal_offset="0"
       tang_offset="0"
       prop_units="false"
       vertical_pattern="false"
       fuse_tolerance="0"
       pattern-nodetypes="ccccccccccc" />
    <inkscape:path-effect
       effect="spiro"
       id="path-effect5106"
       is_visible="true" />
    <clipPath
       clipPathUnits="userSpaceOnUse"
       id="clipPath6727">
      <path
         style="opacity:1;fill:#e60033;fill-opacity:1;stroke:#460e44;stroke-width:0.25;stroke-linecap:round;stroke-linejoin:round;stroke-miterlimit:4;stroke-dasharray:none;stroke-dashoffset:0;stroke-opacity:1;paint-order:normal"
         d="M -4.6798177,-9.1518962 V 303.63004 H 170.8211 V -9.1518962 Z M 78.447924,70.925386 A 51.944101,51.944101 0 0 1 130.39204,122.8695 51.944101,51.944101 0 0 1 78.447924,174.81362 51.944101,51.944101 0 0 1 26.50381,122.8695 51.944101,51.944101 0 0 1 78.447924,70.925386 Z"
         id="path6729"
         inkscape:connector-curvature="0" />
    </clipPath>
  </defs>
  <sodipodi:namedview
     id="base"
     pagecolor="#ffffff"
     bordercolor="#666666"
     borderopacity="1.0"
     inkscape:pageopacity="0.0"
     inkscape:pageshadow="2"
     inkscape:zoom="0.72251603"
     inkscape:cx="417.61118"
     inkscape:cy="537.73095"
     inkscape:document-units="mm"
     inkscape:current-layer="layer5"
     showgrid="true"
     inkscape:snap-page="true"
     inkscape:snap-bbox="true"
     borderlayer="true"
     inkscape:showpageshadow="false"
     inkscape:snap-global="true"
     inkscape:bbox-paths="true"
     inkscape:pagecheckerboard="true"
     inkscape:snap-center="true"
     inkscape:snap-intersection-paths="true"
     inkscape:bbox-nodes="true"
     inkscape:snap-smooth-nodes="true"
     inkscape:object-paths="true"
     showguides="true"
     inkscape:guide-bbox="true">
    <sodipodi:guide
       position="0,300"
       orientation="0,1"
       id="guide5068"
       inkscape:locked="false" />
    <sodipodi:guide
       position="-3.673819e-016,-3.0000001"
       orientation="0,1"
       id="guide5070"
       inkscape:locked="false" />
    <sodipodi:guide
       position="159.39601,228.52277"
       orientation="1,0"
       id="guide5076"
       inkscape:locked="false" />
    <sodipodi:guide
       position="-3,148.5"
       orientation="0,1"
       id="guide5102"
       inkscape:locked="false" />
    <sodipodi:guide
       position="184.698,274.69802"
       orientation="1,0"
       id="guide6756"
       inkscape:locked="false" />
  </sodipodi:namedview>
  <metadata
     id="metadata5">
    <rdf:RDF>
      <cc:Work
         rdf:about="">
        <dc:format>image/svg+xml</dc:format>
        <dc:type
           rdf:resource="http://purl.org/dc/dcmitype/StillImage" />
        <dc:title></dc:title>
        <cc:license
           rdf:resource="http://creativecommons.org/publicdomain/zero/1.0/" />
        <dc:source>https://digitalcollections.nypl.org/items/af1f02d7-5697-ce42-e040-e00a18064e03</dc:source>
      </cc:Work>
      <cc:License
         rdf:about="http://creativecommons.org/publicdomain/zero/1.0/">
        <cc:permits
           rdf:resource="http://creativecommons.org/ns#Reproduction" />
        <cc:permits
           rdf:resource="http://creativecommons.org/ns#Distribution" />
        <cc:permits
           rdf:resource="http://creativecommons.org/ns#DerivativeWorks" />
      </cc:License>
    </rdf:RDF>
  </metadata>
  <g
     inkscape:groupmode="layer"
     id="layer3"
     inkscape:label="white"
     sodipodi:insensitive="true">
    <rect
       style="fill:#ffffff"
       id="rect4494"
       width="210"
       height="297"
       x="0"
       y="0" />
  </g>
  <g
     inkscape:groupmode="layer"
     id="layer5"
     inkscape:label="border"
     sodipodi:insensitive="true">
    <rect
       style="fill:#a99e93;stroke-width:0.24999997;stroke-linecap:round;stroke-linejoin:round"
       id="rect5116"
       width="53.604"
       height="302.99997"
       x="159.396"
       y="-3.0000002" />
    <path
       style="fill:#d3cbc6;stroke-width:0.25;stroke-linecap:round;stroke-linejoin:round"
       d="m 159.39523,300 c -1.49825,-10e-6 -2.99651,-10e-6 -4.49476,-2e-5 l 0.001,-303.0000018 c 1.49829,7.1e-6 2.99657,1.43e-5 4.49486,2.18e-5 z m -8.49473,-4e-5 c -1.49825,-10e-6 -2.99651,-10e-6 -4.49476,-2e-5 l 0.001,-302.9999996 c 1.49828,6.3e-6 2.99656,1.28e-5 4.49485,1.95e-5 z m -8.49473,-4e-5 c -1.49825,0 -2.99651,-10e-6 -4.49477,-10e-6 l 0.001,-303.000003 c 1.49828,5.5e-6 2.99656,1.12e-5 4.49485,1.71e-5 z m -8.49473,-3e-5 c -1.49825,0 -2.99651,-10e-6 -4.49477,-10e-6 l 9.6e-4,-303.0000019 c 1.49828,4.7e-6 2.99656,9.6e-6 4.49485,1.47e-5 z m -8.49473,-2e-5 c -1.49825,-10e-6 -2.99651,-10e-6 -4.49477,-2e-5 l 8e-4,-302.9999964 c 1.49828,3.9e-6 2.99657,8e-6 4.49485,1.24e-5 z m -8.49473,-3e-5 c -1.49826,0 -2.99651,0 -4.49477,-1e-5 l 6.4e-4,-302.9999965 c 1.49828,3.1e-6 2.99657,6.5e-6 4.49485,1.01e-5 z m -8.49473,-1e-5 c -1.49826,-10e-6 -2.99651,-10e-6 -4.49477,-10e-6 l 4.8e-4,-303.0000021 c 1.49828,2.3e-6 2.99657,4.9e-6 4.49485,7.7e-6 z m -8.494731,-2e-5 c -1.498256,0 -2.996512,0 -4.494768,0 l 3.2e-4,-303.0000034 c 1.498284,1.6e-6 2.996568,3.4e-6 4.494852,5.4e-6 z m -8.494608,-1e-5 c -1.49827,0 -2.99654,0 -4.49481,0 V -3.0002001 c 1.49827,8e-7 2.99654,1.8e-6 4.49481,3e-6 z m -8.49481,0 c -1.49827,0 -2.99654,0 -4.49481,0 V -3.0002025 c 1.49827,0 2.99654,3e-7 4.49481,7e-7 z m -8.49481,0 c -1.49827,0 -2.99654,0 -4.49481,0 V -3.0002004 c 1.49827,-8e-7 2.99654,-1.3e-6 4.49481,-1.7e-6 z m -8.494696,0 c -1.498256,0 -2.996512,0 -4.494768,1e-5 L 61.458116,-3.0001939 c 1.498284,-1.5e-6 2.996567,-2.9e-6 4.494851,-4e-6 L 65.953081,299.9998 m -8.494617,1e-5 c -1.498256,0 -2.996512,0 -4.494768,10e-6 L 52.963227,-3.0001829 c 1.498284,-2.4e-6 2.996568,-4.5e-6 4.494851,-6.4e-6 z m -8.49473,10e-6 c -1.498256,10e-6 -2.996512,10e-6 -4.494768,10e-6 L 44.468338,-3.0001675 c 1.498284,-3.1e-6 2.996568,-6e-6 4.494851,-8.7e-6 z m -8.494731,2e-5 c -1.498256,0 -2.996512,10e-6 -4.494768,10e-6 L 35.973449,-3.0001477 c 1.498284,-3.9e-6 2.996568,-7.6e-6 4.494852,-1.11e-5 z m -8.494731,2e-5 c -1.498256,10e-6 -2.996512,10e-6 -4.494768,2e-5 L 27.47856,-3.0001235 c 1.498284,-4.6e-6 2.996568,-9.1e-6 4.494852,-1.34e-5 z m -8.494731,3e-5 c -1.498256,0 -2.996512,1e-5 -4.494768,2e-5 l -0.0011,-303.0000048 c 1.498284,-5.4e-6 2.996568,-1.07e-5 4.494852,-1.57e-5 z m -8.494731,3e-5 c -1.498256,1e-5 -2.996512,1e-5 -4.494768,2e-5 l -0.0013,-303.0000017 c 1.498284,-6.2e-6 2.996568,-1.22e-5 4.494852,-1.81e-5 z m -8.4947305,4e-5 c -1.498256,0 -2.996512,1e-5 -4.4947681,2e-5 L 1.9938931,-3.0000241 c 1.4982839,-7e-6 2.9965678,-1.39e-5 4.4948517,-2.05e-5 z"
       id="path6660"
       inkscape:connector-curvature="0"
       inkscape:path-effect="#path-effect6678"
       inkscape:original-d="M 159.39599,148.5 C 105.26426,148.49973 51.13226,148.49973 -3,148.5"
       clip-path="url(#clipPath6727)" />
  </g>
  <g
     inkscape:groupmode="layer"
     id="layer4"
     inkscape:label="star"
     sodipodi:insensitive="true">
    <path
       style="fill:#302833;stroke-width:0.25;stroke-linecap:round;stroke-linejoin:round"
       d="m 39.199274,141.58702 c 0.959224,0.34747 1.919332,0.65549 2.877543,0.92422 0.78483,-0.63111 1.576696,-1.25173 2.375379,-1.86177 -0.02435,0.93321 -0.01306,1.87947 0.0357,2.83614 0.842948,0.4576 1.692145,0.87606 2.544408,1.25482 -0.896694,0.45501 -1.799141,0.9004 -2.707169,1.3361 -0.1713,0.9787 -0.307233,1.97653 -0.405633,2.99162 -0.742976,-0.71318 -1.463746,-1.45699 -2.160369,-2.22964 -1.006426,0.12451 -2.022409,0.22201 -3.046708,0.29222 0.502378,-0.89752 1.026738,-1.77467 1.571893,-2.63071 -0.397531,-0.96212 -0.759212,-1.93399 -1.085045,-2.913 z m -4.31446,-16.31213 c 0.563433,0.50798 1.135796,0.9955 1.71608,1.462 0.200155,0.16093 0.401232,0.31936 0.603186,0.47529 0.964203,-0.29061 1.931083,-0.56852 2.900422,-0.83364 -0.373304,0.8532 -0.717267,1.73359 -1.030032,2.63854 0.610447,0.73936 1.241668,1.44517 1.890479,2.11688 -1.00195,0.0859 -2.005594,0.16091 -3.01076,0.225 -0.525143,0.84369 -1.024956,1.7182 -1.497275,2.62167 -0.420844,-0.93926 -0.810661,-1.89832 -1.167507,-2.87536 -0.979891,-0.26106 -1.958516,-0.55068 -2.934635,-0.86914 0.80172,-0.64461 1.616193,-1.26216 2.442233,-1.85193 -0.0039,-0.48889 4.89e-4,-0.97688 0.01312,-1.46371 0.01441,-0.55037 0.03937,-1.09901 0.07469,-1.6456 z m 2.155489,-16.73426 c 0.446884,0.91706 0.922197,1.80618 1.423487,2.66604 1.002852,0.0928 2.003421,0.198 3.001468,0.31556 -0.66652,0.65341 -1.316819,1.3416 -1.947939,2.06332 0.286641,0.91629 0.604503,1.80959 0.951169,2.67775 -0.960256,-0.29927 -1.918023,-0.60914 -2.873124,-0.92957 -0.805151,0.58321 -1.598586,1.20394 -2.377479,1.86171 -0.03451,-1.02865 -0.03301,-2.06385 0.0052,-3.10303 -0.809113,-0.61153 -1.606484,-1.24858 -2.39091,-1.91076 0.98562,-0.29402 1.972799,-0.55868 2.960145,-0.79399 0.384135,-0.96743 0.800583,-1.91718 1.247972,-2.84703 z m 8.296332,-14.691514 c 0.06739,1.017997 0.171196,2.021014 0.310012,3.006638 0.893338,0.465192 1.779932,0.940979 2.659591,1.427212 -0.864632,0.353056 -1.727044,0.743901 -2.58405,1.173003 -0.08103,0.956201 -0.124098,1.902521 -0.130141,2.835891 -0.776184,-0.63924 -1.54596,-1.28752 -2.309196,-1.9447 -0.965438,0.23567 -1.934133,0.51101 -2.903431,0.82709 0.35577,-0.96605 0.748078,-1.924287 1.176186,-2.87216 -0.51791,-0.871899 -1.015135,-1.76323 -1.490866,-2.673013 1.023563,0.100153 2.037413,0.228367 3.04037,0.38391 0.721403,-0.750374 1.466022,-1.472057 2.231525,-2.163871 z M 58.546387,83.352183 c -0.321991,0.968057 -0.604028,1.935972 -0.84604,2.90096 0.652239,0.767187 1.293976,1.541804 1.925128,2.323624 -0.842458,3.99e-4 -1.694787,0.03064 -2.55516,0.09226 -0.09147,0.0065 -0.183037,0.01338 -0.274697,0.02061 -0.432541,0.854954 -0.825539,1.715528 -1.179934,2.578628 -0.480677,-0.883185 -0.951996,-1.772351 -1.413825,-2.66737 -0.983275,-0.142866 -1.984777,-0.249729 -3.001852,-0.319508 0.691343,-0.762562 1.413554,-1.504541 2.165894,-2.223384 -0.153499,-1.002485 -0.28003,-2.015455 -0.378782,-3.037929 0.227934,0.118947 0.454628,0.239321 0.680065,0.361111 0.676914,0.365822 1.342241,0.744403 1.995718,1.13522 0.951335,-0.424378 1.913365,-0.812378 2.883485,-1.164216 z m 16.190822,-4.74701 c -0.660884,0.777228 -1.28436,1.569374 -1.870358,2.373651 0.317642,0.955621 0.622931,1.914149 0.915784,2.875358 -0.865276,-0.348208 -1.756227,-0.667297 -2.670382,-0.955203 -0.723577,0.630613 -1.413511,1.280722 -2.068986,1.947198 -0.111987,-0.999555 -0.21326,-2.00108 -0.303774,-3.004397 -0.8576,-0.502781 -1.744944,-0.979744 -2.660335,-1.428581 0.928021,-0.445059 1.87649,-0.859806 2.843444,-1.24245 0.234774,-0.986612 0.497729,-1.972704 0.789042,-2.957019 0.665438,0.784329 1.304526,1.581907 1.916642,2.39149 1.040358,-0.03683 2.077533,-0.03678 3.108923,-4.7e-5 z m 16.786292,1.706444 c -0.905057,0.470855 -1.781773,0.969068 -2.628618,1.49231 -0.06696,1.005028 -0.146298,2.00813 -0.237968,3.009069 -0.670996,-0.649821 -1.375787,-1.282534 -2.113362,-1.895085 -0.908588,0.309884 -1.793111,0.650388 -2.651225,1.019288 0.274175,-0.967527 0.559106,-1.932838 0.854738,-2.895761 -0.603574,-0.789764 -1.244507,-1.566684 -1.922576,-2.327901 1.027459,-0.06149 2.062437,-0.08674 3.102323,-0.07528 0.590549,-0.824505 1.207035,-1.637942 1.848941,-2.43915 0.319221,0.977653 0.609032,1.957672 0.86956,2.938673 0.976947,0.359122 1.937042,0.750918 2.878187,1.173832 z m 14.914359,7.888366 c -1.01589,0.09358 -2.01569,0.223442 -2.99687,0.388436 -0.44135,0.90511 -0.89364,1.803656 -1.35669,2.695465 -0.37461,-0.85418 -0.78726,-1.70484 -1.2387,-2.548855 -0.6191,-0.03493 -1.233527,-0.05366 -1.842435,-0.05638 -0.332263,-0.0017 -0.662974,0.0013 -0.992031,0.0089 0.616387,-0.794406 1.242119,-1.582591 1.877142,-2.364381 -0.262823,-0.958159 -0.566439,-1.918495 -0.910624,-2.878151 0.867722,0.291125 1.730358,0.611407 2.586058,0.961184 0.10676,0.04367 0.2134,0.08779 0.31991,0.132371 0.85726,-0.542007 1.7349,-1.063288 2.63187,-1.563134 -0.0713,1.026454 -0.17155,2.04361 -0.29992,3.050364 0.76977,0.701285 1.51085,1.426825 2.22229,2.174185 z m 10.84905,12.922097 c -0.97712,-0.29392 -1.95279,-0.54724 -2.9245,-0.76112 -0.7478,0.67437 -1.50329,1.33853 -2.26629,1.99231 -0.0278,-0.93177 -0.093,-1.87549 -0.19623,-2.828027 -0.86789,-0.409201 -1.74019,-0.77963 -2.61375,-1.111924 0.8703,-0.504136 1.74671,-0.99923 2.62909,-1.485165 0.11592,-0.987236 0.19615,-1.991421 0.23937,-3.010017 0.78041,0.671002 1.54127,1.372929 2.2801,2.1048 0.99778,-0.181244 2.00644,-0.336374 3.02492,-0.464678 -0.45095,0.92449 -0.9247,1.8301 -1.42039,2.715725 0.45143,0.938169 0.86764,1.888346 1.24768,2.848096 z m 5.17326,16.06047 c -0.79472,-0.63969 -1.60315,-1.24236 -2.42254,-1.80765 -0.94725,0.34245 -1.8977,0.67277 -2.85112,0.99093 0.32544,-0.87546 0.62163,-1.77512 0.88625,-2.69676 -0.64885,-0.70768 -1.31607,-1.38116 -1.99865,-2.01929 0.99628,-0.13736 1.99483,-0.26402 2.99549,-0.37996 0.48091,-0.87004 0.93515,-1.76907 1.36025,-2.69563 0.46871,0.91633 0.90742,1.85402 1.31456,2.81092 0.99231,0.20964 1.98488,0.44741 2.97646,0.71335 -0.76716,0.68501 -1.54824,1.34411 -2.34196,1.97679 0.0636,1.03892 0.0905,2.07554 0.0813,3.1073 z m -1.2427,16.82594 c -0.49363,-0.89283 -1.01393,-1.75647 -1.55874,-2.58915 -1.00621,-0.0411 -2.01081,-0.0947 -3.01358,-0.16084 0.63223,-0.68642 1.24611,-1.40615 1.83849,-2.15852 -0.33407,-0.89879 -0.69881,-1.77205 -1.09226,-2.6172 0.97491,0.24656 1.94778,0.50422 2.91846,0.77292 0.37287,-0.30151 0.74245,-0.61186 1.10843,-0.93106 0.39227,-0.34213 0.78031,-0.6944 1.16377,-1.0566 0.0346,0.38923 0.064,0.77976 0.088,1.17149 0.0391,0.64046 0.0638,1.28378 0.0742,1.92933 0.84007,0.56809 1.66947,1.16296 2.48712,1.78397 -0.96878,0.34588 -1.9407,0.66176 -2.91439,0.94793 -0.33354,0.98624 -0.70062,1.95612 -1.09946,2.90773 z m -7.47985,15.12441 c -0.12211,-1.01328 -0.28112,-2.00871 -0.4749,-2.9845 -0.91763,-0.41466 -1.82895,-0.84054 -2.73375,-1.27756 0.84222,-0.39842 1.68032,-0.83621 2.51116,-1.31272 0.0264,-0.95881 0.0153,-1.90607 -0.0314,-2.83922 0.81117,0.59451 1.61649,1.19828 2.41579,1.81123 0.9506,-0.29015 1.9024,-0.61998 2.85255,-0.98956 -0.30103,0.9842 -0.63833,1.96291 -1.01207,2.93348 0.5665,0.84108 1.11335,1.70272 1.63947,2.58426 -1.02781,-0.0418 -2.04744,-0.1122 -3.05754,-0.21092 -0.67836,0.79004 -1.38207,1.55251 -2.10934,2.28551 z"
       id="path5104"
       inkscape:connector-curvature="0"
       inkscape:path-effect="#path-effect5106;#path-effect5108"
       inkscape:original-d="M 44.662649,148.5 C 56.677695,126.88803 65.857574,101.07925 77.872092,79.46781 89.886606,57.856365 100.28427,126.88803 112.91006,148.5"
       sodipodi:nodetypes="csc" />
  </g>
  <g
     inkscape:groupmode="layer"
     id="layer6"
     inkscape:label="title"
     sodipodi:insensitive="true">
    <text
       xml:space="preserve"
       style="font-size:8.46666622px;line-height:1.25em;font-family:serif;-inkscape-font-specification:serif;text-align:start;fill:#302833;stroke-width:0.25;stroke-linecap:round;stroke-linejoin:round"
       x="51.337547"
       y="136.97365"
       id="text6737"><tspan
         sodipodi:role="line"
         id="tspan6735"
         x="51.337547"
         y="136.97365"
         style="-inkscape-font-specification:serif;text-align:start">the</tspan></text>
    <text
       xml:space="preserve"
       style="font-size:14.8166666px;line-height:1.25em;font-family:serif;-inkscape-font-specification:serif;text-align:center;text-anchor:middle;fill:#302833;stroke-width:0.25;stroke-linecap:round;stroke-linejoin:round"
       x="78.427223"
       y="147.62405"
       id="text6741"><tspan
         sodipodi:role="line"
         id="tspan6739"
         x="78.427223"
         y="147.62405"
         style="-inkscape-font-specification:serif">sample</tspan></text>
    <text
       xml:space="preserve"
       style="font-size:7.76111126px;line-height:1.25em;font-family:serif;-inkscape-font-specification:serif;text-align:end;text-anchor:end;fill:#302833;stroke-width:0.25;stroke-linecap:round;stroke-linejoin:round"
       x="104.2444"
       y="156.35645"
       id="text6745"><tspan
         sodipodi:role="line"
         id="tspan6743"
         x="104.2444"
         y="156.35645"
         style="text-align:end">restaurant</tspan></text>
  </g>
  <g
     inkscape:groupmode="layer"
     id="layer7"
     inkscape:label="menu">
    <text
       xml:space="preserve"
       style="font-size:7.05555534px;line-height:1.25em;font-family:serif;-inkscape-font-specification:serif;text-align:center;text-anchor:middle;fill:#302833;stroke-width:0.25;stroke-linecap:round;stroke-linejoin:round"
       x="184.63393"
       y="81.525047"
       id="text6750"><tspan
         sodipodi:role="line"
         id="tspan6748"
         x="184.63393"
         y="81.525047"
         style="text-align:center">Menu</tspan></text>
    <text
       xml:space="preserve"
       style="font-weight:bold;font-size:2.82222223px;line-height:1.25em;font-family:serif;-inkscape-font-specification:'serif Bold';text-align:start;fill:#302833;stroke-width:0.25;stroke-linecap:round;stroke-linejoin:round"
       x="166.52708"
       y="93.630547"
       id="text6760"><tspan
         sodipodi:role="line"
         id="tspan6758"
         x="166.52708"
         y="93.630547"
         style="-inkscape-font-specification:'serif Bold';text-align:start">Sample</tspan></text>
    <text
       xml:space="preserve"
       style="font-weight:bold;font-size:2.82222223px;line-height:1.25em;font-family:serif;-inkscape-font-specification:'serif Bold';text-align:end;text-anchor:end;fill:#302833;stroke-width:0.25;stroke-linecap:round;stroke-linejoin:round"
       x="199.5638"
       y="93.403168"
       id="text6764"><tspan
         sodipodi:role="line"
         id="tspan6762"
         x="199.5638"
         y="93.403168"
         style="-inkscape-font-specification:'serif Bold'">...............XX</tspan></text>
  </g>
  <g
     inkscape:groupmode="layer"
     id="layer2"
     inkscape:label="mark"
     sodipodi:insensitive="true"
     style="display:none">
    <g
       id="g4516">
      <g
         id="g4506">
        <path
           style="fill:none;stroke:#000000;stroke-width:0.2"
           d="m -12,0 h 9 v -12"
           id="path4485"
           inkscape:connector-curvature="0" />
        <use
           x="0"
           y="0"
           xlink:href="#path4485"
           id="use4502"
           width="100%"
           height="100%"
           transform="matrix(0,1,1,0,0,0)" />
      </g>
      <use
         transform="matrix(-1,0,0,1,210,0)"
         height="100%"
         width="100%"
         id="use4508"
         xlink:href="#g4506"
         y="0"
         x="0" />
      <path
         style="stroke:#000000;stroke-width:0.2"
         d="m 105,-12 v 9"
         id="path4524"
         inkscape:connector-curvature="0" />
      <path
         style="stroke:#000000;stroke-width:0.2"
         d="m 96,-6 h 18"
         id="path4548"
         inkscape:connector-curvature="0" />
      <path
         style="stroke:#000000;stroke-width:0.2"
         d="m -12,148.5 h 9"
         id="path4554"
         inkscape:connector-curvature="0" />
      <path
         style="stroke:#000000;stroke-width:0.2"
         d="M -6,159 V 138"
         id="path4556"
         inkscape:connector-curvature="0" />
    </g>
    <use
       x="0"
       y="0"
       xlink:href="#g4516"
       id="use4518"
       width="100%"
       height="100%"
       transform="rotate(-180,105,148.5)" />
    <path
       style="fill:none;stroke:#302833;stroke-width:0.25;stroke-linecap:round;stroke-linejoin:round"
       d="m 78.812979,118.65453 v 3.75757 h 4.129722"
       id="path6731"
       inkscape:connector-curvature="0" />
  </g>
</svg>
