<?xml version="1.0" encoding="UTF-8" standalone="no"?>
<!-- Created with Inkscape (http://www.inkscape.org/) -->

<svg
   xmlns:osb="http://www.openswatchbook.org/uri/2009/osb"
   xmlns:dc="http://purl.org/dc/elements/1.1/"
   xmlns:cc="http://creativecommons.org/ns#"
   xmlns:rdf="http://www.w3.org/1999/02/22-rdf-syntax-ns#"
   xmlns:svg="http://www.w3.org/2000/svg"
   xmlns="http://www.w3.org/2000/svg"
   xmlns:xlink="http://www.w3.org/1999/xlink"
   xmlns:sodipodi="http://sodipodi.sourceforge.net/DTD/sodipodi-0.dtd"
   xmlns:inkscape="http://www.inkscape.org/namespaces/inkscape"
   width="210mm"
   height="297mm"
   viewBox="0 0 210 297"
   version="1.1"
   id="svg8"
   inkscape:version="0.92.1 r15371"
   sodipodi:docname="Worry_kills_more_people.svg">
  <defs
     id="defs2">
    <linearGradient
       id="linearGradient4864"
       osb:paint="solid">
      <stop
         style="stop-color:#716246;stop-opacity:1"
         offset="0"
         id="stop4862" />
    </linearGradient>
    <linearGradient
       id="linearGradient4858"
       osb:paint="solid">
      <stop
         style="stop-color:#ab6953;stop-opacity:1"
         offset="0"
         id="stop4856" />
    </linearGradient>
    <linearGradient
       id="linearGradient4852"
       osb:paint="solid">
      <stop
         style="stop-color:#475950;stop-opacity:1"
         offset="0"
         id="stop4850" />
    </linearGradient>
    <linearGradient
       inkscape:collect="always"
       xlink:href="#linearGradient4852"
       id="linearGradient4854"
       x1="64.103124"
       y1="16.627481"
       x2="77.33892"
       y2="16.627481"
       gradientUnits="userSpaceOnUse" />
    <linearGradient
       inkscape:collect="always"
       xlink:href="#linearGradient4858"
       id="linearGradient4860"
       x1="51.591685"
       y1="20.405602"
       x2="63.714192"
       y2="20.405602"
       gradientUnits="userSpaceOnUse" />
    <linearGradient
       inkscape:collect="always"
       xlink:href="#linearGradient4864"
       id="linearGradient4866"
       x1="58.429059"
       y1="75.801148"
       x2="151.57093"
       y2="75.801148"
       gradientUnits="userSpaceOnUse" />
  </defs>
  <sodipodi:namedview
     id="base"
     pagecolor="#ffffff"
     bordercolor="#666666"
     borderopacity="1.0"
     inkscape:pageopacity="0.0"
     inkscape:pageshadow="2"
     inkscape:zoom="0.9068198"
     inkscape:cx="366.74148"
     inkscape:cy="546.80105"
     inkscape:document-units="mm"
     inkscape:current-layer="layer7"
     showgrid="true"
     inkscape:snap-page="true"
     inkscape:snap-bbox="false"
     borderlayer="true"
     inkscape:showpageshadow="false"
     inkscape:snap-global="true"
     inkscape:bbox-paths="true"
     inkscape:pagecheckerboard="true"
     inkscape:snap-center="true"
     inkscape:snap-intersection-paths="true"
     inkscape:bbox-nodes="true"
     inkscape:snap-smooth-nodes="true"
     inkscape:object-paths="true"
     showguides="false"
     inkscape:guide-bbox="true"
     inkscape:lockguides="true">
    <sodipodi:guide
       position="105,300.00001"
       orientation="0,1"
       id="guide4495"
       inkscape:locked="true" />
    <sodipodi:guide
       position="105,-3.0000001"
       orientation="0,1"
       id="guide4497"
       inkscape:locked="true" />
    <sodipodi:guide
       position="-2.9999999,148.5"
       orientation="1,0"
       id="guide4499"
       inkscape:locked="true" />
    <sodipodi:guide
       position="213,148.5"
       orientation="1,0"
       id="guide4501"
       inkscape:locked="true" />
    <sodipodi:guide
       position="24.341326,288.90556"
       orientation="0,1"
       id="guide4515"
       inkscape:locked="true" />
    <sodipodi:guide
       position="43.129049,271.89026"
       orientation="0,1"
       id="guide4517"
       inkscape:locked="true" />
    <sodipodi:guide
       position="17.487943,288.90557"
       orientation="1,0"
       id="guide4519"
       inkscape:locked="true" />
    <sodipodi:guide
       position="34.857724,271.89027"
       orientation="1,0"
       id="guide4521"
       inkscape:locked="true" />
    <sodipodi:guide
       position="192.51205,297.00001"
       orientation="1,0"
       id="guide4525"
       inkscape:locked="true" />
    <sodipodi:guide
       position="175.14227,297.00001"
       orientation="1,0"
       id="guide4527"
       inkscape:locked="true" />
    <sodipodi:guide
       position="34.857722,25.109742"
       orientation="0,1"
       id="guide4529"
       inkscape:locked="true" />
    <sodipodi:guide
       position="0,8.0944521"
       orientation="0,1"
       id="guide4531"
       inkscape:locked="true" />
    <sodipodi:guide
       position="151.06381,191.50347"
       orientation="1,0"
       id="guide4539"
       inkscape:locked="true" />
    <sodipodi:guide
       position="58.936181,247.81182"
       orientation="1,0"
       id="guide4541"
       inkscape:locked="true" />
    <sodipodi:guide
       position="-12,148.5"
       orientation="0,1"
       id="guide4614"
       inkscape:locked="true" />
    <sodipodi:guide
       position="105,309"
       orientation="1,0"
       id="guide4618"
       inkscape:locked="true" />
  </sodipodi:namedview>
  <metadata
     id="metadata5">
    <rdf:RDF>
      <cc:Work
         rdf:about="">
        <dc:format>image/svg+xml</dc:format>
        <dc:type
           rdf:resource="http://purl.org/dc/dcmitype/StillImage" />
        <dc:title></dc:title>
        <cc:license
           rdf:resource="http://creativecommons.org/publicdomain/zero/1.0/" />
        <dc:source>https://digitalcollections.nypl.org/items/510d47da-5483-a3d9-e040-e00a18064a99</dc:source>
      </cc:Work>
      <cc:License
         rdf:about="http://creativecommons.org/publicdomain/zero/1.0/">
        <cc:permits
           rdf:resource="http://creativecommons.org/ns#Reproduction" />
        <cc:permits
           rdf:resource="http://creativecommons.org/ns#Distribution" />
        <cc:permits
           rdf:resource="http://creativecommons.org/ns#DerivativeWorks" />
      </cc:License>
    </rdf:RDF>
  </metadata>
  <g
     inkscape:groupmode="layer"
     id="layer3"
     inkscape:label="white"
     sodipodi:insensitive="true">
    <rect
       style="fill:#dcd3b2;stroke-width:0.99999994"
       id="rect4494"
       width="215.88672"
       height="303"
       x="-3"
       y="-3" />
  </g>
  <g
     inkscape:groupmode="layer"
     id="layer2"
     inkscape:label="mark"
     sodipodi:insensitive="true">
    <g
       id="g4516">
      <g
         id="g4506">
        <path
           style="fill:none;stroke:#000000;stroke-width:0.2"
           d="m -12,0 h 9 v -12"
           id="path4485"
           inkscape:connector-curvature="0" />
        <use
           x="0"
           y="0"
           xlink:href="#path4485"
           id="use4502"
           width="100%"
           height="100%"
           transform="matrix(0,1,1,0,0,0)" />
      </g>
      <use
         transform="matrix(-1,0,0,1,210,0)"
         height="100%"
         width="100%"
         id="use4508"
         xlink:href="#g4506"
         y="0"
         x="0" />
      <path
         style="stroke:#000000;stroke-width:0.2"
         d="m 105,-12 v 9"
         id="path4524"
         inkscape:connector-curvature="0" />
      <path
         style="stroke:#000000;stroke-width:0.2"
         d="m 96,-6 h 18"
         id="path4548"
         inkscape:connector-curvature="0" />
      <path
         style="stroke:#000000;stroke-width:0.2"
         d="m -12,148.5 h 9"
         id="path4554"
         inkscape:connector-curvature="0" />
      <path
         style="stroke:#000000;stroke-width:0.2"
         d="M -6,159 V 138"
         id="path4556"
         inkscape:connector-curvature="0" />
    </g>
    <use
       x="0"
       y="0"
       xlink:href="#g4516"
       id="use4518"
       width="100%"
       height="100%"
       transform="rotate(-180,105,148.5)" />
  </g>
  <g
     inkscape:groupmode="layer"
     id="layer4"
     inkscape:label="frame"
     sodipodi:insensitive="true">
    <g
       inkscape:groupmode="layer"
       id="layer7"
       inkscape:label="line"
       sodipodi:insensitive="true">
      <rect
         style="fill:none;stroke:#716246;stroke-linecap:round;stroke-linejoin:round"
         id="rect4543"
         width="175.02411"
         height="280.81113"
         x="17.487942"
         y="8.0944405" />
      <rect
         style="fill:none;stroke:#716246;stroke-linecap:round;stroke-linejoin:round"
         id="rect4545"
         width="140.28455"
         height="246.7805"
         x="34.857723"
         y="25.109739" />
    </g>
    <g
       inkscape:groupmode="layer"
       id="layer8"
       inkscape:label="ornament 1">
      <g
         inkscape:groupmode="layer"
         id="layer10"
         inkscape:label="clone"
         sodipodi:insensitive="true">
        <use
           x="0"
           y="0"
           xlink:href="#layer9"
           id="use4575"
           width="100%"
           height="100%"
           transform="matrix(-1,0,0,1,210,0)" />
        <use
           x="0"
           y="0"
           xlink:href="#layer9"
           id="use4575-2"
           width="100%"
           height="100%"
           transform="rotate(-180,105,148.5)" />
        <use
           x="0"
           y="0"
           xlink:href="#layer9"
           id="use4575-9"
           width="100%"
           height="100%"
           transform="matrix(1,0,0,-1,0,297)" />
      </g>
      <g
         inkscape:groupmode="layer"
         id="layer9"
         inkscape:label="org">
        <path
           style="fill:#ab6953;stroke-linecap:round;stroke-linejoin:round"
           d="m 46.024012,13.884376 c 2.428298,-1.079646 0.443106,-4.5787694 -1.831508,-3.603935 -1.920127,0.974835 -0.62143,4.694536 1.831508,3.603935 z"
           id="path4573"
           inkscape:connector-curvature="0"
           sodipodi:nodetypes="scs" />
        <path
           id="path4612"
           style="fill:url(#linearGradient4860);stroke-linecap:round;stroke-linejoin:round"
           d="m 62.034933,19.142575 c 1.772426,0.147702 2.601112,3.612237 0.147702,3.751636 -2.599558,0.147703 -2.629099,-3.751636 -0.147702,-3.751636 z m -4.0175,-1.35886 c 1.831508,0.118161 2.137267,3.609066 -0.118161,3.574393 -2.461559,-0.03784 -2.245073,-3.633474 0.118161,-3.574393 z m -5.878548,2.126911 c 2.185993,-1.654265 3.928879,1.595184 2.570019,2.776802 -1.358861,1.181618 -4.342447,-0.945294 -2.570019,-2.776802 z"
           inkscape:connector-curvature="0" />
        <path
           style="fill:url(#linearGradient4852);stroke-width:0.05;stroke-linecap:round;stroke-linejoin:round"
           d="m 43.572155,20.442355 c 0.827133,-1.092998 1.329321,-3.072207 1.181618,-4.815093 2.392778,-0.531728 4.696932,-2.894956 4.549229,-5.31728 2.688179,0.502187 6.823843,-0.02954 8.035,-0.9748349 0.886214,0.9452939 3.101748,1.5951849 4.312905,1.4179419 -0.05908,1.920129 1.299781,4.371985 2.304154,5.110496 -2.038289,-0.265864 -3.367608,0.295405 -3.781176,2.038291 -2.599559,-1.270239 -4.578768,-0.354486 -4.342445,1.624725 -2.57002,-1.329321 -5.287739,-0.708971 -7.030624,2.422316 -1.152079,0 -4.047043,0.768051 -5.228659,1.506563 -0.649891,0 -2.274614,0 -3.072206,0.08862 9.689264,-5.99671 11.550312,-10.516398 19.998879,-9.30524 -7.650975,-3.338071 -14.002171,5.140037 -16.926675,6.203495 z"
           id="path4620"
           inkscape:connector-curvature="0"
           sodipodi:nodetypes="ccccccccccccc" />
        <path
           id="path4624"
           style="fill:url(#linearGradient4852);stroke-width:0.05;stroke-linecap:round;stroke-linejoin:round"
           d="m 29.953748,15.489069 c 0.689313,-1.691949 2.423037,-2.047048 3.237679,-4.76252 1.79639,1.4204 4.17765,0.856417 5.765156,-0.60576 0.689314,1.19063 2.297709,2.527478 3.446563,2.339484 -0.668425,0.751976 -0.355101,2.548366 -0.96086,3.028794 -0.668425,-2.819912 -6.266475,-2.778135 -11.488538,2e-6 z m 8.125529,8.856617 c 0.647536,-0.605759 1.754614,-1.023524 2.318597,-0.939971 0.563981,-1.295072 1.963496,-2.339483 2.172377,-3.279455 0.0488,-0.219616 -0.17641,-0.348987 -0.3551,-0.167106 -1.169743,1.190631 -3.634556,1.775501 -5.681604,0.981748 3.363007,-0.12533 5.681604,-1.065301 6.517135,-2.276819 0.292433,-1.044413 0.06266,-5.01318 0,-5.201174 -0.06267,-0.187994 -0.647536,-0.334212 -0.710203,0.06266 -0.06266,0.396877 0.0209,2.799026 -0.939969,3.697221 0.02089,-3.237679 -4.971405,-4.198539 -10.172578,-1.566619 1.503954,0.02089 2.527479,0.898195 2.652807,1.629283 1.357736,-1.0653 3.175015,-0.814641 3.425673,0.501319 1.796388,-1.148855 1.900831,-0.146221 2.569254,-5e-6 0.430462,0.09416 0.835531,-0.3551 1.232408,-0.22977 -0.459542,0.939971 -1.879943,0.48043 -2.214155,0.187994 -0.125329,2.590142 -2.819915,2.005271 -5.148952,2.642367 1.84861,0.532655 3.916547,2.725921 4.33431,3.958327 z"
           inkscape:connector-curvature="0"
           sodipodi:nodetypes="ccccccccssccccccccscccc" />
        <path
           style="fill:url(#linearGradient4858);stroke-width:0.05;stroke-linecap:round;stroke-linejoin:round"
           d="m 30.072171,148.67742 c 0.643481,-0.16313 0.928622,-3.00212 -0.206781,-3.0722 -2.392777,-0.1477 -4.66539,-0.71162 -6.6466,-0.91576 -0.725751,-0.0748 -0.857442,2.76303 -0.561269,3.10175 0.698569,0.79894 5.95457,1.25637 7.41465,0.88621 z"
           id="path4627"
           inkscape:connector-curvature="0"
           sodipodi:nodetypes="sssss" />
        <path
           style="fill:url(#linearGradient4852);stroke-width:0.05;stroke-linecap:round;stroke-linejoin:round"
           d="m 21.055355,135.07425 c 0.219023,2.92573 1.646078,5.54773 3.801661,8.06287 0.235454,0.27006 0.10466,1.34552 -1.342822,0.37069 -1.211158,-1.83151 -3.131288,-2.36324 -3.633475,-2.59956 0.177244,-1.12254 0.133017,-5.09061 -0.03688,-5.75042 -0.08355,-0.79374 1.158413,-0.79298 1.211519,-0.0836 z"
           id="path4629"
           inkscape:connector-curvature="0"
           sodipodi:nodetypes="sccccs" />
        <path
           id="path4633"
           style="fill:url(#linearGradient4858);stroke-width:0.05;stroke-linecap:round;stroke-linejoin:round"
           d="m 25.93651,140.52426 c 1.358861,-0.76805 3.68174,1.0793 1.920128,2.4814 -1.447481,1.15208 -3.781176,-1.29978 -1.920128,-2.4814 z m -1.654265,-4.22428 c 1.831508,-0.59081 2.835882,2.12691 1.092997,2.86542 -1.742886,0.73851 -3.485773,-1.56564 -1.092997,-2.86542 z"
           inkscape:connector-curvature="0" />
        <path
           style="fill:url(#linearGradient4852);stroke-width:0.05;stroke-linecap:round;stroke-linejoin:round"
           d="m 24.459488,126.46301 c 0.147702,-0.41357 0.590809,-0.50219 0.974835,0.1477 0.384026,0.64989 2.185993,1.62472 3.692555,1.53611 0.472647,-0.0295 0.561269,-0.0886 0.797592,0.67943 0.295404,1.03391 1.772428,2.80634 2.924506,3.16082 0.561268,0.14771 0.531727,0.62035 0.295402,1.12254 -0.236324,0.50219 -0.679429,5.37636 -0.620348,5.87855 0.05908,0.50219 -0.827132,0.73851 -0.974836,-0.38403 -0.295403,-4.4606 -2.422316,-7.56235 -6.794301,-8.50765 5.287739,2.09737 6.676141,6.29212 6.439818,14.41574 -0.236326,0.64989 -1.525291,0.11684 -1.477024,-0.76805 0.08862,-1.62472 -0.62035,-3.63347 -2.71772,-4.28337 0.945294,-2.83588 -1.092997,-4.60831 -3.515314,-4.22428 -0.02954,-1.92013 -1.092995,-3.60393 -2.776801,-4.34244 -0.561269,-0.26587 -0.590809,-0.7976 -0.08862,-1.093 1.713345,-0.76805 3.692555,-2.9245 3.840257,-3.33807 z"
           id="path4635"
           inkscape:connector-curvature="0"
           sodipodi:nodetypes="ssccccccccsccccs" />
        <path
           style="fill:url(#linearGradient4858);stroke-width:0.05;stroke-linecap:round;stroke-linejoin:round"
           d="m 21.26912,123.0954 c 2.422316,0.20678 1.477022,3.60393 0.11816,3.63347 -2.304154,0.0296 -2.540479,-3.63347 -0.11816,-3.63347 z"
           id="path4637"
           inkscape:connector-curvature="0"
           sodipodi:nodetypes="ccc" />
        <path
           id="path4643"
           style="fill:url(#linearGradient4852);stroke-width:0.05;stroke-linecap:round;stroke-linejoin:round"
           d="m 19.551401,120.49429 c 0.06266,1.35774 0.793753,1.29508 0.814642,0.73109 0.208884,-2.6528 1.357736,-4.40741 3.279454,-4.32386 0.731089,-1.83817 2.088826,-2.33949 4.05232,-1.50396 1.107079,-4.32387 4.261204,-5.47272 4.950514,-6.89312 0.229773,-0.41777 -0.146216,-0.66842 -0.438652,-0.3551 -0.292436,0.31332 -1.650172,0.98175 -2.736361,1.00264 -1.441288,0.0836 -2.945243,-0.64754 -3.488337,-0.62665 -0.543094,0.0209 -1.088874,0.55825 -1.838165,0.41776 -1.336848,-0.25066 -3.195902,-2.10971 -3.509226,-2.31859 -0.313324,-0.20888 -0.939971,-0.29244 -0.814642,0.37599 0.563982,3.07057 0.02265,3.54361 0.125329,5.78604 0.02382,0.52012 0.584871,0.45955 0.83553,0 2.506591,-2.50658 6.496245,-1.75461 7.122892,-2.08882 -1.288799,1.12995 -3.714242,0.96907 -5.484964,1.84816 -1.099999,0.54611 -1.688132,1.38032 -2.243687,1.7655 -0.07386,0.50225 -0.42054,1.33812 -0.287419,2.21971 0.140482,0.93033 -0.337958,2.91315 -0.339228,3.96321 z m 5.389168,-3.42567 c 3.321231,2.29771 5.660715,6.07848 6.600688,12.24052 0.146215,0.68931 1.232406,0.96085 1.190628,0.0209 0.02089,-2.77815 -0.98176,-6.89313 0.104441,-8.1882 0.187994,-0.20888 0.187994,-0.33421 -0.04178,-0.43865 -1.545732,-0.54309 -2.924354,-2.71548 -2.569255,-4.32387 0.06266,-0.0836 -0.375989,-0.3551 -0.480431,-0.27155 -0.104441,0.0836 -0.647534,0.7102 -1.274181,0.66843 -0.626647,-0.0209 -2.04705,-1.14886 -2.715473,-1.10708 -0.668424,0.0418 -0.981748,1.06531 -0.814642,1.39951 z m -4.173636,4.31343 c 1.065878,-0.88944 0.21691,-2.06154 1.213713,-3.17842 2.138374,-2.11458 6.409161,2.8087 8.534633,8.90927 0.248329,0.84879 -0.816997,0.67017 -0.974833,0.32494 -0.826264,-1.49406 -3.788883,-2.87645 -4.848218,-2.17375 -0.536799,0.35607 -0.825648,0.0332 -0.675846,-0.60305 -0.330627,-2.39079 -2.401429,-2.92092 -2.818578,-2.77322 -0.563369,0.27303 -0.719109,-0.27809 -0.430871,-0.50577 z"
           inkscape:connector-curvature="0" />
        <g
           id="g4702">
          <path
             id="path4645-6"
             style="fill:url(#linearGradient4858);stroke-width:0.05;stroke-linecap:round;stroke-linejoin:round"
             d="m 22.444424,100.15992 c 0.02089,-0.438646 1.345662,-1.426755 3.363007,-1.462165 1.838356,-0.0323 3.342121,1.065297 3.342121,1.566615 0,0.50131 -1.587509,1.42039 -3.321233,1.42039 -1.733724,0 -3.363007,-0.96086 -3.383895,-1.52484 z m -0.114886,6.29747 c 0.02089,-0.43865 1.366551,-1.59387 3.383896,-1.62928 1.838356,-0.0323 3.446562,1.08619 3.446562,1.58751 0,0.50131 -1.69195,1.56661 -3.425674,1.56661 -1.733724,0 -3.383896,-0.96086 -3.404784,-1.52484 z"
             inkscape:connector-curvature="0" />
          <path
             id="path4679-6"
             style="fill:url(#linearGradient4852);stroke-width:0.05;stroke-linecap:round;stroke-linejoin:round"
             d="m 27.217716,96.777071 c -0.538453,0.07085 -0.563982,0.626648 -0.04178,0.793754 1.921719,0.543093 3.885214,2.193272 3.989655,3.363005 2e-6,0.33421 0.731089,0.39688 0.710201,-0.0418 -0.02089,-0.31332 -0.08356,-7.060224 -0.08355,-7.457087 0.02089,-0.334203 -0.480427,-0.396867 -0.522203,0.02089 -0.146222,1.044418 -2.464814,3.112354 -4.052321,3.321236 z m -6.956115,-3.040627 c 0.104445,0.731091 2.15149,2.882581 3.738997,3.091463 0.538453,0.07085 0.563982,0.626647 0.04178,0.793753 -1.921719,0.543093 -3.488337,2.088831 -3.592778,3.25857 -2e-6,0.33421 -0.731089,0.39688 -0.710201,-0.0418 0.02089,-0.31332 2e-6,-6.726017 -10e-7,-7.12288 -0.02089,-0.334203 0.480427,-0.396867 0.522203,0.02089 z m 7.327006,9.336366 c -0.313059,0.0129 -0.375988,0.77286 -0.02089,0.75197 1.696815,0.12962 1.835895,1.35528 2.611029,1.29508 0.438654,0.0627 0.480431,-1.12797 0.480432,-1.75462 -0.06266,-1.04441 -0.160225,-1.47381 -0.563981,-1.50395 -0.543094,-0.0209 -0.981748,1.14886 -2.50659,1.21152 z m -5.906605,-1.35705 c 0.83553,-0.0418 0.856419,1.27419 2.381261,1.33685 0.313059,0.0129 0.375988,0.77286 0.02089,0.75197 -1.696816,0.12962 -1.835896,1.35528 -2.61103,1.29508 -0.438654,0.0627 -0.480431,-1.12797 -0.480432,-1.75462 0.06266,-1.04441 0.198273,-1.60473 0.689311,-1.62928 z"
             inkscape:connector-curvature="0" />
        </g>
        <use
           x="0"
           y="0"
           xlink:href="#g4702"
           id="use4704"
           width="100%"
           height="100%"
           transform="translate(0,-12.491173)" />
        <use
           x="0"
           y="0"
           xlink:href="#g4702"
           id="use4704-6"
           width="100%"
           height="100%"
           transform="translate(-0.11495229,-25.23881)" />
        <use
           x="0"
           y="0"
           xlink:href="#g4702"
           id="use4704-6-2"
           width="100%"
           height="100%"
           transform="translate(-0.0313993,-37.64643)" />
        <path
           style="fill:url(#linearGradient4858);stroke-width:0.05;stroke-linecap:round;stroke-linejoin:round"
           d="m 25.608993,54.905195 c 1.712837,0 3.279456,0.960858 3.321231,1.462177 0.04178,0.501317 -1.399511,1.650172 -3.133237,1.671058 -1.733724,0.02088 -3.154126,-0.898194 -3.195902,-1.483063 -0.04178,-0.584872 1.232407,-1.54573 3.007908,-1.650172 z"
           id="path4736"
           inkscape:connector-curvature="0" />
        <path
           style="fill:url(#linearGradient4858);stroke-width:0.05;stroke-linecap:round;stroke-linejoin:round"
           d="m 29.995526,49.557802 c 2.005272,-0.522206 3.488336,2.402149 1.190628,3.446563 -2.297705,1.044411 -3.67633,-2.423038 -1.190628,-3.446563 z"
           id="path4738"
           inkscape:connector-curvature="0" />
        <path
           style="fill:url(#linearGradient4852);stroke-width:0.05;stroke-linecap:round;stroke-linejoin:round"
           d="m 23.100628,54.620649 c 1.270239,-1.122538 3.249449,-1.920129 4.0175,-1.94967 0.324944,-0.02954 0.561268,-0.265864 0.443107,-0.679429 -0.21902,-1.479122 0.76805,-2.983586 1.890589,-3.426692 0.265862,-0.02954 0.324944,-0.324945 0.177241,-0.62035 -0.756429,-1.603836 0.488107,-3.143776 2.28685,-4.031222 -0.915754,-2.392775 0.165007,-5.511827 0.224088,-5.894368 0.121745,-0.340764 -0.324945,-0.700317 -0.62035,-0.19813 -1.381593,2.758118 -6.443366,8.684501 -7.132967,11.015003 -0.07725,0.261051 -0.120262,0.674362 -0.488466,0.822063 0.03522,-6.282189 10.556182,-12.356962 7.828218,-18.196914 0.0028,-1.642532 1.632095,-2.415398 -0.268735,-8.535654 1.336848,0.710201 3.091461,0.814641 4.073208,0.208882 0.375989,-0.22977 0.208882,-0.939971 -0.167106,-0.856418 -1.859054,0.229774 -3.906102,-0.208883 -5.911374,-2.423037 -0.248072,-0.273913 -1.629283,0.12533 -0.83553,0.939971 5.222062,7.018452 0.396877,16.689711 -4.699856,14.43378 -0.313324,-0.125329 -0.91158,0.22021 -0.313324,0.83553 1.163467,1.196653 4.678968,1.253296 6.663352,-2.255931 1.002636,1.211518 -1.79639,5.389168 -4.762521,4.88785 -0.280138,-0.04735 -0.83553,-0.04178 -0.856418,0.334213 -0.229772,1.232406 -1.754613,2.840801 -3.237679,2.840801 -0.48043,0 -0.48043,0.292436 -0.375988,0.626648 0.543094,1.54573 0.02089,3.551002 -1.127966,4.323867 -0.334212,0.104442 -0.543094,0.334212 -0.334212,0.772866 0.60576,0.814641 0.731089,2.694584 0.187994,4.073208 0.738079,0.409176 1.834267,0.754533 2.435258,1.386863 0.555589,0.584562 0.591535,1.337635 0.905087,1.56627 z"
           id="path4740"
           inkscape:connector-curvature="0"
           sodipodi:nodetypes="ccccccccscccccsccscscsccccsc" />
        <path
           id="path4746"
           style="fill:url(#linearGradient4858);stroke-width:0.05;stroke-linecap:round;stroke-linejoin:round"
           d="m 24.857016,31.113478 c 1.378624,-0.543095 3.028797,2.297708 1.19063,3.028797 -1.838166,0.731088 -3.258567,-2.005272 -1.19063,-3.028797 z m -4.616303,0.939972 c 1.942607,-1.336847 3.69722,1.712836 2.088825,2.882577 -2.005272,1.295073 -3.989656,-1.462176 -2.088825,-2.882577 z m 0.751977,4.177649 c 1.921719,-0.68931 3.847552,2.139756 1.253295,3.300344 -2.381261,1.0653 -3.592779,-2.548366 -1.253295,-3.300344 z"
           inkscape:connector-curvature="0" />
        <path
           style="fill:url(#linearGradient4852);stroke-width:0.05;stroke-linecap:round;stroke-linejoin:round"
           d="m 24.397474,22.27775 c 0.167106,-0.104442 0.534191,0.06466 0.501318,0.334212 -0.208882,1.712836 2.067938,2.026159 3.36301,0.522206 0.187992,-0.208883 0.375986,-0.229771 0.543094,-0.04178 0.167106,0.187995 0.647533,1.086189 0.626647,1.253295 -2.903468,2.443925 -6.203811,1.817279 -8.564183,-1.796389 1.420402,3.363008 3.634557,4.261202 6.350028,3.968768 0.438654,-0.25066 1.524842,-1.190631 1.650172,-1.378625 0.125328,-0.187995 0.793753,-0.02089 0.7102,0.271547 -0.543091,1.065301 -2.485701,3.551002 -3.676332,4.866961 -0.626647,-1.086189 -2.443925,-1.086187 -3.634555,-0.06266 -0.104441,0.146217 -0.417764,-0.08354 -0.459541,-0.375988 -0.208886,-0.96086 -1.253296,-2.255931 -2.402149,-2.840803 0.180367,-1.186816 0.85642,-3.049684 -0.06267,-5.786044 -0.187989,-0.563982 0.271547,-0.856418 0.772868,-0.459542 1.566621,1.483065 3.467452,1.859054 4.282093,1.524842 z"
           id="path4748"
           inkscape:connector-curvature="0"
           sodipodi:nodetypes="cscccccccccccccc" />
        <path
           id="path4752"
           style="fill:url(#linearGradient4852);stroke-width:0.05;stroke-linecap:round;stroke-linejoin:round"
           d="m 21.890885,10.538554 c 0.751977,0.104446 2.109713,0.06267 2.38126,-0.104441 0.271547,-0.167106 0.772865,0.396877 0.459542,0.689312 -0.510705,0.742589 -0.730483,1.454106 0.417764,2.631919 0.314378,0.322473 -0.397283,2.028455 -0.772865,1.295072 -0.586977,-1.146167 -2.757248,-2.819914 -3.613667,-3.780773 -0.208882,-0.187994 -0.668423,-1.6710603 1.127966,-0.731089 z m -1.274184,1.859054 c 0.563983,0.292435 2.569256,2.172378 3.049685,2.652808 0.167106,0.167105 -0.04178,0.396877 -0.313324,0.375988 -0.981747,-0.08355 -2.527478,0.208883 -3.363008,1.065301 -0.104441,0.146217 -0.522206,-0.48043 -0.417765,-0.689312 0.396876,-0.689313 0.396877,-2.109713 0.313324,-2.882579 -0.02089,-0.271547 0.250658,-0.772865 0.731088,-0.522206 z"
           inkscape:connector-curvature="0" />
        <path
           id="path4758"
           style="fill:url(#linearGradient4858);stroke-width:0.05;stroke-linecap:round;stroke-linejoin:round"
           d="m 25.692545,12.669156 c 0.773627,-0.528065 2.497231,0.688824 2.548367,2.151489 0.0687,1.965195 -0.919082,2.485702 -0.96086,4.762521 0.04178,1.253295 0.531703,1.340635 0.501319,1.90083 -0.02161,0.398484 -0.543094,0.856418 -1.253296,0.83553 -0.7102,-0.02089 -1.90083,-1.086189 -1.984383,-3.007908 -0.08355,-1.921719 0.685482,-2.825862 0.898195,-3.655443 0.417765,-1.629283 -0.291117,-2.617212 0.250658,-2.987019 z m 5.180287,4.532749 c 0.856418,2.172378 -0.685796,2.465151 -1.023524,2.088826 -0.731089,-0.814642 -1.503955,-0.375989 -1.671061,-0.814642 -0.167105,-0.438653 0.541474,-0.501804 0.501319,-1.671061 -0.02797,-0.814556 1.232405,-1.148853 2.193266,0.396877 z m -9.504154,-0.751977 c 0.647536,-0.396876 2.339484,-1.044412 2.715473,-0.7102 0.375988,0.334212 -0.167106,1.817278 -0.167106,2.297707 0,0.48043 -1.127966,1.148854 -2.067937,0.334212 -0.939971,-0.814641 -0.939971,-1.733724 -0.48043,-1.921719 z"
           inkscape:connector-curvature="0" />
        <g
           id="g4821">
          <path
             inkscape:connector-curvature="0"
             d="m 75.782982,13.274764 c 0.459542,0.02089 1.483067,1.691948 1.503953,3.425673 0.02088,1.733725 -0.981747,3.279456 -1.378622,3.300343 -0.396878,0.02089 -1.621173,-1.122229 -1.67106,-3.34212 -0.04178,-1.859054 1.065299,-3.321231 1.545729,-3.383896 z m -6.559326,-0.125179 c 0.459542,0.02089 1.483067,1.691948 1.503953,3.425673 0.02088,1.733725 -0.981747,3.279455 -1.378622,3.300343 -0.396878,0.02089 -1.621173,-1.122229 -1.67106,-3.34212 -0.04178,-1.859054 1.065299,-3.321231 1.545729,-3.383896 z"
             style="fill:url(#linearGradient4858);stroke-width:0.05;stroke-linecap:round;stroke-linejoin:round"
             id="path4796-2" />
          <path
             inkscape:connector-curvature="0"
             d="m 75.928785,23.008841 c 0.334211,0 0.375988,-0.480429 -0.04178,-0.605759 -1.566619,-0.877312 -2.861692,-2.38126 -3.154127,-4.40742 -0.02088,-0.3551 -0.417764,-0.3551 -0.480428,-0.06266 -0.334217,1.712837 -1.900832,3.738996 -3.363008,4.428309 -0.530805,0.189714 -0.618613,0.69606 -0.08355,0.731084 0.751975,-0.04178 6.78868,-0.08355 7.122893,-0.08355 z m 1.0653,-12.783615 c 0.480428,-0.02089 0.438654,0.480431 1.2e-5,0.731089 -1.796391,0.793753 -3.46745,2.527478 -4.135875,4.595415 -0.104441,0.313323 -0.543094,0.313323 -0.647536,0.04178 -0.605759,-2.067936 -2.38126,-4.135873 -4.094096,-4.720744 -0.480429,-0.167103 -0.438653,-0.689312 0.08355,-0.7102 0.438648,0 8.480225,0.0763 8.793949,0.06266 z m -10.517502,7.941059 c -0.04178,-0.563983 -0.793755,-0.543094 -0.856418,-0.08356 -0.292441,1.524841 -1.357737,2.297706 -1.336851,2.8408 0.04178,0.313325 0.939973,0.584871 1.817281,0.584874 1.065299,0.02089 1.7755,-0.396874 1.733722,-0.699754 -0.04177,-0.449098 -1.044411,-1.305516 -1.357734,-2.642364 z m 1.076013,-5.350912 c 0.06267,0.396877 -0.793753,1.127965 -1.107076,2.464813 -0.04178,0.563983 -0.835531,0.501318 -0.898194,0.04178 -0.334218,-1.378623 -1.336849,-2.026159 -1.441292,-2.61103 -0.06266,-0.292436 0.898196,-0.501318 1.775504,-0.501321 1.065299,-0.02089 1.608394,0.355098 1.671058,0.605757 z"
             style="fill:url(#linearGradient4854);stroke-width:0.05;stroke-linecap:round;stroke-linejoin:round"
             id="path4815" />
        </g>
        <use
           x="0"
           y="0"
           xlink:href="#g4821"
           id="use4823"
           width="100%"
           height="100%"
           transform="translate(12.938715)" />
        <use
           x="0"
           y="0"
           xlink:href="#g4821"
           id="use4823-3"
           width="100%"
           height="100%"
           transform="translate(25.876186,0.12231841)" />
        <path
           style="fill:url(#linearGradient4852);stroke-width:0.05;stroke-linecap:round;stroke-linejoin:round"
           d="m 104.9623,12.331933 c -0.70905,-0.0074 -1.66991,0.05523 -1.63858,0.48344 0.0135,0.46523 0.8003,0.945244 1.20093,2.51902 0.10785,0.423675 0.3704,0.482126 0.47535,0.478443"
           id="path4846"
           inkscape:connector-curvature="0"
           sodipodi:nodetypes="ccsc" />
        <path
           style="fill:url(#linearGradient4852);stroke-width:0.05;stroke-linecap:round;stroke-linejoin:round"
           d="m 105,21.755543 c -0.99741,0.01044 -1.85383,-0.219327 -1.81205,-0.595315 0.0234,-0.27599 1.21156,-1.401442 1.3529,-2.847743 0.0285,-0.292036 0.30347,-0.494376 0.45915,-0.494376"
           id="path4848"
           inkscape:connector-curvature="0"
           sodipodi:nodetypes="ccsc" />
      </g>
    </g>
  </g>
  <g
     inkscape:groupmode="layer"
     id="layer5"
     inkscape:label="rule">
    <g
       id="g4571">
      <path
         inkscape:connector-curvature="0"
         id="path4553"
         d="M 151.06381,75.801148 H 58.93618"
         style="fill:none;stroke:url(#linearGradient4866);stroke-linecap:round;stroke-linejoin:round" />
      <path
         inkscape:connector-curvature="0"
         id="path4555"
         d="m 58.93618,102.59505 h 92.12763"
         style="fill:none;stroke:#716246;stroke-linecap:round;stroke-linejoin:round" />
      <path
         inkscape:connector-curvature="0"
         id="path4557"
         d="M 151.06381,129.38897 H 58.93618"
         style="fill:none;stroke:#716246;stroke-linecap:round;stroke-linejoin:round" />
      <path
         inkscape:connector-curvature="0"
         id="path4559"
         d="M 151.06381,156.18285 H 58.93618"
         style="fill:none;stroke:#716246;stroke-linecap:round;stroke-linejoin:round" />
      <path
         inkscape:connector-curvature="0"
         id="path4561"
         d="M 151.06381,182.97676 H 58.93618"
         style="fill:none;stroke:#716246;stroke-linecap:round;stroke-linejoin:round" />
      <path
         inkscape:connector-curvature="0"
         id="path4563"
         d="M 100.93861,209.77067 H 87.2188 m -19.03237,0 h -9.25025"
         style="fill:none;stroke:#716246;stroke-linecap:round;stroke-linejoin:round"
         sodipodi:nodetypes="cccc" />
      <use
         x="0"
         y="0"
         xlink:href="#path4563"
         id="use4887"
         width="100%"
         height="100%"
         transform="matrix(-1,0,0,1,210,0)" />
    </g>
  </g>
  <g
     inkscape:groupmode="layer"
     id="layer6"
     inkscape:label="ornament"
     sodipodi:insensitive="true">
    <path
       id="path4882"
       style="fill:none;stroke:url(#linearGradient4864);stroke-width:0.75;stroke-linecap:round;stroke-linejoin:round"
       d="m 99.858477,230.65866 c 0.109416,-0.69295 0.624443,-1.09414 1.240023,-1.09414 0.92506,0 2.37064,1.23965 2.37064,2.89742 0.037,2.25392 -1.61176,4.39685 -4.011846,4.39685 -8.862531,0 -13.640275,-21.62749 -24.326372,-24.90991 9.500243,7.10565 10.852273,17.42748 19.256858,24.58167 -6.60068,3.2316 -8.763668,-5.70267 -12.764962,-9.00842 0.392335,-0.56843 1.38591,-0.98472 2.042394,-1.02119 -2.8971,-1.98457 -4.206586,-6.81711 -7.841334,-9.11784 0.08988,-0.67159 0.802369,-1.31296 1.312968,-1.45885 -1.548735,-1.67325 -3.318891,-2.95418 -6.163654,-2.95418 -1.993722,0 -3.902431,2.11534 -3.902431,4.41303 0,2.2977 1.312967,4.15774 2.808291,4.15774 0.953754,0 1.553161,-0.86204 1.782671,-1.75947 1.6615,1.27908 1.153808,3.23968 -0.287346,3.80186 2.784021,2.24763 1.217142,5.97901 3.027119,7.73192 -0.401184,0.29177 -0.926889,0.34778 -1.422381,0.0365 0.388669,2.40679 -2.681401,5.06951 -4.996571,5.06951 -1.754827,0 -2.824122,-1.23322 -2.824122,-2.13584 0,-0.41262 0.236526,-0.87058 0.682494,-0.87058 0.611386,0 1.391317,0.96931 0.695011,1.6914 1.676292,0.23211 3.945735,-0.61893 3.945735,-2.55312 0,-3.76521 -6.344123,-6.47307 -6.008865,-11.99194 1.16051,2.16626 4.538885,4.71938 5.183613,6.13778 -1.886916,-4.39597 -7.370695,-8.13236 -1.098942,-14.48474 2.692884,-2.7275 8.253346,-3.01587 12.162474,-0.60189 0.128946,-0.64473 0.670517,-1.52157 1.366823,-1.65051 -0.103156,1.39262 6.550437,5.54466 7.582002,10.18671 0.618939,-0.41263 1.186299,-1.39262 2.114707,-1.36683 0.0886,2.40687 2.045285,3.74009 3.057564,7.07795 1.296176,4.27398 1.139752,9.06604 4.808118,9.06604 1.392604,0 2.424174,-0.69631 2.424174,-1.80524 0,-1.59892 -2.214853,-0.97765 -2.214853,-2.46169 z M 105,226.41518 h -3.90665 c 4.07468,1.93419 4.69987,7.69875 1.57314,11.45037 1.13913,0.99325 2.33351,3.3268 2.33351,5.10624 m 0,-19.36863 h -3.57139 c -1.32289,0 -2.343963,0.33212 -2.343963,0.76128 0,0.41092 1.024033,0.76128 2.343963,0.76128 H 105 m -3.28772,-9.85144 c 1.00578,0.59315 2.11471,1.46998 2.08892,2.24365 -0.0258,0.77368 -2.32491,2.68703 -0.48115,4.99241 -3.16008,-1.52026 -2.73676,-4.60244 -1.60777,-7.23606 z M 105,217.64688 c 0,1.03156 -2.66591,3.22989 0,4.84835 m 0,-12.72456 c 0,1.55819 -1.14467,3.78375 -1.72833,4.56395 0.58354,0.58354 1.72833,1.55759 1.72833,1.84936"
       inkscape:connector-curvature="0"
       sodipodi:nodetypes="cscsccccccsssccccssscsccsccccsssccccccssscccccccccc" />
    <use
       x="0"
       y="0"
       xlink:href="#path4882"
       id="use4885"
       width="100%"
       height="100%"
       transform="matrix(-1,0,0,1,210,2.465155e-5)" />
  </g>
</svg>
